<svg id="svg" version="1.1" width="800" height="450" xmlns="http://www.w3.org/2000/svg"><path d="M388.000 76.422 C 380.514 78.079,378.329 79.433,376.115 83.783 C 374.108 87.729,366.000 110.610,366.000 112.331 C 366.000 112.891,367.125 112.292,368.500 111.000 C 369.875 109.708,371.000 107.535,371.000 106.171 C 371.000 102.519,376.081 85.906,378.100 82.958 C 380.670 79.204,388.771 77.000,400.000 77.000 C 411.229 77.000,419.330 79.204,421.900 82.958 C 423.857 85.815,429.000 102.473,429.000 105.951 C 429.000 107.194,430.125 109.548,431.500 111.182 C 434.930 115.258,434.672 113.279,429.994 99.606 C 423.185 79.702,422.393 78.708,411.500 76.362 C 404.156 74.781,395.314 74.803,388.000 76.422 M299.750 85.525 C 298.174 86.407,297.000 87.921,297.000 89.072 C 297.000 92.074,300.716 98.777,303.263 100.369 C 306.788 102.571,321.754 105.202,323.980 104.011 C 325.366 103.269,326.978 103.528,330.177 105.007 C 336.127 107.758,341.033 110.759,344.000 113.463 C 345.375 114.716,347.738 116.526,349.250 117.486 C 351.547 118.942,352.000 119.932,352.000 123.490 C 352.000 125.833,351.719 129.156,351.375 130.875 C 350.845 133.523,350.302 134.000,347.816 134.000 C 346.202 134.000,345.141 134.419,345.457 134.931 C 346.319 136.325,344.095 137.324,342.703 136.168 C 341.110 134.846,317.932 132.635,312.311 133.268 C 309.895 133.541,306.996 134.599,305.867 135.620 C 304.739 136.641,301.720 138.622,299.158 140.023 C 294.564 142.534,294.022 143.648,295.559 147.414 C 296.109 148.762,295.994 149.114,295.170 148.605 C 294.526 148.207,294.000 148.289,294.000 148.786 C 294.000 150.011,297.388 153.000,298.776 153.000 C 299.391 153.000,302.055 154.165,304.697 155.590 C 309.180 158.007,310.200 158.153,320.012 157.775 C 328.840 157.435,331.441 156.937,336.243 154.665 C 340.892 152.465,342.310 152.177,343.824 153.122 C 345.357 154.079,346.375 153.817,349.575 151.643 C 354.220 148.486,356.581 148.290,357.290 151.000 C 357.577 152.100,358.353 153.000,359.013 153.000 C 359.697 153.000,359.953 152.319,359.607 151.418 C 359.273 150.548,359.000 147.412,359.000 144.448 L 359.000 139.060 355.360 141.530 C 351.793 143.951,346.274 144.983,347.500 143.000 C 347.840 142.450,348.940 142.000,349.944 142.000 C 350.948 142.000,352.481 140.914,353.351 139.587 C 354.221 138.260,356.389 136.854,358.170 136.463 C 359.951 136.072,362.249 134.682,363.276 133.376 C 365.604 130.417,365.899 130.424,369.232 133.515 C 371.319 135.450,371.820 136.660,371.404 138.765 C 371.107 140.269,371.355 142.625,371.955 144.000 C 372.912 146.192,372.992 145.967,372.607 142.167 C 372.087 137.033,372.924 137.348,374.049 142.710 C 374.487 144.795,375.157 147.512,375.539 148.750 C 376.519 151.928,374.398 151.638,371.139 148.149 C 369.674 146.580,366.916 144.491,365.010 143.505 C 361.910 141.902,361.753 141.635,363.522 140.974 C 365.650 140.180,369.587 136.246,368.911 135.589 C 368.405 135.098,365.931 134.722,364.250 134.882 C 362.385 135.058,362.741 136.786,364.750 137.311 C 365.827 137.592,365.442 137.813,363.750 137.884 C 361.327 137.986,361.000 138.394,361.000 141.309 C 361.000 145.224,362.276 147.069,367.000 149.989 L 370.500 152.152 366.750 151.777 C 364.148 151.516,363.000 151.799,363.000 152.701 C 363.000 153.609,364.655 154.000,368.497 154.000 C 373.415 154.000,374.419 154.383,378.024 157.640 C 380.240 159.642,382.345 160.988,382.702 160.631 C 383.459 159.874,388.000 163.888,388.000 165.314 C 388.000 167.786,391.811 168.936,400.000 168.936 C 408.189 168.936,412.000 167.786,412.000 165.314 C 412.000 163.888,416.541 159.874,417.298 160.631 C 417.655 160.988,419.739 159.662,421.929 157.684 C 425.407 154.541,428.523 152.529,436.130 148.513 C 437.159 147.970,438.003 146.845,438.006 146.013 C 438.010 145.181,438.682 143.216,439.501 141.646 C 440.862 139.037,440.822 138.559,439.041 136.058 C 436.647 132.696,434.000 130.419,434.000 131.723 C 434.000 132.255,434.855 133.464,435.900 134.410 C 439.142 137.344,439.147 139.831,435.915 142.221 C 434.312 143.406,433.000 145.056,433.000 145.888 C 433.000 148.319,431.029 145.770,429.524 141.392 C 428.355 137.992,428.409 137.115,429.980 134.017 C 430.961 132.083,432.052 127.575,432.404 124.000 L 433.045 117.500 431.538 121.500 C 430.708 123.700,430.023 126.457,430.015 127.628 C 430.007 128.798,429.325 130.315,428.500 131.000 C 427.675 131.685,427.000 133.046,427.000 134.025 C 427.000 135.090,425.834 136.211,424.096 136.817 C 421.706 137.650,420.907 138.810,419.583 143.364 C 418.698 146.408,417.530 149.173,416.987 149.508 C 415.458 150.453,415.810 148.002,418.052 142.105 C 420.487 135.698,420.078 134.000,416.102 134.000 C 413.297 134.000,413.082 134.301,412.005 139.750 C 411.380 142.912,410.428 146.917,409.890 148.649 C 408.831 152.058,409.655 157.331,411.107 156.434 C 411.598 156.130,412.000 156.328,412.000 156.874 C 412.000 158.503,408.106 159.250,399.567 159.258 C 391.385 159.266,388.000 158.557,388.000 156.834 C 388.000 156.310,388.402 156.130,388.893 156.434 C 390.345 157.331,391.169 152.058,390.110 148.649 C 389.572 146.917,388.620 142.912,387.995 139.750 C 386.927 134.350,386.684 134.000,383.988 134.000 C 382.410 134.000,380.831 134.464,380.480 135.032 C 379.370 136.828,384.186 148.604,386.435 149.592 C 387.571 150.092,388.500 151.400,388.500 152.500 C 388.500 155.572,382.516 155.833,379.391 152.897 C 377.398 151.025,377.014 149.723,377.081 145.076 C 377.162 139.537,377.172 139.520,378.536 142.500 C 379.292 144.150,379.930 146.258,379.955 147.185 C 379.980 148.112,380.500 150.137,381.110 151.685 C 382.133 154.277,382.279 154.342,382.965 152.500 C 383.400 151.330,383.181 149.670,382.436 148.500 C 381.736 147.400,380.650 144.555,380.023 142.178 C 379.136 138.812,378.254 137.636,376.034 136.862 C 374.432 136.303,372.943 134.911,372.635 133.681 C 371.922 130.842,364.307 125.000,361.318 125.000 C 359.358 125.000,359.000 125.514,359.000 128.333 C 359.000 132.150,358.390 133.087,356.402 132.324 C 355.405 131.941,355.000 129.970,355.000 125.497 C 355.000 118.555,356.032 120.000,343.570 109.500 C 337.839 104.672,327.075 98.008,325.000 98.002 C 324.175 98.000,320.800 96.722,317.500 95.161 C 314.200 93.601,309.134 91.539,306.242 90.579 C 303.350 89.619,301.229 88.439,301.527 87.956 C 302.727 86.015,309.338 85.741,314.642 87.413 C 320.172 89.156,320.801 89.799,318.870 91.730 C 318.029 92.571,318.735 93.040,321.620 93.561 C 323.754 93.946,326.073 94.716,326.774 95.273 C 328.783 96.869,329.299 95.435,328.062 91.688 C 326.018 85.495,324.022 84.531,312.648 84.243 C 304.995 84.049,301.824 84.364,299.750 85.525 M473.900 85.991 C 468.752 88.712,466.826 92.116,467.222 97.796 L 467.550 102.500 468.837 99.520 C 470.434 95.827,471.638 95.035,475.691 95.015 C 479.331 94.998,480.706 93.556,479.019 91.523 C 477.277 89.424,481.879 86.789,486.596 87.185 C 490.992 87.554,492.191 89.597,488.775 90.895 C 487.462 91.395,485.063 92.891,483.444 94.221 C 481.825 95.551,476.814 98.470,472.310 100.708 C 464.855 104.411,455.948 111.085,448.909 118.242 C 446.519 120.673,446.163 121.921,445.779 129.242 C 445.541 133.784,445.734 138.287,446.208 139.250 C 446.870 140.594,446.645 141.000,445.235 141.000 C 441.030 141.000,439.436 146.542,443.000 148.768 C 444.100 149.455,445.000 150.688,445.000 151.508 C 445.000 152.615,446.354 153.052,450.250 153.203 C 453.137 153.314,456.850 153.464,458.500 153.536 C 460.150 153.608,463.075 154.160,465.000 154.764 C 470.029 156.339,475.504 157.048,483.500 157.159 C 489.221 157.238,491.372 156.788,495.274 154.694 C 497.900 153.286,501.050 151.990,502.274 151.816 C 503.986 151.573,504.520 150.807,504.586 148.500 C 504.634 146.850,505.020 144.710,505.445 143.745 C 506.077 142.310,505.193 141.520,500.609 139.421 C 497.524 138.009,495.000 136.448,495.000 135.952 C 495.000 134.365,489.222 132.000,485.346 132.000 C 480.006 132.000,460.202 133.947,455.756 134.909 C 451.157 135.904,450.446 135.154,449.530 128.337 C 448.661 121.869,449.421 120.445,456.699 114.911 C 459.890 112.485,463.107 109.925,463.850 109.222 C 466.091 107.099,472.026 105.000,475.786 105.000 C 477.733 105.000,481.743 104.213,484.695 103.250 C 489.607 101.649,490.274 101.058,492.532 96.312 C 493.889 93.458,495.000 90.212,495.000 89.097 C 495.000 84.857,487.423 83.543,480.250 86.540 C 475.283 88.616,473.850 88.272,478.000 86.000 C 480.584 84.585,480.976 84.084,479.500 84.086 C 478.400 84.087,475.880 84.945,473.900 85.991 M324.000 90.000 C 324.000 90.550,323.550 91.000,323.000 91.000 C 322.450 91.000,322.000 90.550,322.000 90.000 C 322.000 89.450,322.450 89.000,323.000 89.000 C 323.550 89.000,324.000 89.450,324.000 90.000 M475.774 90.179 C 475.226 91.823,472.240 93.573,471.405 92.739 C 470.454 91.787,472.915 89.000,474.706 89.000 C 475.509 89.000,475.990 89.530,475.774 90.179 M398.750 102.662 C 399.438 102.940,400.563 102.940,401.250 102.662 C 401.938 102.385,401.375 102.158,400.000 102.158 C 398.625 102.158,398.063 102.385,398.750 102.662 M373.360 111.697 C 370.974 112.883,370.081 114.114,369.642 116.816 C 369.118 120.046,370.196 123.000,371.899 123.000 C 372.259 123.000,372.381 121.200,372.171 119.000 C 371.955 116.735,372.226 115.000,372.794 115.000 C 373.347 115.000,373.960 117.025,374.157 119.500 C 374.353 121.975,374.174 124.000,373.757 124.000 C 373.341 124.000,373.000 124.483,373.000 125.073 C 373.000 125.662,374.194 125.206,375.653 124.059 C 378.734 121.635,379.630 121.955,378.046 124.914 C 377.432 126.061,376.045 127.000,374.965 127.000 C 372.620 127.000,372.349 128.813,374.566 129.664 C 375.521 130.030,377.374 129.108,379.316 127.300 C 387.102 120.051,387.246 120.000,400.045 120.000 L 411.820 120.000 416.968 124.069 C 419.799 126.307,422.360 128.774,422.658 129.551 C 423.064 130.608,423.678 130.708,425.100 129.947 C 427.486 128.670,427.565 127.000,425.241 127.000 C 423.420 127.000,420.422 123.245,421.435 122.232 C 421.750 121.917,423.129 122.712,424.500 124.000 C 425.871 125.288,427.283 126.050,427.639 125.694 C 427.995 125.338,427.657 124.805,426.887 124.510 C 425.234 123.876,425.556 115.000,427.232 115.000 C 427.855 115.000,428.054 116.558,427.736 118.933 C 427.371 121.655,427.612 123.021,428.521 123.370 C 430.332 124.064,430.941 121.978,430.307 117.254 C 429.860 113.916,429.205 112.991,426.317 111.614 C 424.417 110.708,422.444 110.226,421.931 110.542 C 421.419 110.859,421.000 113.147,421.000 115.626 C 421.000 119.843,420.854 120.089,418.750 119.433 C 417.512 119.047,415.612 118.116,414.527 117.365 C 413.117 116.389,408.980 116.000,400.000 116.000 C 391.020 116.000,386.883 116.389,385.473 117.365 C 384.388 118.116,382.513 119.038,381.307 119.415 C 379.287 120.045,379.089 119.725,378.807 115.378 C 378.638 112.781,378.050 110.539,377.500 110.396 C 376.950 110.253,375.087 110.838,373.360 111.697 M368.000 115.000 C 368.000 115.733,368.300 116.033,368.667 115.667 C 369.033 115.300,369.033 114.700,368.667 114.333 C 368.300 113.967,368.000 114.267,368.000 115.000 M431.000 115.000 C 431.000 115.733,431.300 116.033,431.667 115.667 C 432.033 115.300,432.033 114.700,431.667 114.333 C 431.300 113.967,431.000 114.267,431.000 115.000 M367.054 120.000 C 367.029 122.719,368.545 125.789,369.461 124.872 C 369.774 124.559,369.366 122.772,368.554 120.901 C 367.213 117.810,367.076 117.728,367.054 120.000 M382.500 127.732 C 380.599 128.207,379.049 129.730,379.015 131.156 C 379.007 131.517,380.631 131.312,382.624 130.701 C 385.882 129.701,386.429 129.811,388.034 131.794 C 389.664 133.807,390.710 134.000,400.000 134.000 C 409.290 134.000,410.336 133.807,411.966 131.794 C 413.571 129.811,414.118 129.701,417.376 130.701 C 419.369 131.312,421.000 131.460,421.000 131.029 C 421.000 129.538,418.164 127.901,414.569 127.318 C 411.510 126.821,411.055 126.981,411.587 128.366 C 412.146 129.823,410.892 130.000,400.000 130.000 C 389.554 130.000,387.869 129.783,388.362 128.500 C 388.956 126.952,386.769 126.665,382.500 127.732 M395.750 127.732 C 398.087 127.943,401.913 127.943,404.250 127.732 C 406.587 127.522,404.675 127.349,400.000 127.349 C 395.325 127.349,393.413 127.522,395.750 127.732 M471.500 135.434 C 469.850 136.180,467.243 138.412,465.707 140.395 C 462.607 144.398,462.323 144.492,458.315 142.840 C 456.767 142.201,454.943 141.770,454.261 141.881 C 452.299 142.200,449.000 140.070,449.000 138.484 C 449.000 137.339,449.967 137.171,453.656 137.676 C 457.058 138.143,458.120 138.003,457.597 137.157 C 457.164 136.456,457.545 136.000,458.563 136.000 C 459.957 136.000,460.028 136.261,458.980 137.524 C 456.569 140.429,459.008 140.299,464.740 137.219 C 467.908 135.516,471.400 134.113,472.500 134.101 C 473.990 134.084,473.735 134.424,471.500 135.434 M333.623 137.052 C 336.305 138.180,339.850 139.830,341.500 140.718 L 344.500 142.333 342.595 140.167 C 340.702 138.013,340.706 138.000,343.223 138.000 C 344.616 138.000,347.404 137.311,349.419 136.469 L 353.083 134.938 351.535 137.932 C 350.420 140.089,348.832 141.237,345.861 142.037 C 343.592 142.648,340.857 143.677,339.784 144.324 C 338.082 145.350,337.366 144.965,334.167 141.301 C 332.150 138.991,329.375 136.657,328.000 136.114 C 326.491 135.518,326.144 135.102,327.123 135.063 C 328.015 135.029,330.940 135.923,333.623 137.052 M494.263 139.000 C 497.250 141.630,499.765 143.000,501.603 143.000 C 503.795 143.000,504.138 143.262,503.187 144.213 C 501.776 145.624,468.973 146.771,470.329 145.362 C 470.785 144.888,477.310 144.275,484.829 144.000 L 498.500 143.500 494.827 141.216 C 490.946 138.802,489.295 138.599,479.192 139.289 C 473.725 139.662,472.438 140.153,469.529 142.972 C 464.827 147.529,463.107 146.369,467.321 141.481 C 470.201 138.140,471.697 137.317,476.627 136.359 C 487.319 134.282,489.227 134.568,494.263 139.000 M328.113 138.076 C 329.000 138.542,331.222 140.628,333.050 142.710 C 336.013 146.084,336.168 146.537,334.476 146.862 C 333.431 147.064,332.417 146.750,332.221 146.164 C 332.026 145.579,331.014 144.016,329.971 142.691 C 328.332 140.606,326.922 140.188,319.520 139.587 C 311.777 138.959,310.585 139.105,306.982 141.130 C 304.792 142.361,303.000 143.735,303.000 144.184 C 303.000 144.633,308.738 145.007,315.750 145.015 C 328.095 145.030,333.657 146.043,329.709 147.558 C 327.049 148.579,298.053 146.453,296.742 145.142 C 295.886 144.286,296.166 144.000,297.860 144.000 C 299.103 144.000,302.455 142.185,305.310 139.966 L 310.500 135.933 318.500 136.580 C 322.900 136.937,327.226 137.610,328.113 138.076 M385.690 143.475 C 386.411 147.919,384.600 147.733,383.699 143.271 C 383.392 141.747,382.820 139.600,382.428 138.500 C 381.775 136.666,381.855 136.630,383.392 138.069 C 384.313 138.932,385.347 141.365,385.690 143.475 M392.143 137.890 C 391.291 138.430,391.037 139.542,391.461 140.878 C 392.010 142.605,392.377 142.765,393.415 141.728 C 395.085 140.058,405.934 140.275,407.000 142.000 C 407.556 142.899,407.988 142.612,408.498 141.007 C 409.495 137.865,407.711 137.031,400.000 137.031 C 396.425 137.031,392.889 137.418,392.143 137.890 M416.690 141.724 C 415.051 147.275,413.565 148.484,414.310 143.661 C 414.842 140.220,416.782 136.448,417.599 137.266 C 417.772 137.438,417.363 139.444,416.690 141.724 M425.167 142.924 C 425.882 141.908,426.001 142.467,425.584 144.875 C 425.263 146.731,425.000 148.869,425.000 149.625 C 425.000 150.381,424.508 151.000,423.908 151.000 C 423.307 151.000,421.671 151.900,420.273 153.000 C 415.387 156.843,408.203 154.368,412.313 150.258 C 413.621 148.951,414.172 148.898,415.450 149.958 C 416.302 150.666,417.000 151.891,417.000 152.681 C 417.000 155.796,418.898 152.703,419.925 147.914 C 420.523 145.127,421.569 141.868,422.249 140.673 C 423.458 138.550,423.494 138.567,423.826 141.424 C 424.091 143.700,424.389 144.033,425.167 142.924 M486.762 140.687 C 485.806 140.937,484.006 140.946,482.762 140.707 C 481.518 140.468,482.300 140.263,484.500 140.252 C 486.700 140.241,487.718 140.437,486.762 140.687 M323.500 142.041 C 324.789 142.621,323.190 142.726,319.000 142.338 C 315.425 142.006,312.313 141.570,312.083 141.367 C 311.188 140.578,321.616 141.193,323.500 142.041 M479.729 141.604 C 479.397 141.936,478.534 141.972,477.813 141.683 C 477.015 141.364,477.252 141.127,478.417 141.079 C 479.471 141.036,480.061 141.272,479.729 141.604 M355.000 145.000 C 354.411 146.100,353.705 147.000,353.430 147.000 C 353.155 147.000,353.411 146.100,354.000 145.000 C 354.589 143.900,355.295 143.000,355.570 143.000 C 355.845 143.000,355.589 143.900,355.000 145.000 M452.141 144.000 C 452.678 144.000,452.840 144.450,452.500 145.000 C 452.160 145.550,450.784 146.000,449.441 146.000 C 448.098 146.000,447.000 146.375,447.000 146.833 C 447.000 147.957,443.628 147.649,443.000 146.468 C 442.725 145.951,443.400 145.365,444.500 145.167 C 445.600 144.968,446.937 144.390,447.472 143.881 C 448.006 143.372,449.056 143.191,449.804 143.478 C 450.552 143.765,451.603 144.000,452.141 144.000 M394.807 145.000 C 394.445 145.825,393.863 148.637,393.513 151.250 L 392.877 156.000 399.858 156.000 L 406.839 156.000 406.660 151.040 C 406.561 148.312,405.922 145.522,405.240 144.840 C 404.253 143.853,404.000 144.764,404.000 149.300 C 404.000 153.700,403.658 155.000,402.500 155.000 C 401.675 155.000,401.000 154.460,401.000 153.800 C 401.000 152.867,400.733 152.867,399.800 153.800 C 397.248 156.352,396.103 155.054,395.782 149.250 C 395.607 146.088,395.168 144.175,394.807 145.000 M399.000 145.000 C 399.000 145.550,399.450 146.000,400.000 146.000 C 400.550 146.000,401.000 145.550,401.000 145.000 C 401.000 144.450,400.550 144.000,400.000 144.000 C 399.450 144.000,399.000 144.450,399.000 145.000 M427.662 148.250 C 427.385 148.938,427.158 148.375,427.158 147.000 C 427.158 145.625,427.385 145.063,427.662 145.750 C 427.940 146.438,427.940 147.563,427.662 148.250 M458.000 145.787 C 458.000 146.220,457.100 146.642,456.000 146.725 C 454.900 146.808,454.000 146.454,454.000 145.938 C 454.000 145.422,454.900 145.000,456.000 145.000 C 457.100 145.000,458.000 145.354,458.000 145.787 M343.500 147.000 C 343.840 147.550,345.302 148.000,346.750 148.000 C 349.279 148.000,349.306 148.057,347.441 149.468 C 346.374 150.276,344.488 150.951,343.250 150.968 C 341.508 150.993,341.000 150.435,341.000 148.500 C 341.000 145.975,342.361 145.158,343.500 147.000 M352.000 146.500 C 352.000 146.775,351.775 147.000,351.500 147.000 C 351.225 147.000,351.000 146.775,351.000 146.500 C 351.000 146.225,351.225 146.000,351.500 146.000 C 351.775 146.000,352.000 146.225,352.000 146.500 M423.079 147.583 C 423.127 148.748,423.364 148.985,423.683 148.188 C 423.972 147.466,423.936 146.603,423.604 146.271 C 423.272 145.939,423.036 146.529,423.079 147.583 M462.667 148.667 C 462.300 149.033,462.000 148.733,462.000 148.000 C 462.000 147.267,462.300 146.967,462.667 147.333 C 463.033 147.700,463.033 148.300,462.667 148.667 M459.715 149.627 C 459.918 150.247,459.385 151.022,458.530 151.350 C 456.769 152.026,452.000 150.148,452.000 148.779 C 452.000 147.482,459.274 148.282,459.715 149.627 M493.000 149.294 L 495.500 149.514 493.054 150.897 C 488.256 153.610,467.000 152.161,467.000 149.120 C 467.000 148.565,486.167 148.693,493.000 149.294 M325.831 151.874 C 328.552 153.599,314.280 154.866,310.332 153.250 C 309.169 152.774,311.239 152.292,316.000 151.930 C 320.125 151.617,323.725 151.286,324.000 151.195 C 324.275 151.105,325.099 151.410,325.831 151.874 M331.000 151.441 C 331.000 151.684,330.550 152.160,330.000 152.500 C 329.450 152.840,329.000 152.641,329.000 152.059 C 329.000 151.477,329.450 151.000,330.000 151.000 C 330.550 151.000,331.000 151.198,331.000 151.441 M437.000 153.286 C 437.000 156.047,438.332 156.890,439.559 154.904 C 439.932 154.301,439.508 153.080,438.618 152.190 C 437.127 150.699,437.000 150.785,437.000 153.286 M385.333 153.667 C 385.700 154.033,386.300 154.033,386.667 153.667 C 387.033 153.300,386.733 153.000,386.000 153.000 C 385.267 153.000,384.967 153.300,385.333 153.667 M413.333 153.667 C 413.700 154.033,414.300 154.033,414.667 153.667 C 415.033 153.300,414.733 153.000,414.000 153.000 C 413.267 153.000,412.967 153.300,413.333 153.667 M364.750 157.758 C 363.238 158.696,361.985 159.922,361.967 160.482 C 361.948 161.042,361.096 162.503,360.073 163.729 C 358.332 165.815,357.562 165.936,348.090 165.601 C 337.801 165.238,335.801 165.851,338.128 168.654 C 339.183 169.926,341.150 170.145,348.602 169.819 C 358.309 169.394,359.493 170.136,354.416 173.463 C 352.767 174.543,352.000 175.981,352.000 177.989 C 352.000 181.836,354.896 187.832,357.090 188.529 C 358.041 188.830,359.423 189.807,360.160 190.698 C 361.377 192.170,361.016 192.255,356.237 191.623 C 351.306 190.972,350.534 191.184,344.036 194.979 C 340.221 197.207,336.837 199.455,336.516 199.975 C 336.195 200.494,337.575 202.737,339.582 204.960 C 341.590 207.182,342.768 209.000,342.199 209.000 C 341.631 209.000,339.514 207.088,337.495 204.750 L 333.823 200.500 334.386 203.746 C 335.082 207.763,337.766 212.000,339.615 212.000 C 340.377 212.000,341.000 212.689,341.000 213.531 C 341.000 214.374,341.640 215.308,342.423 215.609 C 343.205 215.909,344.091 216.795,344.391 217.577 C 345.331 220.026,342.463 219.133,339.417 216.028 C 337.813 214.393,336.195 213.043,335.823 213.028 C 335.451 213.013,334.452 214.393,333.602 216.095 C 332.423 218.459,332.273 220.171,332.968 223.345 C 333.469 225.630,334.642 231.550,335.575 236.500 C 336.508 241.450,337.924 248.875,338.722 253.000 C 341.790 268.858,341.871 270.284,339.794 271.966 C 338.214 273.245,337.943 274.592,338.196 279.924 C 338.363 283.453,338.978 286.499,339.562 286.691 C 340.868 287.122,345.360 277.479,344.661 275.748 C 344.385 275.061,344.122 275.512,344.079 276.750 C 344.036 277.988,343.550 279.000,343.000 279.000 C 341.561 279.000,341.763 273.246,343.219 272.760 C 344.152 272.449,343.979 269.662,342.485 260.927 C 341.181 253.302,340.526 244.758,340.515 235.250 C 340.502 222.541,340.317 221.000,338.809 221.000 C 337.150 221.000,335.395 219.272,336.218 218.449 C 336.448 218.218,338.320 218.888,340.377 219.937 L 344.118 221.844 344.485 240.172 C 344.686 250.253,345.560 263.416,346.426 269.424 C 348.367 282.896,348.373 282.534,346.250 280.890 C 344.614 279.623,344.604 279.664,346.098 281.517 C 346.977 282.608,347.975 284.288,348.317 285.250 C 348.673 286.255,349.954 287.000,351.326 287.000 C 353.550 287.000,353.788 287.537,354.761 294.750 C 355.335 299.012,356.291 304.367,356.885 306.649 C 357.729 309.892,357.643 311.859,356.493 315.649 C 355.684 318.317,355.017 322.439,355.011 324.809 C 355.004 327.425,354.607 328.875,354.000 328.500 C 353.450 328.160,353.000 326.842,353.000 325.570 C 353.000 323.404,352.493 323.214,344.941 322.555 C 339.236 322.058,336.462 322.202,335.441 323.049 C 333.302 324.824,333.656 325.820,337.188 327.968 L 340.376 329.907 337.525 330.990 C 335.377 331.807,334.958 332.358,335.824 333.224 C 336.690 334.090,337.532 333.851,339.237 332.253 C 341.419 330.209,341.743 330.184,348.266 331.555 C 351.988 332.336,356.797 333.876,358.952 334.976 C 362.137 336.600,362.930 337.586,363.186 340.238 C 363.463 343.121,363.813 343.467,366.199 343.220 C 368.075 343.026,369.229 343.559,369.984 344.970 C 371.754 348.278,373.000 347.301,373.000 342.607 C 373.000 339.625,373.482 338.029,374.500 337.638 C 375.325 337.322,376.000 335.950,376.000 334.590 C 376.000 330.783,377.734 330.592,378.172 334.351 C 378.394 336.252,378.011 338.200,377.281 338.882 C 376.576 339.540,376.000 341.813,376.000 343.932 C 376.000 347.886,377.117 349.000,381.082 349.000 C 382.819 349.000,383.000 348.215,383.000 340.700 C 383.000 335.851,382.529 331.929,381.867 331.267 C 381.238 330.638,381.056 329.327,381.459 328.317 C 381.857 327.318,382.415 320.425,382.698 313.000 C 382.981 305.575,383.597 297.700,384.067 295.500 C 384.565 293.168,384.736 308.621,384.477 332.551 C 384.069 370.319,384.172 373.798,385.767 376.051 C 387.090 377.921,387.618 381.313,388.000 390.395 L 388.500 402.289 392.202 405.281 C 397.302 409.402,402.698 409.402,407.798 405.281 L 411.500 402.289 412.000 390.395 C 412.380 381.355,412.913 377.917,414.219 376.071 C 415.797 373.843,415.889 370.628,415.339 337.071 C 415.009 316.957,414.598 300.338,414.426 300.140 C 414.255 299.943,413.679 301.293,413.147 303.140 C 412.615 304.988,412.140 305.812,412.090 304.971 C 411.976 303.038,405.481 296.288,402.968 295.490 C 400.914 294.838,397.000 296.491,397.000 298.010 C 397.000 298.586,398.002 298.570,399.585 297.968 C 401.651 297.182,402.755 297.401,405.081 299.058 C 409.146 301.953,413.000 308.919,413.000 313.373 L 413.000 317.070 410.162 313.785 C 408.602 311.978,406.272 308.363,404.985 305.750 C 403.698 303.137,402.275 301.000,401.823 301.000 C 400.370 301.000,400.942 302.942,403.000 305.000 C 404.100 306.100,405.000 307.718,405.000 308.597 C 405.000 309.475,406.800 312.238,409.000 314.737 C 412.302 318.488,412.995 319.999,412.971 323.391 L 412.941 327.500 409.899 324.155 C 408.226 322.315,406.583 321.084,406.247 321.420 C 405.911 321.755,407.013 323.486,408.694 325.265 C 410.771 327.462,411.921 329.864,412.281 332.750 C 412.572 335.087,412.617 337.000,412.383 337.000 C 412.148 337.000,410.006 335.203,407.623 333.007 L 403.291 329.013 404.752 322.500 C 406.378 315.252,406.030 312.579,402.949 308.662 C 399.949 304.848,396.763 305.237,392.000 310.000 C 387.413 314.587,387.000 314.750,387.000 311.965 C 387.000 309.768,389.157 305.869,392.399 302.208 L 394.428 299.916 396.192 302.208 C 397.618 304.062,397.960 304.177,397.978 302.809 C 397.990 301.879,397.550 300.840,397.000 300.500 C 395.598 299.633,395.753 292.930,397.250 289.707 C 398.048 287.990,399.293 287.013,400.691 287.008 C 403.465 286.998,404.531 288.656,402.964 290.544 C 402.251 291.403,402.172 292.000,402.771 292.000 C 403.329 292.000,404.067 291.268,404.410 290.373 C 404.940 288.992,405.410 289.150,407.509 291.415 C 408.870 292.884,410.251 295.303,410.579 296.792 C 410.907 298.282,411.273 299.913,411.394 300.418 C 411.514 300.924,412.422 299.630,413.412 297.544 C 414.503 295.244,415.235 291.340,415.271 287.626 C 415.304 284.257,415.514 282.175,415.738 283.000 C 415.963 283.825,416.618 285.473,417.195 286.663 C 417.931 288.180,417.917 290.682,417.148 295.050 C 416.545 298.473,416.247 301.590,416.485 301.976 C 416.724 302.362,417.031 308.407,417.168 315.409 C 417.304 322.411,417.780 328.364,418.224 328.639 C 418.669 328.913,418.708 329.663,418.312 330.304 C 417.916 330.945,417.476 335.653,417.336 340.766 C 417.195 345.879,416.840 350.450,416.548 350.923 C 416.255 351.396,417.659 351.975,419.667 352.209 C 422.362 352.524,424.716 351.878,428.659 349.743 C 433.182 347.293,434.000 346.415,434.000 344.008 C 434.000 342.445,434.382 341.017,434.848 340.833 C 435.314 340.650,437.579 338.929,439.880 337.008 C 443.852 333.694,444.392 333.534,450.532 333.850 C 455.733 334.117,457.000 333.891,457.000 332.698 C 457.000 330.934,454.994 330.042,450.668 329.884 C 448.697 329.812,448.216 329.585,449.395 329.283 C 450.922 328.892,451.019 328.623,449.895 327.899 C 447.493 326.351,450.885 325.032,457.309 325.015 C 464.338 324.997,464.035 326.428,456.772 327.553 C 452.450 328.222,452.041 328.440,454.500 328.762 C 456.150 328.978,458.733 330.325,460.240 331.754 C 461.746 333.184,463.321 334.013,463.738 333.595 C 464.155 333.178,463.665 332.228,462.648 331.485 C 460.705 330.064,461.181 328.000,463.452 328.000 C 465.328 328.000,466.259 325.017,464.895 323.373 C 464.268 322.618,462.740 322.000,461.500 322.000 C 460.260 322.000,458.685 321.325,458.000 320.500 C 456.604 318.818,453.000 318.457,453.000 320.000 C 453.000 320.550,453.477 321.000,454.059 321.000 C 454.641 321.000,454.840 321.450,454.500 322.000 C 454.160 322.550,453.432 323.000,452.882 323.000 C 452.332 323.000,452.160 322.550,452.500 322.000 C 453.667 320.112,451.291 321.001,448.665 323.435 C 447.220 324.774,445.797 325.480,445.502 325.004 C 445.208 324.528,445.412 323.863,445.955 323.528 C 447.333 322.676,450.793 314.618,451.579 310.430 C 451.941 308.501,453.100 306.482,454.175 305.906 C 455.598 305.145,456.034 304.017,455.808 301.684 C 455.521 298.714,455.217 298.479,451.273 298.194 C 447.322 297.907,446.971 297.635,445.887 294.019 C 444.441 289.191,445.224 287.000,448.395 287.000 C 450.130 287.000,451.296 286.113,452.359 283.983 C 453.186 282.324,453.444 281.225,452.932 281.542 C 451.685 282.313,451.740 281.164,453.564 268.424 C 454.425 262.416,455.312 249.400,455.536 239.500 C 455.868 224.820,456.210 221.443,457.392 221.192 C 460.694 220.490,460.680 243.969,457.369 261.335 C 456.513 265.826,456.031 271.473,456.298 273.885 C 456.600 276.607,456.452 277.745,455.908 276.885 C 454.260 274.283,454.997 277.353,457.178 282.180 C 458.376 284.831,459.696 287.000,460.111 287.000 C 462.665 287.000,462.059 272.344,459.463 271.348 C 457.814 270.715,457.976 269.607,463.957 240.500 C 465.087 235.000,466.009 229.292,466.006 227.815 C 466.003 226.338,466.467 223.903,467.037 222.403 C 467.832 220.311,467.705 218.897,466.490 216.338 C 465.619 214.502,464.590 213.013,464.203 213.028 C 463.816 213.043,462.187 214.393,460.583 216.028 C 458.105 218.553,455.000 219.979,455.000 218.592 C 455.000 218.367,457.054 216.070,459.565 213.487 C 463.943 208.981,466.000 205.462,466.000 202.474 C 466.000 201.706,464.168 202.973,461.929 205.289 C 459.690 207.605,458.303 208.600,458.847 207.500 C 459.391 206.400,460.796 204.482,461.969 203.237 C 463.142 201.992,463.832 200.537,463.501 200.002 C 463.171 199.468,459.779 197.207,455.964 194.979 C 449.466 191.184,448.694 190.972,443.763 191.623 C 438.984 192.255,438.623 192.170,439.840 190.698 C 440.577 189.807,441.959 188.830,442.910 188.529 C 445.104 187.832,448.000 181.836,448.000 177.989 C 448.000 175.981,447.233 174.543,445.584 173.463 C 440.596 170.195,441.667 169.311,450.032 169.796 C 458.968 170.313,463.000 169.604,463.000 167.516 C 463.000 164.852,459.364 163.854,453.238 164.837 C 443.835 166.345,441.982 166.193,439.941 163.746 C 438.910 162.511,438.052 161.122,438.033 160.660 C 437.981 159.346,433.671 156.070,431.946 156.033 C 431.092 156.015,428.866 157.575,427.000 159.500 C 425.134 161.425,422.908 163.014,422.054 163.032 C 421.199 163.049,419.646 163.710,418.603 164.500 C 417.559 165.290,416.373 165.730,415.966 165.479 C 415.559 165.228,414.613 165.776,413.863 166.698 C 412.651 168.188,412.722 168.279,414.500 167.517 C 415.600 167.046,418.411 166.466,420.747 166.229 C 423.083 165.993,424.744 165.394,424.438 164.900 C 423.764 163.810,427.022 163.727,428.697 164.792 C 431.820 166.777,424.905 169.675,420.783 168.108 C 419.055 167.450,416.933 167.821,412.806 169.500 C 403.374 173.337,398.487 173.544,389.929 170.469 C 385.843 169.000,381.825 167.852,381.000 167.917 C 371.577 168.661,367.371 166.619,373.248 164.154 L 376.458 162.808 372.744 159.404 C 368.476 155.493,368.422 155.482,364.750 157.758 M369.503 160.379 C 371.301 161.693,371.309 161.880,369.671 164.379 C 367.434 167.793,364.000 167.916,364.000 164.582 C 364.000 159.206,365.908 157.749,369.503 160.379 M435.520 160.250 C 435.771 160.938,436.094 162.625,436.238 164.000 C 436.454 166.063,436.068 166.500,434.030 166.500 C 431.036 166.500,428.462 162.353,430.175 160.289 C 431.542 158.643,434.923 158.618,435.520 160.250 M376.559 164.534 C 374.742 165.906,374.858 166.000,378.375 166.000 C 380.441 166.000,383.040 166.486,384.151 167.081 C 385.262 167.676,386.406 167.927,386.694 167.640 C 386.981 167.352,385.480 166.327,383.358 165.361 C 381.236 164.396,379.275 163.484,379.000 163.337 C 378.725 163.189,377.626 163.727,376.559 164.534 M409.806 164.919 C 410.210 166.130,410.572 166.089,399.164 166.131 C 390.842 166.162,389.353 165.857,390.304 164.317 C 391.069 163.077,409.381 163.642,409.806 164.919 M458.729 165.604 C 458.397 165.936,457.534 165.972,456.813 165.683 C 456.015 165.364,456.252 165.127,457.417 165.079 C 458.471 165.036,459.061 165.272,458.729 165.604 M347.667 168.667 C 347.300 169.033,346.700 169.033,346.333 168.667 C 345.967 168.300,346.267 168.000,347.000 168.000 C 347.733 168.000,348.033 168.300,347.667 168.667 M455.250 168.662 C 454.563 168.940,453.438 168.940,452.750 168.662 C 452.063 168.385,452.625 168.158,454.000 168.158 C 455.375 168.158,455.938 168.385,455.250 168.662 M371.925 170.250 C 371.540 173.218,372.146 174.453,372.978 172.395 C 374.162 169.464,380.039 168.638,385.364 170.654 C 387.639 171.514,391.385 172.715,393.689 173.323 C 396.250 173.997,398.060 175.121,398.346 176.213 C 398.602 177.196,399.347 178.000,400.000 178.000 C 400.653 178.000,401.398 177.196,401.654 176.213 C 401.940 175.121,403.750 173.997,406.311 173.323 C 408.615 172.715,412.455 171.482,414.844 170.582 C 420.289 168.530,425.790 169.341,427.015 172.376 L 427.873 174.500 427.937 172.309 C 428.049 168.434,430.000 168.652,430.000 172.540 C 430.000 175.596,427.499 183.000,426.467 183.000 C 426.299 183.000,423.391 183.710,420.004 184.577 C 414.267 186.047,413.595 186.035,410.173 184.398 C 405.051 181.948,395.582 181.883,390.322 184.262 C 386.379 186.046,385.798 186.064,379.991 184.576 C 376.607 183.709,373.661 183.000,373.445 183.000 C 373.228 183.000,372.365 181.672,371.526 180.050 C 369.796 176.705,369.460 169.000,371.044 169.000 C 371.618 169.000,372.015 169.563,371.925 170.250 M363.000 171.559 C 363.000 172.416,362.550 172.840,362.000 172.500 C 361.450 172.160,361.000 171.459,361.000 170.941 C 361.000 170.423,361.450 170.000,362.000 170.000 C 362.550 170.000,363.000 170.702,363.000 171.559 M378.186 171.214 C 377.534 171.866,376.955 173.548,376.900 174.950 L 376.801 177.500 376.000 175.000 C 375.210 172.534,375.197 172.540,375.029 175.500 C 374.882 178.109,374.747 178.239,374.000 176.500 C 373.245 174.742,373.132 174.841,373.070 177.316 C 373.008 179.812,373.313 180.097,375.750 179.816 C 377.305 179.637,378.558 178.848,378.635 178.000 C 378.709 177.175,378.821 175.412,378.885 174.083 C 379.052 170.587,380.321 172.398,380.219 175.986 C 380.145 178.594,380.487 179.000,382.758 179.000 C 385.280 179.000,385.307 178.943,383.441 177.532 C 381.007 175.691,381.385 175.683,387.225 177.456 C 390.080 178.322,392.181 178.515,392.534 177.945 C 392.855 177.425,392.442 177.000,391.616 177.000 C 390.043 177.000,383.617 173.595,380.936 171.342 C 379.730 170.328,379.101 170.299,378.186 171.214 M439.000 170.941 C 439.000 171.459,438.550 172.160,438.000 172.500 C 437.450 172.840,437.000 172.416,437.000 171.559 C 437.000 170.702,437.450 170.000,438.000 170.000 C 438.550 170.000,439.000 170.423,439.000 170.941 M369.403 184.072 C 370.987 185.957,373.007 187.995,373.892 188.601 C 376.051 190.079,386.436 193.298,391.066 193.923 C 391.377 193.966,392.643 195.800,393.880 198.000 C 395.898 201.591,396.524 202.000,400.000 202.000 C 403.481 202.000,404.101 201.593,406.138 197.968 C 407.600 195.367,409.308 193.750,410.952 193.410 C 416.255 192.314,424.566 189.657,426.217 188.530 C 427.162 187.885,429.299 185.640,430.967 183.541 C 433.305 180.600,434.019 178.668,434.081 175.112 L 434.162 170.500 435.536 173.500 C 436.292 175.150,436.930 177.011,436.955 177.636 C 437.033 179.593,428.923 190.975,426.530 192.268 C 425.275 192.945,422.055 196.361,419.374 199.859 C 413.031 208.134,408.545 210.602,399.997 210.517 C 391.249 210.430,386.830 208.007,380.664 199.916 C 377.975 196.387,374.929 193.095,373.895 192.600 C 371.926 191.658,364.817 182.712,363.743 179.825 C 363.400 178.903,363.634 176.428,364.262 174.325 L 365.404 170.500 365.963 175.572 C 366.358 179.154,367.368 181.650,369.403 184.072 M362.000 174.976 C 362.000 175.474,361.511 176.184,360.913 176.554 C 360.315 176.923,360.108 178.187,360.453 179.363 C 360.797 180.538,361.276 182.367,361.516 183.427 C 361.757 184.486,362.469 185.836,363.099 186.427 C 363.904 187.181,363.888 186.808,363.047 185.174 C 361.927 183.001,361.985 182.922,363.924 183.959 C 365.066 184.570,366.000 185.759,366.000 186.600 C 366.000 187.442,368.475 190.605,371.499 193.630 C 376.324 198.454,379.000 201.903,379.000 203.296 C 379.000 203.530,377.875 203.508,376.500 203.245 C 375.025 202.963,374.000 203.231,374.000 203.898 C 374.000 205.658,380.171 208.992,383.435 208.996 C 385.049 208.998,389.437 210.587,393.185 212.527 L 400.000 216.054 406.815 212.527 C 410.563 210.587,414.881 209.000,416.411 209.000 C 419.718 209.000,425.000 206.100,425.000 204.284 C 425.000 202.719,424.459 202.684,421.849 204.081 C 417.886 206.202,418.995 204.124,425.700 196.865 C 439.602 181.814,441.453 178.873,438.750 176.133 C 437.748 175.117,437.877 174.587,439.397 173.465 C 442.049 171.507,443.000 172.474,443.000 177.129 C 443.000 180.874,439.534 187.505,435.344 191.775 C 434.657 192.476,433.791 195.723,433.421 198.992 C 432.887 203.718,432.263 205.253,430.375 206.490 C 427.550 208.341,426.965 214.666,429.528 215.649 C 431.819 216.528,433.418 219.982,432.130 221.270 C 431.389 222.011,430.775 221.540,430.073 219.691 C 428.882 216.561,425.605 215.517,420.906 216.771 C 418.355 217.452,417.552 218.179,417.707 219.666 C 417.907 221.581,417.282 221.651,399.985 221.627 C 382.536 221.604,382.128 221.556,384.732 219.848 C 386.203 218.883,387.878 218.443,388.454 218.871 C 390.135 220.120,403.427 220.225,408.159 219.026 C 421.838 215.560,424.163 214.586,425.659 211.692 C 427.643 207.856,426.872 207.397,423.376 210.332 C 420.705 212.575,416.886 214.087,406.318 217.088 C 398.389 219.339,381.147 215.496,377.055 210.566 C 376.340 209.705,375.177 209.000,374.471 209.000 C 372.305 209.000,374.034 212.950,376.875 214.494 L 379.500 215.920 376.184 215.960 C 371.702 216.014,369.000 217.622,369.000 220.235 C 369.000 221.919,369.267 222.133,370.200 221.200 C 370.860 220.540,372.548 220.014,373.950 220.030 C 379.283 220.094,373.166 222.054,365.783 222.647 C 361.777 222.969,358.050 223.579,357.500 224.003 C 356.950 224.427,354.534 225.098,352.131 225.495 C 348.730 226.056,347.859 225.924,348.200 224.899 C 348.442 224.175,350.401 223.411,352.554 223.201 C 354.707 222.991,357.233 222.410,358.168 221.910 C 359.103 221.409,361.053 221.000,362.501 221.000 C 364.234 221.000,366.308 219.756,368.567 217.360 C 372.810 212.861,373.156 208.804,369.500 206.408 C 367.711 205.236,367.000 203.876,367.000 201.628 C 367.000 197.939,365.396 191.886,364.202 191.070 C 363.743 190.757,361.935 188.394,360.184 185.820 C 357.165 181.382,355.827 174.506,357.631 172.702 C 358.429 171.904,362.000 173.763,362.000 174.976 M417.500 172.733 C 416.400 173.008,414.306 174.081,412.846 175.117 C 411.386 176.153,409.398 177.000,408.429 177.000 C 405.696 177.000,407.511 178.159,410.678 178.436 C 412.230 178.572,416.538 179.032,420.250 179.458 L 427.000 180.233 426.884 177.366 C 426.820 175.789,426.567 175.262,426.321 176.195 C 425.667 178.676,423.000 177.229,423.000 174.393 C 423.000 171.955,421.915 171.627,417.500 172.733 M400.667 174.667 C 400.300 175.033,399.700 175.033,399.333 174.667 C 398.967 174.300,399.267 174.000,400.000 174.000 C 400.733 174.000,401.033 174.300,400.667 174.667 M420.683 176.188 C 420.364 176.985,420.127 176.748,420.079 175.583 C 420.036 174.529,420.272 173.939,420.604 174.271 C 420.936 174.603,420.972 175.466,420.683 176.188 M346.500 180.196 C 341.266 183.916,334.154 191.214,332.965 194.083 C 332.148 196.058,332.123 197.376,332.879 198.676 C 333.897 200.427,333.940 200.428,333.970 198.691 C 333.986 197.696,334.402 197.130,334.893 197.434 C 335.385 197.738,336.096 196.754,336.474 195.248 C 337.220 192.274,343.548 184.000,345.075 184.000 C 346.274 184.000,344.285 187.393,340.777 191.330 C 337.610 194.885,337.956 196.304,341.254 193.286 C 342.489 192.155,344.540 190.914,345.810 190.528 C 347.749 189.940,348.019 189.364,347.489 186.949 C 347.020 184.814,347.392 183.496,348.928 181.847 C 352.744 177.751,351.311 176.776,346.500 180.196 M449.000 178.800 C 449.000 179.240,449.531 180.131,450.180 180.780 C 450.829 181.429,451.617 183.876,451.930 186.217 C 452.361 189.436,452.987 190.562,454.500 190.837 C 455.600 191.036,457.512 192.133,458.750 193.274 C 461.734 196.025,461.646 194.176,458.638 190.933 C 455.630 187.689,453.634 184.000,454.887 184.000 C 456.561 184.000,462.868 192.121,463.528 195.126 C 463.877 196.716,464.576 197.762,465.081 197.450 C 465.587 197.137,466.014 197.696,466.030 198.691 C 466.059 200.412,466.111 200.413,467.091 198.730 C 467.658 197.756,467.818 196.003,467.447 194.834 C 466.526 191.932,459.456 184.410,454.343 180.892 C 449.923 177.851,449.000 177.490,449.000 178.800 M398.250 180.689 C 399.212 180.941,400.788 180.941,401.750 180.689 C 402.712 180.438,401.925 180.232,400.000 180.232 C 398.075 180.232,397.288 180.438,398.250 180.689 M384.000 181.500 C 384.000 181.775,384.225 182.000,384.500 182.000 C 384.775 182.000,385.000 181.775,385.000 181.500 C 385.000 181.225,384.775 181.000,384.500 181.000 C 384.225 181.000,384.000 181.225,384.000 181.500 M414.000 182.500 C 414.000 182.775,414.225 183.000,414.500 183.000 C 414.775 183.000,415.000 182.775,415.000 182.500 C 415.000 182.225,414.775 182.000,414.500 182.000 C 414.225 182.000,414.000 182.225,414.000 182.500 M408.000 188.460 L 410.500 189.849 407.811 190.877 C 406.332 191.442,404.628 192.826,404.026 193.952 C 402.457 196.884,398.812 196.492,395.157 193.000 C 393.431 191.350,391.452 189.984,390.759 189.965 C 390.067 189.945,390.625 189.286,392.000 188.500 C 395.192 186.675,404.745 186.651,408.000 188.460 M361.000 195.000 C 361.825 195.533,362.050 195.990,361.500 196.015 C 360.950 196.040,361.288 196.519,362.250 197.080 C 363.372 197.734,364.000 199.316,364.000 201.491 C 364.000 203.356,364.450 205.160,365.000 205.500 C 367.078 206.784,365.848 207.796,361.396 208.463 C 357.444 209.056,356.453 208.835,354.396 206.903 C 351.293 203.987,351.365 201.152,354.645 197.193 C 357.440 193.819,358.569 193.429,361.000 195.000 M444.000 194.847 C 444.000 195.313,444.900 196.732,446.000 198.000 C 448.682 201.092,448.520 204.163,445.528 206.974 C 443.322 209.046,442.596 209.194,438.778 208.347 C 435.787 207.683,434.623 206.961,434.910 205.949 C 435.136 205.152,435.518 203.074,435.760 201.331 C 436.286 197.544,439.321 194.000,442.039 194.000 C 443.118 194.000,444.000 194.381,444.000 194.847 M351.000 196.917 C 351.000 197.421,350.612 197.983,350.137 198.167 C 349.663 198.350,349.055 200.847,348.787 203.716 C 348.519 206.585,348.598 208.748,348.962 208.523 C 349.327 208.298,350.947 208.985,352.562 210.050 C 354.178 211.115,356.464 211.990,357.643 211.993 C 358.822 211.997,360.045 212.675,360.362 213.500 C 360.678 214.325,362.105 215.000,363.531 215.000 C 365.619 215.000,366.065 214.578,365.813 212.843 C 365.641 211.657,366.063 210.494,366.750 210.260 C 368.428 209.687,368.326 211.470,366.474 215.050 C 365.618 216.706,364.136 218.000,363.096 218.000 C 362.078 218.000,359.629 218.675,357.654 219.500 C 352.740 221.553,352.000 221.408,352.000 218.389 C 352.000 215.946,352.226 215.820,355.500 216.434 C 358.173 216.936,359.000 216.753,359.000 215.662 C 359.000 213.207,350.532 211.903,349.754 214.238 C 349.436 215.193,348.767 215.215,346.837 214.336 C 344.782 213.399,344.355 212.533,344.456 209.500 C 344.523 207.468,344.013 205.062,343.321 204.153 C 341.392 201.617,341.757 200.099,344.459 199.421 C 345.811 199.081,347.442 198.173,348.081 197.402 C 349.402 195.811,351.000 195.545,351.000 196.917 M453.231 197.934 C 456.444 199.546,457.659 202.501,455.953 204.556 C 455.230 205.428,454.970 207.429,455.309 209.515 C 455.814 212.630,455.556 213.178,452.949 214.527 C 451.338 215.359,449.679 215.919,449.260 215.770 C 448.842 215.622,448.358 216.738,448.184 218.250 C 447.812 221.482,447.245 221.537,440.026 219.045 C 434.216 217.040,432.278 215.000,436.181 215.000 C 438.911 215.000,445.503 211.706,448.750 208.720 C 450.418 207.187,451.000 205.532,451.000 202.326 C 451.000 199.947,450.550 198.000,450.000 198.000 C 449.450 198.000,449.000 197.512,449.000 196.917 C 449.000 196.321,449.337 195.998,449.750 196.199 C 450.163 196.400,451.729 197.181,453.231 197.934 M356.123 199.352 C 355.112 200.570,355.490 200.800,358.511 200.800 C 360.768 200.800,361.960 200.373,361.722 199.650 C 361.148 197.908,357.484 197.712,356.123 199.352 M438.667 198.667 C 437.159 200.174,438.205 201.000,441.622 201.000 C 444.729 201.000,445.068 200.786,444.000 199.500 C 442.712 197.949,439.834 197.499,438.667 198.667 M384.420 200.870 C 385.277 202.257,390.993 204.341,391.780 203.553 C 392.846 202.488,388.973 200.000,386.250 200.000 C 384.948 200.000,384.124 200.391,384.420 200.870 M408.500 202.000 C 406.337 204.390,407.690 204.574,412.532 202.551 C 416.744 200.791,416.937 200.000,413.155 200.000 C 411.580 200.000,409.502 200.893,408.500 202.000 M454.405 202.155 C 453.962 202.870,454.130 203.038,454.845 202.595 C 455.480 202.203,456.000 201.684,456.000 201.441 C 456.000 200.607,455.117 201.002,454.405 202.155 M355.496 203.007 C 354.879 204.004,355.926 204.627,359.184 205.202 C 360.798 205.488,361.000 205.243,361.000 203.000 C 361.000 201.694,356.303 201.700,355.496 203.007 M438.459 203.067 C 437.607 204.445,437.861 204.629,441.750 205.463 C 445.282 206.219,445.793 205.650,443.571 203.429 C 441.884 201.742,439.387 201.565,438.459 203.067 M391.446 206.536 C 392.749 207.521,393.725 207.675,394.396 207.004 C 394.948 206.452,397.470 206.000,400.000 206.000 C 402.530 206.000,405.052 206.452,405.604 207.004 C 406.275 207.675,407.251 207.521,408.554 206.536 C 410.307 205.210,409.459 205.064,400.000 205.064 C 390.541 205.064,389.693 205.210,391.446 206.536 M452.015 208.750 C 452.007 209.988,452.450 211.000,453.000 211.000 C 454.253 211.000,454.253 209.939,453.000 208.000 C 452.216 206.787,452.028 206.931,452.015 208.750 M442.149 214.604 C 441.406 215.444,441.016 216.349,441.281 216.614 C 442.098 217.431,446.851 215.885,448.081 214.402 C 449.034 213.254,448.725 213.007,446.372 213.038 C 444.793 213.059,442.892 213.764,442.149 214.604 M382.771 218.813 C 383.371 220.612,381.304 220.234,380.606 218.416 C 380.233 217.443,380.456 216.985,381.187 217.229 C 381.840 217.447,382.553 218.159,382.771 218.813 M463.823 218.656 C 463.645 219.566,462.674 220.432,461.664 220.580 C 459.914 220.836,459.910 220.757,461.569 218.924 C 463.703 216.566,464.244 216.502,463.823 218.656 M426.776 221.176 C 427.635 222.035,427.656 222.710,426.854 223.676 C 425.263 225.593,423.312 225.301,422.725 223.058 C 421.918 219.972,424.413 218.813,426.776 221.176 M442.500 222.000 C 442.840 222.550,442.893 223.000,442.618 223.000 C 442.343 223.000,441.840 222.550,441.500 222.000 C 441.160 221.450,441.107 221.000,441.382 221.000 C 441.657 221.000,442.160 221.450,442.500 222.000 M383.537 229.918 L 383.046 233.500 384.168 230.250 C 385.645 225.968,387.000 226.116,387.000 230.559 C 387.000 232.516,386.593 233.866,386.095 233.559 C 385.584 233.243,385.414 234.665,385.704 236.831 C 386.128 239.988,385.759 241.157,383.609 243.477 L 381.000 246.292 381.000 242.297 C 381.000 240.100,380.708 234.746,380.352 230.401 L 379.703 222.500 381.866 224.418 C 383.559 225.919,383.921 227.113,383.537 229.918 M396.122 228.362 C 397.564 231.036,399.140 233.511,399.625 233.862 C 400.109 234.213,401.803 236.412,403.389 238.750 C 406.647 243.552,410.000 244.496,410.000 240.611 C 410.000 238.950,409.467 238.265,408.250 238.361 C 407.083 238.454,406.181 237.418,405.543 235.250 C 404.924 233.147,403.953 232.000,402.793 232.000 C 401.807 232.000,401.000 231.812,401.000 231.582 C 401.000 231.352,400.727 230.452,400.393 229.582 C 399.457 227.143,402.961 227.609,407.197 230.488 C 409.210 231.856,411.053 233.993,411.293 235.238 C 411.532 236.482,411.789 235.389,411.864 232.809 C 412.004 227.989,413.322 225.791,414.395 228.588 C 415.312 230.976,415.119 234.191,414.096 233.560 C 413.600 233.252,413.009 235.363,412.784 238.251 C 412.438 242.699,412.712 243.805,414.585 245.500 C 415.954 246.739,416.988 249.117,417.302 251.750 L 417.810 256.000 399.798 256.000 C 383.784 256.000,381.853 255.825,382.393 254.418 C 382.727 253.548,383.000 251.526,383.000 249.923 C 383.000 247.472,383.674 246.698,387.250 245.038 C 389.699 243.902,394.191 242.946,397.850 242.783 L 404.200 242.500 399.871 237.186 C 397.490 234.264,395.460 232.239,395.359 232.686 C 395.258 233.134,394.890 234.786,394.541 236.358 C 394.013 238.741,393.500 239.138,391.454 238.746 C 389.780 238.427,389.000 238.729,389.000 239.698 C 389.000 240.479,388.511 240.816,387.913 240.446 C 387.130 239.962,387.130 239.470,387.913 238.687 C 388.511 238.089,389.000 236.575,389.000 235.323 C 389.000 233.993,390.048 232.359,391.521 231.395 L 394.041 229.743 391.405 226.287 L 388.769 222.831 391.135 223.165 C 392.777 223.398,394.302 224.987,396.122 228.362 M419.440 235.440 C 419.047 241.830,418.451 246.784,418.116 246.449 C 417.781 246.114,417.216 241.488,416.862 236.170 C 416.330 228.202,416.490 226.191,417.769 224.744 C 418.623 223.778,419.509 223.175,419.738 223.405 C 419.968 223.634,419.833 229.050,419.440 235.440 M451.999 224.691 C 452.001 226.777,450.595 226.824,447.000 224.858 L 443.500 222.945 447.749 223.222 C 450.212 223.383,451.998 224.000,451.999 224.691 M376.000 224.441 C 376.000 225.496,374.081 225.940,373.510 225.016 C 373.165 224.457,373.584 224.000,374.441 224.000 C 375.298 224.000,376.000 224.198,376.000 224.441 M370.042 235.250 L 370.085 245.500 373.612 247.750 C 375.552 248.988,377.542 250.000,378.034 250.000 C 378.527 250.000,379.358 250.800,379.881 251.778 C 380.572 253.068,380.179 254.913,378.452 258.497 C 375.875 263.845,375.977 266.032,379.098 272.265 C 380.135 274.335,381.040 277.935,381.109 280.265 C 381.338 288.015,379.724 315.470,378.919 317.500 C 378.268 319.143,378.115 319.194,378.063 317.785 C 378.029 316.842,377.100 315.589,376.000 315.000 C 374.513 314.204,374.000 312.906,374.000 309.943 C 374.000 307.443,373.107 304.567,371.606 302.229 C 370.289 300.178,368.872 296.700,368.458 294.500 C 367.761 290.805,367.647 290.690,366.952 293.000 C 366.344 295.019,366.183 294.634,366.115 291.000 C 366.054 287.752,366.300 286.917,367.000 288.000 C 367.684 289.058,367.974 287.675,367.985 283.309 C 367.993 279.904,367.550 276.840,367.000 276.500 C 366.450 276.160,366.000 273.182,366.000 269.882 C 366.000 266.137,365.624 264.114,365.000 264.500 C 364.450 264.840,363.959 264.529,363.910 263.809 C 363.860 263.089,363.403 263.941,362.894 265.701 C 362.327 267.663,362.326 270.496,362.893 273.018 C 363.556 275.970,363.490 277.240,362.659 277.512 C 353.376 280.549,352.042 280.122,352.015 274.111 C 352.007 272.247,351.061 265.272,349.913 258.611 C 347.742 246.010,347.058 230.530,348.605 229.011 C 349.882 227.758,363.432 226.071,363.830 227.116 C 364.012 227.592,364.832 227.311,365.652 226.491 C 366.472 225.671,367.786 225.000,368.571 225.000 C 369.714 225.000,370.008 227.053,370.042 235.250 M432.500 226.000 C 432.160 226.550,432.793 227.000,433.906 227.000 C 435.019 227.000,436.370 227.823,436.908 228.828 C 437.512 229.956,440.014 231.132,443.443 231.900 C 449.554 233.267,450.856 235.009,445.750 234.985 C 443.284 234.973,442.862 234.736,444.000 234.000 C 445.706 232.898,444.559 232.744,441.250 233.630 C 440.012 233.962,439.000 234.679,439.000 235.224 C 439.000 235.768,439.698 235.946,440.552 235.618 C 441.506 235.252,441.849 235.435,441.443 236.093 C 441.052 236.725,441.543 237.082,442.641 236.966 C 446.278 236.582,447.794 237.022,448.416 238.641 C 448.884 239.861,448.718 240.031,447.773 239.302 C 446.301 238.168,439.368 238.279,438.253 239.454 C 437.839 239.891,438.569 239.919,439.875 239.517 C 441.424 239.040,442.027 239.147,441.609 239.824 C 441.256 240.395,441.494 241.187,442.138 241.585 C 442.869 242.037,443.041 241.876,442.595 241.155 C 441.705 239.714,443.497 239.661,446.094 241.050 C 447.173 241.628,447.749 242.597,447.373 243.205 C 446.958 243.876,447.150 244.026,447.862 243.585 C 448.506 243.187,448.793 242.474,448.500 242.000 C 448.207 241.526,448.425 240.856,448.984 240.510 C 450.283 239.707,450.316 232.313,449.024 231.515 C 448.487 231.183,445.812 230.647,443.080 230.323 C 439.992 229.957,437.893 229.163,437.533 228.224 C 437.214 227.393,437.076 226.605,437.226 226.472 C 437.672 226.078,450.107 227.948,451.094 228.558 C 452.641 229.514,452.092 244.620,450.067 256.839 C 449.005 263.253,447.843 271.122,447.486 274.326 C 447.007 278.628,446.485 280.016,445.490 279.634 C 444.748 279.350,442.510 278.811,440.514 278.437 L 436.886 277.756 437.425 271.698 C 437.722 268.366,438.482 265.320,439.114 264.929 C 439.856 264.471,439.511 263.979,438.141 263.545 C 434.739 262.465,434.000 263.717,434.000 270.559 C 434.000 274.102,433.608 277.000,433.128 277.000 C 432.649 277.000,432.054 281.915,431.807 287.922 C 431.397 297.863,431.117 299.158,428.678 302.355 C 426.841 304.764,426.000 307.081,426.000 309.733 C 426.000 311.860,425.460 314.140,424.800 314.800 C 423.039 316.561,420.215 316.262,419.597 314.250 C 418.918 312.044,419.592 296.610,420.562 292.149 C 421.086 289.737,420.900 288.555,419.895 287.933 C 417.862 286.673,418.433 277.182,420.829 272.404 C 424.108 265.865,424.211 263.694,421.484 258.566 C 419.546 254.921,419.224 253.451,420.032 251.941 C 420.603 250.873,421.473 250.000,421.966 250.000 C 422.458 250.000,424.448 248.988,426.388 247.750 C 429.899 245.511,429.916 245.465,429.958 238.059 C 429.993 231.786,430.200 230.891,431.272 232.357 C 432.309 233.776,433.370 233.963,437.022 233.372 L 441.500 232.648 436.873 231.459 C 434.328 230.805,431.740 229.958,431.123 229.576 C 429.430 228.529,429.766 225.000,431.559 225.000 C 432.416 225.000,432.840 225.450,432.500 226.000 M381.079 228.583 C 381.127 229.748,381.364 229.985,381.683 229.188 C 381.972 228.466,381.936 227.603,381.604 227.271 C 381.272 226.939,381.036 227.529,381.079 228.583 M455.000 227.500 C 455.000 227.775,454.775 228.000,454.500 228.000 C 454.225 228.000,454.000 227.775,454.000 227.500 C 454.000 227.225,454.225 227.000,454.500 227.000 C 454.775 227.000,455.000 227.225,455.000 227.500 M374.790 236.830 C 374.975 242.008,374.700 245.000,374.040 245.000 C 373.432 245.000,372.994 242.403,372.986 238.750 C 372.979 235.313,372.686 231.427,372.335 230.116 C 371.859 228.338,372.053 227.850,373.098 228.197 C 374.115 228.533,374.580 230.908,374.790 236.830 M428.000 236.000 C 428.000 242.444,427.708 244.000,426.500 244.000 C 425.332 244.000,425.000 242.659,425.000 237.934 C 425.000 232.585,426.170 228.000,427.535 228.000 C 427.791 228.000,428.000 231.600,428.000 236.000 M354.500 230.878 C 351.203 231.583,350.839 233.023,353.676 234.141 C 355.144 234.719,354.984 234.873,352.857 234.930 C 351.403 234.968,349.990 235.584,349.716 236.297 C 349.324 237.319,350.243 237.280,354.053 236.110 C 356.712 235.294,358.640 234.226,358.337 233.736 C 358.023 233.228,359.729 233.137,362.304 233.523 C 366.252 234.115,366.964 233.936,367.946 232.100 C 369.328 229.518,368.613 229.457,361.000 231.500 C 354.239 233.315,351.018 233.335,356.500 231.528 C 360.701 230.144,359.603 229.787,354.500 230.878 M436.333 234.667 C 436.700 235.033,437.300 235.033,437.667 234.667 C 438.033 234.300,437.733 234.000,437.000 234.000 C 436.267 234.000,435.967 234.300,436.333 234.667 M431.079 240.191 C 431.000 245.917,431.750 247.279,435.118 247.527 C 437.346 247.691,436.828 244.817,434.481 243.993 C 433.324 243.587,433.042 243.092,433.727 242.669 C 435.028 241.864,434.785 239.117,433.330 238.170 C 432.763 237.802,432.043 236.825,431.729 236.000 C 431.415 235.175,431.122 237.061,431.079 240.191 M433.675 235.658 C 432.836 236.497,434.883 239.010,436.372 238.970 C 436.993 238.953,436.703 238.475,435.729 237.908 C 434.755 237.341,434.219 236.455,434.538 235.939 C 435.204 234.861,434.652 234.682,433.675 235.658 M363.733 239.124 C 364.412 239.808,365.219 240.115,365.526 239.807 C 365.834 239.499,365.279 238.940,364.293 238.564 C 362.868 238.022,362.753 238.136,363.733 239.124 M359.333 239.667 C 359.700 240.033,360.300 240.033,360.667 239.667 C 361.033 239.300,360.733 239.000,360.000 239.000 C 359.267 239.000,358.967 239.300,359.333 239.667 M422.000 243.500 C 422.000 245.975,421.550 248.000,421.000 248.000 C 419.903 248.000,419.643 243.094,420.607 240.582 C 421.614 237.958,422.000 238.767,422.000 243.500 M447.493 239.989 C 447.843 240.555,447.442 240.723,446.552 240.382 C 444.820 239.717,444.503 239.000,445.941 239.000 C 446.459 239.000,447.157 239.445,447.493 239.989 M353.000 240.500 C 353.000 240.775,353.225 241.000,353.500 241.000 C 353.775 241.000,354.000 240.775,354.000 240.500 C 354.000 240.225,353.775 240.000,353.500 240.000 C 353.225 240.000,353.000 240.225,353.000 240.500 M380.000 244.000 C 380.000 246.200,379.550 248.000,379.000 248.000 C 377.894 248.000,377.608 241.725,378.667 240.667 C 379.834 239.499,380.000 239.913,380.000 244.000 M436.000 240.909 C 437.333 241.852,437.333 241.973,436.000 242.000 C 434.667 242.027,434.667 242.138,436.000 243.000 C 436.825 243.533,437.950 243.969,438.500 243.969 C 439.050 243.969,438.899 243.588,438.165 243.123 C 437.430 242.657,436.901 241.888,436.990 241.413 C 437.078 240.938,436.554 240.392,435.825 240.199 C 434.947 239.966,435.007 240.206,436.000 240.909 M356.000 241.393 C 356.000 241.609,356.698 242.054,357.552 242.382 C 358.442 242.723,358.843 242.555,358.493 241.989 C 357.906 241.038,356.000 240.583,356.000 241.393 M353.333 242.667 C 353.700 243.033,354.300 243.033,354.667 242.667 C 355.033 242.300,354.733 242.000,354.000 242.000 C 353.267 242.000,352.967 242.300,353.333 242.667 M363.000 242.393 C 363.000 242.609,363.698 243.054,364.552 243.382 C 365.442 243.723,365.843 243.555,365.493 242.989 C 364.906 242.038,363.000 241.583,363.000 242.393 M440.000 242.500 C 440.000 242.775,440.225 243.000,440.500 243.000 C 440.775 243.000,441.000 242.775,441.000 242.500 C 441.000 242.225,440.775 242.000,440.500 242.000 C 440.225 242.000,440.000 242.225,440.000 242.500 M444.333 242.667 C 444.700 243.033,445.300 243.033,445.667 242.667 C 446.033 242.300,445.733 242.000,445.000 242.000 C 444.267 242.000,443.967 242.300,444.333 242.667 M450.079 243.583 C 450.127 244.748,450.364 244.985,450.683 244.188 C 450.972 243.466,450.936 242.603,450.604 242.271 C 450.272 241.939,450.036 242.529,450.079 243.583 M360.000 243.500 C 360.000 243.775,360.225 244.000,360.500 244.000 C 360.775 244.000,361.000 243.775,361.000 243.500 C 361.000 243.225,360.775 243.000,360.500 243.000 C 360.225 243.000,360.000 243.225,360.000 243.500 M442.000 243.500 C 442.000 243.775,442.225 244.000,442.500 244.000 C 442.775 244.000,443.000 243.775,443.000 243.500 C 443.000 243.225,442.775 243.000,442.500 243.000 C 442.225 243.000,442.000 243.225,442.000 243.500 M440.405 244.845 C 440.840 245.550,440.413 246.025,439.309 246.063 C 437.960 246.111,438.135 246.390,440.000 247.161 L 442.500 248.196 440.250 249.066 C 437.384 250.174,437.319 250.991,440.156 250.249 C 441.564 249.881,442.079 250.063,441.640 250.773 C 441.270 251.372,441.494 252.187,442.138 252.585 C 442.828 253.012,443.042 252.877,442.660 252.259 C 442.021 251.225,444.050 249.985,446.332 250.015 C 447.081 250.025,447.014 250.339,446.143 250.890 C 445.309 251.419,445.172 251.988,445.788 252.369 C 446.340 252.710,447.048 252.316,447.364 251.495 C 447.758 250.467,446.833 249.539,444.397 248.521 C 442.449 247.708,441.121 246.614,441.444 246.090 C 441.768 245.567,441.506 244.813,440.862 244.415 C 440.131 243.963,439.959 244.124,440.405 244.845 M445.000 244.430 C 445.000 244.705,445.900 245.411,447.000 246.000 C 448.100 246.589,449.000 246.845,449.000 246.570 C 449.000 246.295,448.100 245.589,447.000 245.000 C 445.900 244.411,445.000 244.155,445.000 244.430 M357.000 245.500 C 357.000 245.775,357.225 246.000,357.500 246.000 C 357.775 246.000,358.000 245.775,358.000 245.500 C 358.000 245.225,357.775 245.000,357.500 245.000 C 357.225 245.000,357.000 245.225,357.000 245.500 M362.000 245.500 C 362.000 245.775,362.225 246.000,362.500 246.000 C 362.775 246.000,363.000 245.775,363.000 245.500 C 363.000 245.225,362.775 245.000,362.500 245.000 C 362.225 245.000,362.000 245.225,362.000 245.500 M364.543 245.931 C 364.226 246.443,364.432 247.149,365.000 247.500 C 366.425 248.380,365.146 250.192,363.681 249.370 C 362.847 248.902,362.861 249.096,363.726 250.030 C 364.694 251.074,364.694 251.671,363.726 252.868 C 362.736 254.092,362.759 254.228,363.846 253.574 C 364.821 252.987,365.080 253.279,364.787 254.632 C 364.564 255.659,363.733 256.350,362.941 256.167 C 362.148 255.983,361.834 256.167,362.241 256.575 C 362.649 256.982,362.544 257.845,362.007 258.491 C 361.337 259.299,361.482 259.667,362.472 259.667 C 363.264 259.667,363.694 259.314,363.428 258.884 C 363.162 258.453,363.821 257.631,364.892 257.058 C 367.068 255.893,369.483 249.701,368.629 247.476 C 368.290 246.592,367.416 246.287,366.374 246.687 C 365.222 247.129,364.906 246.962,365.395 246.170 C 365.793 245.526,365.893 245.000,365.618 245.000 C 365.343 245.000,364.859 245.419,364.543 245.931 M436.000 245.500 C 436.000 245.775,435.775 246.000,435.500 246.000 C 435.225 246.000,435.000 245.775,435.000 245.500 C 435.000 245.225,435.225 245.000,435.500 245.000 C 435.775 245.000,436.000 245.225,436.000 245.500 M354.000 246.500 C 354.000 246.775,354.225 247.000,354.500 247.000 C 354.775 247.000,355.000 246.775,355.000 246.500 C 355.000 246.225,354.775 246.000,354.500 246.000 C 354.225 246.000,354.000 246.225,354.000 246.500 M359.000 246.500 C 359.000 246.775,359.225 247.000,359.500 247.000 C 359.775 247.000,360.000 246.775,360.000 246.500 C 360.000 246.225,359.775 246.000,359.500 246.000 C 359.225 246.000,359.000 246.225,359.000 246.500 M397.750 246.735 C 392.588 247.142,392.508 247.213,394.035 250.066 C 395.132 252.116,399.671 252.616,405.891 251.372 C 408.411 250.868,408.807 250.472,407.894 249.372 C 407.267 248.617,407.148 247.993,407.628 247.985 C 408.107 247.976,407.825 247.533,407.000 247.000 C 406.175 246.467,404.825 246.105,404.000 246.196 C 403.175 246.286,400.363 246.529,397.750 246.735 M443.333 246.667 C 443.700 247.033,444.300 247.033,444.667 246.667 C 445.033 246.300,444.733 246.000,444.000 246.000 C 443.267 246.000,442.967 246.300,443.333 246.667 M377.000 247.500 C 377.000 247.775,376.775 248.000,376.500 248.000 C 376.225 248.000,376.000 247.775,376.000 247.500 C 376.000 247.225,376.225 247.000,376.500 247.000 C 376.775 247.000,377.000 247.225,377.000 247.500 M446.000 247.500 C 446.000 247.775,446.225 248.000,446.500 248.000 C 446.775 248.000,447.000 247.775,447.000 247.500 C 447.000 247.225,446.775 247.000,446.500 247.000 C 446.225 247.000,446.000 247.225,446.000 247.500 M356.000 248.500 C 356.000 248.775,356.225 249.000,356.500 249.000 C 356.775 249.000,357.000 248.775,357.000 248.500 C 357.000 248.225,356.775 248.000,356.500 248.000 C 356.225 248.000,356.000 248.225,356.000 248.500 M431.322 249.396 C 431.616 250.164,432.391 252.751,433.043 255.146 C 435.118 262.766,434.872 262.351,436.501 260.999 C 437.903 259.835,437.617 257.500,436.181 258.388 C 435.806 258.620,435.500 257.732,435.500 256.416 C 435.500 255.099,436.086 253.797,436.802 253.523 C 437.518 253.248,437.848 253.437,437.536 253.942 C 437.223 254.448,437.494 255.187,438.138 255.585 C 438.869 256.037,439.041 255.876,438.595 255.155 C 437.709 253.720,439.494 253.659,442.066 255.035 C 443.130 255.605,444.000 255.814,444.000 255.500 C 444.000 255.186,441.878 254.019,439.284 252.907 C 435.520 251.294,434.863 250.676,436.034 249.848 C 437.248 248.989,437.205 248.906,435.782 249.362 C 434.837 249.665,433.798 249.482,433.473 248.956 C 432.549 247.462,430.723 247.835,431.322 249.396 M449.000 249.000 C 449.000 249.733,449.300 250.033,449.667 249.667 C 450.033 249.300,450.033 248.700,449.667 248.333 C 449.300 247.967,449.000 248.267,449.000 249.000 M353.000 249.500 C 353.000 249.775,353.225 250.000,353.500 250.000 C 353.775 250.000,354.000 249.775,354.000 249.500 C 354.000 249.225,353.775 249.000,353.500 249.000 C 353.225 249.000,353.000 249.225,353.000 249.500 M358.000 249.500 C 358.000 249.775,358.225 250.000,358.500 250.000 C 358.775 250.000,359.000 249.775,359.000 249.500 C 359.000 249.225,358.775 249.000,358.500 249.000 C 358.225 249.000,358.000 249.225,358.000 249.500 M443.667 249.667 C 443.300 250.033,442.700 250.033,442.333 249.667 C 441.967 249.300,442.267 249.000,443.000 249.000 C 443.733 249.000,444.033 249.300,443.667 249.667 M356.000 250.500 C 356.000 250.775,356.225 251.000,356.500 251.000 C 356.775 251.000,357.000 250.775,357.000 250.500 C 357.000 250.225,356.775 250.000,356.500 250.000 C 356.225 250.000,356.000 250.225,356.000 250.500 M390.333 250.667 C 390.700 251.033,391.300 251.033,391.667 250.667 C 392.033 250.300,391.733 250.000,391.000 250.000 C 390.267 250.000,389.967 250.300,390.333 250.667 M353.000 251.500 C 353.000 251.775,353.225 252.000,353.500 252.000 C 353.775 252.000,354.000 251.775,354.000 251.500 C 354.000 251.225,353.775 251.000,353.500 251.000 C 353.225 251.000,353.000 251.225,353.000 251.500 M370.526 253.950 C 368.536 257.797,368.601 258.284,370.934 257.035 C 371.998 256.466,374.248 256.000,375.934 256.000 C 379.437 256.000,379.796 255.030,377.171 252.655 C 374.462 250.203,372.240 250.636,370.526 253.950 M422.590 252.901 C 420.673 255.018,421.939 256.621,424.693 255.565 C 425.571 255.228,427.127 255.710,428.151 256.636 C 430.761 258.999,431.443 257.757,429.548 254.093 C 427.722 250.562,425.111 250.114,422.590 252.901 M355.507 252.989 C 355.157 253.555,355.558 253.723,356.448 253.382 C 358.180 252.717,358.497 252.000,357.059 252.000 C 356.541 252.000,355.843 252.445,355.507 252.989 M359.000 253.500 C 359.000 253.775,359.225 254.000,359.500 254.000 C 359.775 254.000,360.000 253.775,360.000 253.500 C 360.000 253.225,359.775 253.000,359.500 253.000 C 359.225 253.000,359.000 253.225,359.000 253.500 M444.000 253.500 C 444.000 253.775,444.225 254.000,444.500 254.000 C 444.775 254.000,445.000 253.775,445.000 253.500 C 445.000 253.225,444.775 253.000,444.500 253.000 C 444.225 253.000,444.000 253.225,444.000 253.500 M357.000 254.500 C 357.000 254.775,357.225 255.000,357.500 255.000 C 357.775 255.000,358.000 254.775,358.000 254.500 C 358.000 254.225,357.775 254.000,357.500 254.000 C 357.225 254.000,357.000 254.225,357.000 254.500 M447.000 254.500 C 447.000 254.775,447.225 255.000,447.500 255.000 C 447.775 255.000,448.000 254.775,448.000 254.500 C 448.000 254.225,447.775 254.000,447.500 254.000 C 447.225 254.000,447.000 254.225,447.000 254.500 M357.000 256.500 C 357.000 256.775,357.225 257.000,357.500 257.000 C 357.775 257.000,358.000 256.775,358.000 256.500 C 358.000 256.225,357.775 256.000,357.500 256.000 C 357.225 256.000,357.000 256.225,357.000 256.500 M439.000 257.000 C 438.175 257.533,437.950 257.969,438.500 257.969 C 439.050 257.969,440.175 257.533,441.000 257.000 C 441.825 256.467,442.050 256.031,441.500 256.031 C 440.950 256.031,439.825 256.467,439.000 257.000 M445.000 256.500 C 445.000 256.775,445.225 257.000,445.500 257.000 C 445.775 257.000,446.000 256.775,446.000 256.500 C 446.000 256.225,445.775 256.000,445.500 256.000 C 445.225 256.000,445.000 256.225,445.000 256.500 M353.000 257.500 C 353.000 257.775,353.225 258.000,353.500 258.000 C 353.775 258.000,354.000 257.775,354.000 257.500 C 354.000 257.225,353.775 257.000,353.500 257.000 C 353.225 257.000,353.000 257.225,353.000 257.500 M355.000 257.500 C 355.000 257.775,355.225 258.000,355.500 258.000 C 355.775 258.000,356.000 257.775,356.000 257.500 C 356.000 257.225,355.775 257.000,355.500 257.000 C 355.225 257.000,355.000 257.225,355.000 257.500 M360.000 257.500 C 360.000 257.775,360.225 258.000,360.500 258.000 C 360.775 258.000,361.000 257.775,361.000 257.500 C 361.000 257.225,360.775 257.000,360.500 257.000 C 360.225 257.000,360.000 257.225,360.000 257.500 M443.000 257.500 C 443.000 257.775,443.225 258.000,443.500 258.000 C 443.775 258.000,444.000 257.775,444.000 257.500 C 444.000 257.225,443.775 257.000,443.500 257.000 C 443.225 257.000,443.000 257.225,443.000 257.500 M357.000 258.500 C 357.000 258.775,357.225 259.000,357.500 259.000 C 357.775 259.000,358.000 258.775,358.000 258.500 C 358.000 258.225,357.775 258.000,357.500 258.000 C 357.225 258.000,357.000 258.225,357.000 258.500 M419.285 262.089 C 419.600 264.440,419.261 267.735,418.487 269.839 C 417.747 271.853,417.093 273.275,417.034 273.000 C 416.976 272.725,416.831 269.237,416.714 265.249 C 416.478 257.258,418.332 254.980,419.285 262.089 M442.303 259.344 C 443.646 260.427,443.773 260.919,442.803 261.272 C 442.086 261.533,442.650 261.692,444.056 261.624 C 445.843 261.538,446.657 260.903,446.762 259.513 C 446.870 258.078,446.681 257.898,446.083 258.866 C 445.429 259.923,444.752 259.962,442.877 259.048 C 440.715 257.995,440.663 258.021,442.303 259.344 M383.295 266.086 C 383.035 274.222,383.022 274.248,381.604 269.677 C 380.221 265.215,380.695 258.730,382.365 259.291 C 383.084 259.533,383.425 262.023,383.295 266.086 M354.000 260.500 C 354.000 260.775,354.225 261.000,354.500 261.000 C 354.775 261.000,355.000 260.775,355.000 260.500 C 355.000 260.225,354.775 260.000,354.500 260.000 C 354.225 260.000,354.000 260.225,354.000 260.500 M359.000 260.500 C 359.000 260.775,359.225 261.000,359.500 261.000 C 359.775 261.000,360.000 260.775,360.000 260.500 C 360.000 260.225,359.775 260.000,359.500 260.000 C 359.225 260.000,359.000 260.225,359.000 260.500 M367.000 260.668 C 367.000 264.582,369.792 275.505,371.761 279.290 C 374.042 283.677,374.193 284.753,373.552 292.098 C 373.057 297.769,373.203 300.539,374.049 301.559 C 376.665 304.712,377.177 302.820,376.875 291.113 C 376.657 282.676,376.931 278.788,377.818 277.719 C 378.837 276.491,378.741 275.884,377.301 274.443 C 376.328 273.471,375.481 272.186,375.418 271.587 C 375.356 270.989,375.236 269.541,375.152 268.369 C 374.935 265.322,367.000 257.827,367.000 260.668 M391.794 261.194 C 393.532 262.932,406.270 262.849,408.396 261.086 C 409.868 259.865,410.301 259.873,411.575 261.147 C 412.781 262.353,413.000 265.685,412.775 279.441 L 412.500 296.261 410.000 292.406 C 408.625 290.286,406.450 288.029,405.166 287.391 C 403.882 286.753,402.330 285.730,401.716 285.116 C 401.102 284.502,400.264 284.000,399.853 284.000 C 398.515 284.000,393.934 294.217,394.489 295.965 C 394.808 296.969,394.146 298.449,392.871 299.582 C 391.684 300.637,389.880 302.850,388.861 304.500 L 387.007 307.500 387.004 303.876 C 387.000 300.227,391.358 291.000,393.085 291.000 C 393.588 291.000,394.000 290.270,394.000 289.378 C 394.000 287.011,391.377 289.387,388.976 293.929 L 387.088 297.500 387.044 279.950 C 387.013 267.581,387.354 262.046,388.200 261.200 C 389.703 259.697,390.296 259.696,391.794 261.194 M429.319 262.250 C 428.202 263.488,426.469 265.933,425.467 267.684 C 423.955 270.329,423.867 271.134,424.946 272.434 C 426.036 273.748,425.979 274.000,424.591 274.000 C 422.618 274.000,421.501 276.384,422.624 278.201 C 423.065 278.913,423.289 284.785,423.122 291.248 C 422.823 302.797,422.856 303.000,425.028 303.000 C 427.203 303.000,427.227 302.850,426.525 293.487 C 425.882 284.914,426.022 283.571,427.940 279.891 C 429.110 277.645,430.721 273.039,431.519 269.654 C 433.867 259.698,433.310 257.826,429.319 262.250 M436.000 260.500 C 436.000 260.775,435.775 261.000,435.500 261.000 C 435.225 261.000,435.000 260.775,435.000 260.500 C 435.000 260.225,435.225 260.000,435.500 260.000 C 435.775 260.000,436.000 260.225,436.000 260.500 M438.507 260.989 C 438.157 261.555,438.558 261.723,439.448 261.382 C 441.180 260.717,441.497 260.000,440.059 260.000 C 439.541 260.000,438.843 260.445,438.507 260.989 M356.000 261.500 C 356.000 261.775,356.225 262.000,356.500 262.000 C 356.775 262.000,357.000 261.775,357.000 261.500 C 357.000 261.225,356.775 261.000,356.500 261.000 C 356.225 261.000,356.000 261.225,356.000 261.500 M361.000 261.500 C 361.000 261.775,361.225 262.000,361.500 262.000 C 361.775 262.000,362.000 261.775,362.000 261.500 C 362.000 261.225,361.775 261.000,361.500 261.000 C 361.225 261.000,361.000 261.225,361.000 261.500 M409.000 263.500 C 409.000 263.775,409.225 264.000,409.500 264.000 C 409.775 264.000,410.000 263.775,410.000 263.500 C 410.000 263.225,409.775 263.000,409.500 263.000 C 409.225 263.000,409.000 263.225,409.000 263.500 M441.000 263.500 C 441.000 263.775,441.225 264.000,441.500 264.000 C 441.775 264.000,442.000 263.775,442.000 263.500 C 442.000 263.225,441.775 263.000,441.500 263.000 C 441.225 263.000,441.000 263.225,441.000 263.500 M444.736 263.598 C 444.407 263.927,444.397 264.872,444.715 265.699 C 445.032 266.525,444.663 267.641,443.896 268.177 C 442.734 268.989,442.752 269.084,444.000 268.744 C 444.825 268.519,445.545 267.135,445.601 265.668 C 445.709 262.809,445.654 262.679,444.736 263.598 M355.000 264.500 C 355.000 264.775,355.225 265.000,355.500 265.000 C 355.775 265.000,356.000 264.775,356.000 264.500 C 356.000 264.225,355.775 264.000,355.500 264.000 C 355.225 264.000,355.000 264.225,355.000 264.500 M360.000 264.500 C 360.000 264.775,360.225 265.000,360.500 265.000 C 360.775 265.000,361.000 264.775,361.000 264.500 C 361.000 264.225,360.775 264.000,360.500 264.000 C 360.225 264.000,360.000 264.225,360.000 264.500 M357.000 265.500 C 357.000 265.775,357.225 266.000,357.500 266.000 C 357.775 266.000,358.000 265.775,358.000 265.500 C 358.000 265.225,357.775 265.000,357.500 265.000 C 357.225 265.000,357.000 265.225,357.000 265.500 M390.514 267.973 C 389.407 270.113,389.330 270.809,390.238 270.455 C 391.771 269.859,394.170 265.000,392.932 265.000 C 392.447 265.000,391.359 266.338,390.514 267.973 M408.000 268.000 C 409.175 269.650,410.291 271.000,410.481 271.000 C 410.671 271.000,410.317 269.650,409.694 268.000 C 409.071 266.350,407.955 265.000,407.213 265.000 C 406.256 265.000,406.485 265.872,408.000 268.000 M441.500 266.000 C 441.840 266.550,442.316 267.000,442.559 267.000 C 442.802 267.000,443.000 266.550,443.000 266.000 C 443.000 265.450,442.523 265.000,441.941 265.000 C 441.359 265.000,441.160 265.450,441.500 266.000 M395.000 266.500 C 395.000 266.775,395.225 267.000,395.500 267.000 C 395.775 267.000,396.000 266.775,396.000 266.500 C 396.000 266.225,395.775 266.000,395.500 266.000 C 395.225 266.000,395.000 266.225,395.000 266.500 M358.000 267.500 C 358.000 267.775,358.225 268.000,358.500 268.000 C 358.775 268.000,359.000 267.775,359.000 267.500 C 359.000 267.225,358.775 267.000,358.500 267.000 C 358.225 267.000,358.000 267.225,358.000 267.500 M372.985 269.809 C 372.971 271.266,372.835 271.293,372.000 270.000 C 370.734 268.042,370.734 266.718,372.000 267.500 C 372.550 267.840,372.993 268.879,372.985 269.809 M440.000 267.500 C 440.000 267.775,440.225 268.000,440.500 268.000 C 440.775 268.000,441.000 267.775,441.000 267.500 C 441.000 267.225,440.775 267.000,440.500 267.000 C 440.225 267.000,440.000 267.225,440.000 267.500 M360.000 268.500 C 360.000 268.775,360.225 269.000,360.500 269.000 C 360.775 269.000,361.000 268.775,361.000 268.500 C 361.000 268.225,360.775 268.000,360.500 268.000 C 360.225 268.000,360.000 268.225,360.000 268.500 M394.848 270.881 C 390.845 273.420,388.975 275.647,389.011 277.832 C 389.017 278.199,390.196 277.010,391.631 275.189 C 393.116 273.305,394.830 272.104,395.608 272.403 C 396.360 272.692,396.869 272.382,396.738 271.714 C 396.594 270.979,397.958 270.379,400.193 270.193 C 404.353 269.847,408.000 272.560,408.000 276.000 C 408.000 277.968,409.063 278.604,410.293 277.373 C 411.453 276.214,407.993 271.048,405.033 269.517 C 401.021 267.442,400.070 267.570,394.848 270.881 M427.683 270.188 C 427.364 270.985,427.127 270.748,427.079 269.583 C 427.036 268.529,427.272 267.939,427.604 268.271 C 427.936 268.603,427.972 269.466,427.683 270.188 M438.000 268.500 C 438.000 268.775,438.225 269.000,438.500 269.000 C 438.775 269.000,439.000 268.775,439.000 268.500 C 439.000 268.225,438.775 268.000,438.500 268.000 C 438.225 268.000,438.000 268.225,438.000 268.500 M357.000 270.500 C 357.000 270.775,357.225 271.000,357.500 271.000 C 357.775 271.000,358.000 270.775,358.000 270.500 C 358.000 270.225,357.775 270.000,357.500 270.000 C 357.225 270.000,357.000 270.225,357.000 270.500 M439.443 271.418 C 438.376 272.198,437.727 273.040,438.002 273.289 C 438.276 273.538,439.366 272.900,440.425 271.871 C 442.702 269.657,442.180 269.417,439.443 271.418 M359.000 271.500 C 359.000 271.775,359.225 272.000,359.500 272.000 C 359.775 272.000,360.000 271.775,360.000 271.500 C 360.000 271.225,359.775 271.000,359.500 271.000 C 359.225 271.000,359.000 271.225,359.000 271.500 M442.571 272.571 C 440.286 274.857,440.643 275.633,443.000 273.500 C 444.100 272.505,445.000 271.535,445.000 271.345 C 445.000 270.602,444.073 271.070,442.571 272.571 M356.000 272.500 C 356.000 272.775,356.225 273.000,356.500 273.000 C 356.775 273.000,357.000 272.775,357.000 272.500 C 357.000 272.225,356.775 272.000,356.500 272.000 C 356.225 272.000,356.000 272.225,356.000 272.500 M361.000 272.500 C 361.000 272.775,361.225 273.000,361.500 273.000 C 361.775 273.000,362.000 272.775,362.000 272.500 C 362.000 272.225,361.775 272.000,361.500 272.000 C 361.225 272.000,361.000 272.225,361.000 272.500 M401.000 272.755 C 401.000 273.305,401.675 274.315,402.500 275.000 C 403.337 275.694,404.000 275.803,404.000 275.245 C 404.000 274.695,403.325 273.685,402.500 273.000 C 401.663 272.306,401.000 272.197,401.000 272.755 M375.000 275.500 C 375.000 275.775,374.775 276.000,374.500 276.000 C 374.225 276.000,374.000 275.775,374.000 275.500 C 374.000 275.225,374.225 275.000,374.500 275.000 C 374.775 275.000,375.000 275.225,375.000 275.500 M439.000 275.500 C 439.000 275.775,439.225 276.000,439.500 276.000 C 439.775 276.000,440.000 275.775,440.000 275.500 C 440.000 275.225,439.775 275.000,439.500 275.000 C 439.225 275.000,439.000 275.225,439.000 275.500 M443.000 275.500 C 443.000 275.775,443.225 276.000,443.500 276.000 C 443.775 276.000,444.000 275.775,444.000 275.500 C 444.000 275.225,443.775 275.000,443.500 275.000 C 443.225 275.000,443.000 275.225,443.000 275.500 M462.000 276.000 C 462.000 276.733,462.300 277.033,462.667 276.667 C 463.033 276.300,463.033 275.700,462.667 275.333 C 462.300 274.967,462.000 275.267,462.000 276.000 M334.978 283.629 C 334.074 288.911,333.987 291.757,334.695 292.879 C 335.754 294.557,343.024 296.313,344.122 295.156 C 345.292 293.923,346.062 286.000,345.012 286.000 C 344.455 286.000,344.089 286.337,344.198 286.750 C 344.809 289.062,342.668 292.000,340.374 292.000 C 338.967 292.000,338.151 291.564,338.500 291.000 C 338.840 290.450,338.443 290.000,337.617 290.000 C 336.370 290.000,336.215 288.818,336.703 283.000 C 337.026 279.150,337.063 276.000,336.786 276.000 C 336.510 276.000,335.696 279.433,334.978 283.629 M393.696 278.025 C 391.148 280.028,387.589 285.923,388.423 286.757 C 388.661 286.994,390.007 285.366,391.413 283.137 C 394.471 278.293,397.253 276.614,400.843 277.445 C 402.831 277.906,403.122 277.805,402.000 277.046 C 399.643 275.451,396.496 275.822,393.696 278.025 M463.455 284.500 C 463.698 288.350,463.657 290.935,463.363 290.244 C 463.069 289.553,462.396 289.255,461.866 289.583 C 461.257 289.959,461.279 290.632,461.927 291.412 C 462.711 292.357,462.247 292.543,459.948 292.206 C 456.917 291.761,454.395 288.788,455.513 286.979 C 455.846 286.441,455.621 286.000,455.014 286.000 C 453.788 286.000,454.648 292.723,456.111 294.580 C 457.079 295.808,462.867 295.253,464.750 293.752 C 466.392 292.443,466.303 288.658,464.487 282.500 L 463.012 277.500 463.455 284.500 M407.842 282.691 C 409.770 286.470,412.000 289.054,412.000 287.509 C 412.000 286.181,409.034 281.273,407.422 279.936 C 406.022 278.774,406.098 279.273,407.842 282.691 M360.500 281.615 L 356.500 283.020 360.250 282.573 C 362.313 282.327,364.000 282.547,364.000 283.063 C 364.000 283.578,363.270 284.000,362.378 284.000 C 361.049 284.000,360.980 284.271,362.000 285.500 C 362.788 286.449,362.853 287.000,362.180 287.000 C 360.604 287.000,354.000 282.937,354.000 281.968 C 354.000 281.107,357.611 280.334,362.000 280.255 C 363.903 280.220,363.545 280.545,360.500 281.615 M396.954 282.086 C 395.320 285.140,396.448 285.491,398.388 282.531 C 399.300 281.139,399.602 280.000,399.058 280.000 C 398.515 280.000,397.568 280.939,396.954 282.086 M445.992 281.688 C 446.581 282.242,443.264 284.290,440.593 285.023 C 439.494 285.325,438.105 287.223,437.317 289.499 C 435.337 295.218,434.000 296.128,434.000 291.757 C 434.000 289.115,434.618 287.678,436.250 286.529 C 438.160 285.183,438.273 284.799,437.000 283.987 C 435.875 283.269,436.374 283.008,439.000 282.938 L 442.500 282.846 438.500 281.463 L 434.500 280.080 440.000 280.653 C 443.025 280.968,445.721 281.434,445.992 281.688 M404.015 281.691 C 404.024 282.136,404.467 283.175,405.000 284.000 C 405.835 285.293,405.971 285.266,405.985 283.809 C 405.993 282.879,405.550 281.840,405.000 281.500 C 404.450 281.160,404.007 281.246,404.015 281.691 M384.707 287.238 C 384.468 288.482,384.263 287.700,384.252 285.500 C 384.241 283.300,384.437 282.282,384.687 283.238 C 384.937 284.194,384.946 285.994,384.707 287.238 M370.000 290.559 C 370.000 292.677,370.405 293.868,371.000 293.500 C 371.550 293.160,372.000 291.559,372.000 289.941 C 372.000 288.323,371.550 287.000,371.000 287.000 C 370.450 287.000,370.000 288.602,370.000 290.559 M428.000 289.941 C 428.000 291.559,428.450 293.160,429.000 293.500 C 429.595 293.868,430.000 292.677,430.000 290.559 C 430.000 288.602,429.550 287.000,429.000 287.000 C 428.450 287.000,428.000 288.323,428.000 289.941 M362.575 291.234 C 362.921 294.548,361.510 295.706,360.092 293.271 C 359.159 291.669,359.058 291.660,359.030 293.183 C 358.997 295.049,362.343 296.524,364.121 295.425 C 364.817 294.995,365.078 295.261,364.792 296.111 C 364.535 296.875,363.273 297.510,361.988 297.522 C 360.703 297.534,359.468 298.096,359.243 298.772 C 358.282 301.655,357.459 299.578,357.329 293.943 C 357.192 288.006,357.240 287.892,359.739 288.193 C 361.688 288.428,362.356 289.145,362.575 291.234 M437.315 300.122 C 435.217 304.052,432.542 308.339,431.371 309.650 C 429.325 311.938,429.221 311.953,428.723 310.051 C 428.389 308.771,428.789 307.875,429.853 307.521 C 430.759 307.220,433.525 302.604,436.000 297.264 C 439.677 289.329,440.558 288.050,440.815 290.265 C 441.013 291.963,439.705 295.646,437.315 300.122 M444.021 295.987 C 442.170 297.131,441.779 296.740,442.609 294.576 C 443.090 293.324,443.563 293.163,444.374 293.974 C 445.186 294.786,445.091 295.325,444.021 295.987 M444.548 302.368 C 446.451 302.278,448.248 302.592,448.540 303.065 C 449.496 304.612,446.826 317.428,444.907 320.500 C 442.815 323.850,442.349 322.524,444.194 318.473 C 445.110 316.463,445.115 315.414,444.215 313.972 C 443.471 312.782,443.400 311.871,444.020 311.487 C 444.559 311.154,445.000 309.784,445.000 308.441 C 445.000 307.098,445.450 306.000,446.000 306.000 C 446.550 306.000,446.999 305.663,446.998 305.250 C 446.996 304.837,445.603 304.450,443.900 304.389 C 440.983 304.284,440.840 304.448,441.402 307.260 C 441.984 310.169,441.943 310.205,439.749 308.726 C 437.381 307.129,437.291 305.490,439.295 300.500 C 440.494 297.514,440.501 297.512,440.794 300.015 C 441.049 302.199,441.544 302.509,444.548 302.368 M366.523 304.834 C 365.891 309.426,366.027 309.816,369.226 312.625 C 373.473 316.354,376.000 319.934,376.000 322.223 C 376.000 324.292,373.043 324.610,371.082 322.750 C 370.009 321.731,370.011 321.908,371.094 323.704 C 371.825 324.916,373.562 326.041,374.953 326.204 C 376.414 326.375,377.623 327.239,377.815 328.250 C 378.081 329.654,377.435 330.000,374.549 330.000 C 370.125 330.000,368.607 327.220,368.543 319.000 C 368.519 315.975,368.050 313.500,367.500 313.500 C 366.950 313.500,366.480 314.510,366.455 315.745 C 366.387 319.161,364.594 320.451,362.636 318.493 C 361.736 317.593,361.014 316.102,361.032 315.179 C 361.061 313.641,361.176 313.647,362.392 315.250 C 364.181 317.607,365.326 317.478,364.035 315.066 C 363.466 314.002,363.000 311.704,363.000 309.959 C 363.000 307.549,362.639 306.925,361.500 307.362 C 360.568 307.719,360.000 307.356,360.000 306.401 C 360.000 305.318,360.592 305.053,362.011 305.503 C 363.659 306.027,364.132 305.589,364.636 303.071 C 365.653 297.987,367.258 299.487,366.523 304.834 M370.953 310.500 C 370.937 312.427,370.886 312.433,369.537 310.653 C 368.767 309.637,368.394 308.137,368.708 307.319 C 369.173 306.107,369.435 306.079,370.124 307.166 C 370.589 307.900,370.962 309.400,370.953 310.500 M401.206 310.250 C 401.032 311.288,401.541 312.000,402.456 312.000 C 403.642 312.000,404.000 313.159,404.000 317.000 C 404.000 320.778,403.633 322.000,402.500 322.000 C 401.675 322.000,400.970 322.563,400.932 323.250 C 400.895 323.938,400.374 323.483,399.775 322.240 C 398.452 319.495,399.389 318.248,401.476 319.980 C 402.735 321.025,403.000 320.963,403.000 319.622 C 403.000 318.064,401.926 317.578,399.250 317.925 C 397.713 318.125,397.647 316.528,399.081 313.849 C 399.676 312.738,399.864 311.530,399.499 311.166 C 398.387 310.054,396.000 314.204,396.000 317.250 C 396.000 318.827,395.604 319.873,395.119 319.574 C 394.634 319.274,393.172 320.590,391.869 322.499 C 388.293 327.737,387.000 327.728,387.000 322.465 C 387.000 318.470,387.522 317.452,391.896 312.914 C 395.543 309.130,397.393 307.919,399.146 308.167 C 400.743 308.393,401.405 309.063,401.206 310.250 M437.280 311.713 C 436.751 313.091,436.520 313.064,435.371 311.493 C 433.776 309.311,434.644 307.460,436.530 309.025 C 437.273 309.641,437.610 310.851,437.280 311.713 M434.000 312.000 C 434.000 312.550,433.299 313.000,432.442 313.000 C 431.209 313.000,430.891 314.198,430.916 318.750 C 430.933 321.913,430.833 326.750,430.694 329.500 L 430.441 334.500 426.225 334.807 C 422.555 335.075,421.862 334.792,420.873 332.621 C 419.291 329.148,420.278 327.358,424.180 326.626 C 427.275 326.045,430.842 322.509,429.593 321.259 C 429.293 320.959,428.763 321.453,428.417 322.357 C 428.070 323.261,426.934 324.000,425.893 324.000 C 422.758 324.000,423.638 319.891,427.750 315.329 C 431.365 311.318,434.000 309.915,434.000 312.000 M439.600 316.551 C 438.150 317.611,438.156 318.011,439.671 321.107 C 440.584 322.973,442.385 325.776,443.672 327.335 C 445.955 330.098,445.968 333.368,443.687 331.087 C 442.297 329.697,440.000 329.679,440.000 331.059 C 440.000 331.641,440.520 331.797,441.155 331.405 C 441.876 330.959,442.037 331.131,441.585 331.862 C 441.187 332.506,440.456 332.782,439.960 332.475 C 439.464 332.169,438.780 333.029,438.439 334.386 C 438.099 335.743,436.060 338.018,433.910 339.441 C 430.208 341.891,429.563 342.899,429.912 345.692 C 430.015 346.516,428.940 346.702,426.430 346.295 C 423.893 345.883,422.533 346.127,421.915 347.103 C 421.230 348.185,421.027 348.205,421.015 347.191 C 421.007 346.471,420.502 346.190,419.893 346.566 C 419.133 347.036,419.015 346.505,419.517 344.875 C 420.528 341.591,420.826 341.410,422.993 342.764 C 424.575 343.751,425.577 343.505,428.947 341.298 C 431.176 339.839,433.000 338.050,433.000 337.322 C 433.000 336.595,433.844 336.000,434.875 336.000 C 438.486 336.000,439.320 323.307,435.918 320.138 C 434.597 318.907,433.985 317.338,434.244 315.849 L 434.653 313.500 435.763 316.000 C 436.677 318.059,436.884 318.161,436.937 316.579 C 436.971 315.522,437.788 313.782,438.750 312.712 C 440.475 310.794,440.505 310.799,440.845 313.077 C 441.039 314.374,440.493 315.898,439.600 316.551 M361.545 324.516 C 362.223 329.938,362.269 330.000,365.591 330.000 C 369.165 330.000,374.334 332.684,374.750 334.755 C 375.140 336.698,372.864 336.221,370.314 333.826 C 368.414 332.041,368.000 331.941,368.000 333.267 C 368.000 334.155,368.457 335.165,369.016 335.510 C 369.575 335.856,369.769 336.564,369.447 337.085 C 368.605 338.448,367.027 337.201,365.924 334.301 C 365.298 332.653,364.456 331.995,363.463 332.376 C 362.634 332.694,361.121 332.121,360.102 331.102 C 359.084 330.084,357.631 329.003,356.875 328.701 C 355.889 328.308,355.819 327.918,356.628 327.326 C 357.248 326.872,358.075 324.586,358.466 322.246 C 359.394 316.696,360.687 317.649,361.545 324.516 M395.437 322.750 C 395.009 323.712,394.470 326.364,394.238 328.643 C 393.920 331.763,392.948 333.616,390.304 336.143 L 386.792 339.500 387.517 334.000 C 388.052 329.949,389.067 327.535,391.372 324.835 C 394.722 320.909,396.706 319.892,395.437 322.750 M400.477 327.820 C 401.033 329.656,400.743 330.254,399.090 330.687 C 397.940 330.987,397.000 331.631,397.000 332.117 C 397.000 333.242,398.104 333.220,399.941 332.058 C 402.443 330.474,409.248 334.801,411.745 339.563 C 412.818 341.610,412.285 348.000,411.041 348.000 C 410.639 348.000,409.495 347.100,408.500 346.000 C 407.505 344.900,406.197 344.000,405.595 344.000 C 404.993 344.000,406.413 345.748,408.750 347.884 C 412.250 351.083,413.000 352.407,413.000 355.384 C 413.000 359.411,412.455 359.708,409.223 357.443 C 408.000 356.587,407.000 356.338,407.000 356.889 C 407.000 357.440,408.238 358.490,409.750 359.223 C 412.248 360.432,412.502 361.056,412.522 366.027 C 412.546 371.750,410.266 376.000,407.171 376.000 C 405.967 376.000,406.024 376.369,407.477 377.974 C 408.986 379.642,409.081 380.390,408.087 382.791 C 407.246 384.819,407.206 386.410,407.944 388.352 C 409.123 391.455,408.753 391.723,402.500 392.297 C 398.613 392.653,398.635 392.669,403.281 392.832 C 408.426 393.013,410.688 395.285,407.825 397.395 C 407.000 398.003,406.514 399.063,406.746 399.751 C 407.014 400.545,406.590 400.780,405.584 400.394 C 404.561 400.001,404.000 400.332,404.000 401.326 C 404.000 403.650,399.907 404.594,398.453 402.605 C 397.794 401.703,396.594 401.219,395.787 401.528 C 394.981 401.838,393.743 401.396,393.038 400.546 C 391.944 399.227,392.104 398.985,394.128 398.900 L 396.500 398.801 394.005 398.106 C 391.014 397.274,389.967 394.015,392.677 393.970 C 394.394 393.941,394.398 393.880,392.750 392.920 C 391.788 392.359,391.000 390.960,391.000 389.811 C 391.000 388.661,391.788 387.123,392.750 386.392 C 393.819 385.581,394.013 385.051,393.250 385.032 C 392.471 385.012,392.000 383.541,392.000 381.125 C 392.000 377.592,392.274 377.195,395.098 376.630 C 396.801 376.290,399.389 376.264,400.848 376.574 C 403.394 377.114,403.423 377.074,401.559 375.568 C 399.280 373.727,398.084 373.637,394.414 375.033 C 392.145 375.896,391.322 375.712,389.411 373.917 C 387.307 371.939,387.127 370.939,387.167 361.386 C 387.215 349.606,388.323 347.146,394.790 344.443 C 398.783 342.775,401.000 343.141,401.000 345.469 C 401.000 346.311,401.450 347.000,402.000 347.000 C 404.191 347.000,402.925 342.922,400.440 341.977 C 399.032 341.442,398.162 340.547,398.507 339.989 C 398.852 339.431,398.429 337.561,397.567 335.834 C 395.704 332.100,395.524 326.876,397.200 325.200 C 398.583 323.817,399.484 324.538,400.477 327.820 M350.429 326.571 C 351.293 327.436,352.000 328.259,352.000 328.401 C 352.000 328.542,348.962 328.255,345.250 327.762 C 336.261 326.569,334.828 325.000,342.729 325.000 C 346.967 325.000,349.342 325.485,350.429 326.571 M380.000 325.500 C 380.000 325.775,379.775 326.000,379.500 326.000 C 379.225 326.000,379.000 325.775,379.000 325.500 C 379.000 325.225,379.225 325.000,379.500 325.000 C 379.775 325.000,380.000 325.225,380.000 325.500 M423.000 331.861 C 423.000 333.308,423.558 333.616,425.500 333.245 C 428.340 332.702,428.757 331.505,426.418 330.607 C 423.809 329.606,423.000 329.903,423.000 331.861 M359.000 331.500 C 359.000 331.775,358.775 332.000,358.500 332.000 C 358.225 332.000,358.000 331.775,358.000 331.500 C 358.000 331.225,358.225 331.000,358.500 331.000 C 358.775 331.000,359.000 331.225,359.000 331.500 M401.438 334.300 C 400.675 336.289,402.312 341.608,403.570 341.225 C 404.670 340.891,404.179 334.861,402.949 333.583 C 402.421 333.035,401.813 333.323,401.438 334.300 M395.216 338.123 C 395.155 340.247,394.063 342.372,391.867 344.637 C 390.074 346.487,388.246 348.000,387.804 348.000 C 387.362 348.000,387.000 346.431,387.000 344.513 C 387.000 341.763,387.791 340.302,390.747 337.593 C 392.807 335.705,394.676 334.343,394.899 334.566 C 395.122 334.789,395.265 336.390,395.216 338.123 M424.000 338.000 C 424.000 338.550,423.577 339.000,423.059 339.000 C 422.541 339.000,421.840 338.550,421.500 338.000 C 421.160 337.450,421.584 337.000,422.441 337.000 C 423.298 337.000,424.000 337.450,424.000 338.000 M427.000 340.000 C 427.000 340.550,426.212 340.993,425.250 340.985 C 423.754 340.972,423.718 340.828,425.000 340.000 C 426.887 338.780,427.000 338.780,427.000 340.000 M377.667 342.667 C 377.300 343.033,377.000 342.733,377.000 342.000 C 377.000 341.267,377.300 340.967,377.667 341.333 C 378.033 341.700,378.033 342.300,377.667 342.667 M433.000 344.000 C 433.000 344.550,432.550 345.000,432.000 345.000 C 431.450 345.000,431.000 344.550,431.000 344.000 C 431.000 343.450,431.450 343.000,432.000 343.000 C 432.550 343.000,433.000 343.450,433.000 344.000 M395.824 346.172 C 395.576 346.903,395.668 348.850,396.027 350.500 L 396.681 353.500 397.881 350.577 C 398.856 348.204,398.818 347.389,397.678 346.249 C 396.530 345.101,396.191 345.087,395.824 346.172 M403.700 352.148 C 403.427 355.092,402.876 358.850,402.476 360.500 C 401.936 362.730,402.043 363.226,402.893 362.432 C 404.603 360.835,406.475 349.075,405.219 347.819 C 404.523 347.123,404.039 348.503,403.700 352.148 M425.000 347.500 C 425.000 347.775,424.775 348.000,424.500 348.000 C 424.225 348.000,424.000 347.775,424.000 347.500 C 424.000 347.225,424.225 347.000,424.500 347.000 C 424.775 347.000,425.000 347.225,425.000 347.500 M398.155 354.314 C 397.201 355.463,397.530 355.694,399.994 355.607 C 401.645 355.548,402.846 355.050,402.665 354.500 C 402.136 352.901,399.420 352.789,398.155 354.314 M391.139 357.086 C 389.531 358.390,389.253 359.000,390.267 359.000 C 391.764 359.000,394.624 356.288,393.893 355.562 C 393.677 355.348,392.438 356.033,391.139 357.086 M394.427 364.161 C 394.803 366.999,395.813 370.261,396.670 371.411 C 398.204 373.468,398.217 373.461,397.485 371.000 C 397.077 369.625,396.532 366.363,396.275 363.750 C 396.018 361.137,395.342 359.000,394.775 359.000 C 394.110 359.000,393.986 360.837,394.427 364.161 M398.135 365.837 C 397.203 366.467,398.158 366.745,401.135 366.712 C 403.536 366.686,406.625 367.026,408.000 367.468 C 409.976 368.103,410.256 368.010,409.337 367.023 C 407.869 365.446,399.951 364.608,398.135 365.837 M391.500 368.000 C 391.160 368.550,391.359 369.000,391.941 369.000 C 392.523 369.000,393.000 368.550,393.000 368.000 C 393.000 367.450,392.802 367.000,392.559 367.000 C 392.316 367.000,391.840 367.450,391.500 368.000 M402.046 372.086 C 402.660 373.233,403.361 373.972,403.605 373.729 C 404.304 373.029,402.886 370.000,401.858 370.000 C 401.347 370.000,401.432 370.938,402.046 372.086 M404.736 380.000 C 404.420 380.825,403.959 382.625,403.710 384.000 C 403.461 385.375,402.926 387.288,402.522 388.250 C 402.087 389.284,402.223 390.000,402.854 390.000 C 404.127 390.000,406.290 382.565,405.714 380.175 C 405.373 378.763,405.219 378.736,404.736 380.000 M396.667 380.667 C 395.711 381.622,395.845 383.000,396.893 383.000 C 397.384 383.000,398.045 382.325,398.362 381.500 C 398.947 379.976,397.881 379.452,396.667 380.667 M397.589 384.856 C 397.298 385.326,398.172 385.499,399.530 385.239 C 400.889 384.979,402.000 384.594,402.000 384.383 C 402.000 383.610,398.101 384.027,397.589 384.856 M394.548 391.250 C 395.417 395.241,398.000 399.381,398.000 396.782 C 398.000 395.867,397.550 394.840,397.000 394.500 C 396.450 394.160,396.000 392.559,396.000 390.941 C 396.000 389.323,395.514 388.000,394.921 388.000 C 394.224 388.000,394.092 389.154,394.548 391.250 M375.750 389.706 C 376.988 389.944,379.012 389.944,380.250 389.706 C 381.488 389.467,380.475 389.272,378.000 389.272 C 375.525 389.272,374.512 389.467,375.750 389.706 M419.762 389.707 C 421.006 389.946,422.806 389.937,423.762 389.687 C 424.718 389.437,423.700 389.241,421.500 389.252 C 419.300 389.263,418.518 389.468,419.762 389.707 M370.791 391.906 C 367.652 392.242,364.524 393.076,363.841 393.759 C 362.853 394.747,364.253 395.000,370.718 395.000 C 375.183 395.000,379.548 395.273,380.418 395.607 C 381.611 396.065,382.000 395.573,382.000 393.607 C 382.000 390.727,381.914 390.714,370.791 391.906 M417.750 391.562 C 417.337 391.986,417.000 393.192,417.000 394.241 C 417.000 396.044,417.612 396.111,428.250 395.470 C 445.204 394.449,444.418 393.040,426.000 391.442 C 421.875 391.084,418.163 391.138,417.750 391.562 M402.000 395.882 C 402.000 396.432,402.450 397.160,403.000 397.500 C 403.550 397.840,404.000 397.668,404.000 397.118 C 404.000 396.568,403.550 395.840,403.000 395.500 C 402.450 395.160,402.000 395.332,402.000 395.882 M376.477 406.963 C 377.286 408.272,383.742 409.988,387.885 409.994 L 391.270 410.000 388.727 408.000 C 386.932 406.588,384.670 406.000,381.033 406.000 C 377.986 406.000,376.125 406.393,376.477 406.963 M411.108 407.995 C 409.793 409.125,408.910 410.243,409.146 410.479 C 409.701 411.034,422.035 409.298,422.772 408.561 C 423.814 407.519,422.120 406.768,417.799 406.353 C 414.499 406.036,412.944 406.418,411.108 407.995 " stroke="none" fill="#000000" fill-rule="evenodd"/></svg>