<svg id="svg" version="1.1" width="800" height="450" xmlns="http://www.w3.org/2000/svg"><path d="M384.620 75.690 L 376.740 78.280 373.464 85.390 C 368.903 95.287,363.000 112.613,363.000 116.103 C 363.000 117.961,362.096 119.799,360.500 121.187 C 358.181 123.203,357.036 127.005,358.750 126.996 C 359.163 126.994,360.895 126.142,362.600 125.102 C 365.063 123.600,365.826 122.318,366.317 118.856 C 367.125 113.168,371.154 101.025,375.793 90.301 C 379.380 82.011,379.662 81.667,384.500 79.680 C 391.586 76.771,407.256 76.723,415.000 79.587 L 420.500 81.621 424.207 90.245 C 432.473 109.481,435.320 121.278,432.623 125.128 C 430.138 128.676,430.661 131.229,434.500 134.293 C 436.425 135.829,438.000 137.731,438.000 138.520 C 438.000 139.308,439.095 140.671,440.433 141.548 C 442.325 142.788,443.325 142.896,444.933 142.036 C 446.639 141.123,447.000 139.966,447.000 135.406 C 447.000 131.978,447.379 130.116,448.000 130.500 C 448.550 130.840,449.000 131.976,449.000 133.024 C 449.000 135.164,452.458 137.453,454.130 136.420 C 454.729 136.049,457.757 135.622,460.859 135.471 C 463.962 135.319,471.684 134.867,478.020 134.468 C 489.334 133.754,489.592 133.786,492.520 136.234 C 494.159 137.605,497.355 139.668,499.622 140.818 C 501.894 141.971,503.992 143.860,504.297 145.029 C 504.925 147.431,501.979 151.000,499.368 151.000 C 498.470 151.000,496.108 152.012,494.118 153.250 C 490.941 155.226,489.279 155.483,480.475 155.357 C 473.816 155.263,469.158 154.675,466.603 153.607 C 464.172 152.592,459.851 152.000,454.864 152.000 C 450.294 152.000,446.124 151.474,444.956 150.750 C 443.293 149.720,442.771 149.764,441.985 151.000 C 441.351 151.997,441.025 152.081,441.015 151.250 C 440.984 148.662,439.159 150.146,437.609 154.020 C 435.394 159.555,435.553 160.707,439.015 164.169 C 441.863 167.017,442.319 167.142,447.265 166.434 C 452.603 165.669,459.060 165.726,459.879 166.546 C 461.113 167.780,458.191 168.425,451.206 168.461 C 443.908 168.498,443.482 168.624,443.170 170.832 C 442.763 173.705,444.999 176.314,451.500 180.552 C 457.329 184.353,464.516 191.598,465.402 194.567 C 465.741 195.704,465.125 199.304,464.034 202.567 C 461.490 210.171,461.510 212.419,464.155 215.995 L 466.310 218.910 461.654 242.205 C 459.094 255.017,456.999 266.683,456.999 268.128 C 457.000 269.677,457.851 271.321,459.073 272.132 C 460.480 273.066,461.592 275.595,462.538 280.004 C 464.751 290.331,464.547 291.795,460.750 292.821 C 456.857 293.873,456.936 293.922,456.113 289.896 C 455.267 285.764,453.230 284.547,448.611 285.413 C 444.331 286.216,443.517 287.613,444.446 292.563 C 445.265 296.928,448.178 300.000,451.500 300.000 C 453.456 300.000,454.000 300.510,454.000 302.345 C 454.000 303.635,453.136 305.472,452.080 306.428 C 449.966 308.341,447.463 317.158,448.366 319.512 C 448.736 320.475,450.304 321.000,452.815 321.000 C 455.907 321.000,461.732 322.894,463.852 324.589 C 464.760 325.315,460.826 329.345,457.437 331.162 C 454.414 332.782,452.623 333.058,448.494 332.542 C 443.422 331.909,443.240 331.979,438.230 336.483 C 435.425 339.005,432.988 342.065,432.815 343.284 C 432.448 345.868,423.965 350.940,419.950 350.977 C 415.722 351.015,415.001 352.686,414.993 362.450 C 414.988 369.799,414.613 372.064,413.000 374.500 C 411.322 377.034,411.011 379.210,411.002 388.500 C 410.991 398.602,410.794 399.745,408.590 402.500 C 406.388 405.252,405.677 405.500,400.000 405.500 C 394.323 405.500,393.612 405.252,391.410 402.500 C 389.204 399.742,389.010 398.609,389.005 388.473 C 389.001 379.584,388.661 376.965,387.250 374.973 C 385.904 373.071,385.385 369.731,385.000 360.500 L 384.500 348.500 378.381 346.481 C 375.016 345.371,371.641 343.970,370.881 343.369 C 370.121 342.768,368.262 341.980,366.750 341.619 C 365.238 341.258,364.000 340.303,364.000 339.497 C 364.000 338.691,362.762 336.666,361.250 334.996 C 359.100 332.623,356.973 331.642,351.500 330.498 C 347.650 329.693,343.200 329.027,341.610 329.017 C 338.995 329.002,336.113 326.765,336.032 324.688 C 336.014 324.242,339.712 323.935,344.250 324.006 C 348.788 324.078,353.270 324.106,354.211 324.068 C 355.386 324.021,356.405 322.376,357.461 318.818 C 359.404 312.278,359.416 306.932,357.500 302.346 C 356.675 300.371,356.000 296.561,356.000 293.878 C 356.000 288.125,353.579 285.000,349.122 285.000 C 345.883 285.000,344.575 286.248,343.619 290.250 C 343.132 292.287,342.350 293.000,340.603 293.000 C 336.441 293.000,335.756 290.997,336.951 282.321 C 337.843 275.838,338.453 274.186,340.514 272.667 C 342.082 271.510,343.000 269.848,343.001 268.167 C 343.001 266.700,340.906 255.017,338.346 242.205 L 333.690 218.910 335.845 215.995 C 338.520 212.378,338.532 210.565,335.937 202.532 C 334.066 196.741,334.012 195.882,335.357 193.323 C 337.183 189.847,344.291 183.026,349.017 180.216 C 354.261 177.098,357.216 173.556,356.832 170.848 C 356.517 168.620,356.106 168.498,348.794 168.461 C 341.809 168.425,338.887 167.780,340.121 166.546 C 340.940 165.726,347.397 165.669,352.735 166.434 C 357.714 167.147,358.124 167.030,361.102 164.052 C 363.740 161.414,364.134 160.418,363.597 157.737 C 362.819 153.843,357.369 148.000,354.515 148.000 C 353.364 148.000,350.773 148.841,348.755 149.870 C 346.723 150.906,343.964 151.525,342.566 151.257 C 341.139 150.985,338.406 151.623,336.272 152.728 C 330.930 155.493,328.448 155.955,318.390 156.060 C 310.670 156.141,308.853 155.814,304.581 153.577 C 301.875 152.159,299.078 151.000,298.366 151.000 C 297.653 151.000,296.604 150.129,296.035 149.065 C 294.798 146.754,296.281 142.000,298.239 142.000 C 298.947 142.000,301.882 140.414,304.760 138.476 C 307.638 136.537,311.348 134.680,313.003 134.349 C 314.659 134.018,322.198 134.517,329.756 135.458 C 341.862 136.965,343.976 136.998,347.496 135.735 C 350.827 134.540,351.680 133.653,352.626 130.401 C 353.250 128.255,354.231 126.601,354.806 126.725 C 356.498 127.090,357.299 121.136,355.985 117.963 C 355.323 116.365,353.528 114.257,351.997 113.279 C 345.482 109.116,330.899 95.425,330.418 93.018 C 328.752 84.697,322.283 80.821,309.005 80.186 L 300.405 79.775 297.229 83.393 C 293.484 87.658,293.644 90.986,297.906 97.500 C 301.637 103.200,305.715 104.845,318.038 105.620 C 323.951 105.992,329.804 106.922,331.500 107.761 C 336.919 110.439,348.970 119.462,349.572 121.292 C 349.896 122.278,349.862 124.859,349.495 127.028 C 348.512 132.848,344.580 133.808,330.636 131.637 C 314.063 129.056,311.267 129.306,304.238 134.000 C 300.943 136.200,297.820 138.000,297.298 138.000 C 295.416 138.000,292.148 142.575,291.493 146.128 C 290.913 149.272,291.200 150.105,293.651 152.378 C 295.207 153.820,297.023 155.000,297.687 155.000 C 298.351 155.000,301.010 156.125,303.596 157.500 C 307.501 159.576,309.671 159.999,316.399 159.994 C 326.716 159.987,335.780 158.509,338.038 156.466 C 339.308 155.316,340.779 155.056,343.312 155.531 C 346.054 156.045,347.477 155.708,349.798 153.991 C 353.497 151.256,356.426 151.990,358.601 156.195 C 360.046 158.990,360.042 159.386,358.551 160.874 C 357.281 162.142,354.874 162.500,347.618 162.500 C 337.573 162.500,335.000 163.512,335.000 167.462 C 335.000 171.707,344.325 174.054,350.838 171.448 C 353.173 170.514,355.321 169.988,355.612 170.278 C 356.178 170.845,347.693 176.993,346.320 177.011 C 345.869 177.017,342.012 180.545,337.750 184.851 C 329.756 192.927,328.850 194.957,330.896 200.203 C 334.076 208.358,334.264 210.517,332.102 214.064 C 329.505 218.324,329.496 219.349,331.944 230.500 C 334.933 244.111,337.925 258.994,338.628 263.755 C 339.187 267.537,338.965 268.239,336.629 270.078 C 334.802 271.514,334.000 273.089,334.000 275.241 C 334.000 276.943,333.522 281.082,332.937 284.438 C 331.449 292.987,332.531 295.393,338.544 296.907 C 342.599 297.928,343.493 297.864,345.065 296.441 C 346.067 295.535,347.178 293.464,347.535 291.841 C 347.980 289.812,348.702 288.987,349.842 289.204 C 351.092 289.442,351.629 290.993,352.024 295.510 C 352.313 298.804,353.156 302.587,353.898 303.916 C 355.241 306.319,354.998 316.577,353.542 318.932 C 353.155 319.558,349.247 320.000,344.096 320.000 C 336.854 320.000,335.019 320.321,333.655 321.829 C 331.799 323.879,331.489 326.566,333.000 327.500 C 333.550 327.840,334.000 329.201,334.000 330.524 C 334.000 333.544,337.221 335.487,339.874 334.067 C 342.363 332.736,351.640 333.848,355.901 335.989 C 358.186 337.138,359.662 338.814,360.401 341.099 C 361.240 343.697,362.132 344.573,364.177 344.809 C 365.649 344.980,367.392 345.767,368.049 346.559 C 368.707 347.352,369.684 348.000,370.221 348.000 C 370.758 348.000,372.616 348.627,374.349 349.393 C 376.082 350.159,378.288 351.045,379.250 351.362 C 380.765 351.860,381.001 353.316,381.007 362.219 C 381.012 370.797,381.342 372.997,383.000 375.500 C 384.658 378.004,384.988 380.203,384.993 388.800 C 385.001 399.891,385.834 402.654,390.486 407.000 C 392.800 409.162,394.085 409.500,400.000 409.500 C 405.915 409.500,407.200 409.162,409.514 407.000 C 414.166 402.654,414.999 399.891,415.007 388.800 C 415.012 380.203,415.342 378.004,417.000 375.500 C 418.601 373.083,418.988 370.800,418.993 363.750 C 419.000 355.189,419.052 355.000,421.393 355.000 C 425.594 355.000,435.197 348.871,436.414 345.412 C 437.011 343.714,439.075 340.963,441.000 339.298 C 444.208 336.524,444.968 336.311,450.113 336.748 C 454.231 337.098,456.384 336.794,458.193 335.609 C 459.550 334.720,460.923 334.256,461.244 334.578 C 462.498 335.831,466.000 332.847,466.000 330.524 C 466.000 329.201,466.450 327.840,467.000 327.500 C 469.667 325.852,466.385 320.000,462.794 320.000 C 461.942 320.000,460.652 319.286,459.928 318.413 C 459.061 317.368,457.482 316.958,455.306 317.212 C 453.218 317.456,452.000 317.165,452.000 316.421 C 452.000 314.278,454.929 308.190,456.158 307.781 C 456.823 307.559,457.621 305.171,457.933 302.474 C 458.478 297.762,458.650 297.534,462.325 296.668 C 467.990 295.332,468.619 293.101,466.657 281.291 C 465.406 273.762,464.536 271.093,462.889 269.738 C 461.089 268.256,460.848 267.302,461.374 263.738 C 462.075 258.993,465.070 244.098,468.056 230.500 C 470.504 219.349,470.495 218.324,467.898 214.064 C 465.736 210.517,465.924 208.358,469.104 200.203 C 471.150 194.957,470.244 192.927,462.250 184.851 C 457.988 180.545,454.131 177.017,453.680 177.011 C 452.307 176.993,443.822 170.845,444.388 170.278 C 444.679 169.988,446.827 170.514,449.162 171.448 C 455.675 174.054,465.000 171.707,465.000 167.462 C 465.000 163.512,462.427 162.500,452.382 162.500 C 442.017 162.500,439.568 161.370,440.684 157.102 C 441.302 154.736,441.390 154.721,451.404 155.296 C 456.981 155.616,463.164 156.574,465.218 157.438 C 467.898 158.564,472.321 159.000,481.064 159.000 C 491.272 159.000,493.611 158.706,495.846 157.139 C 497.306 156.115,500.203 154.725,502.285 154.050 C 507.193 152.457,509.405 149.148,508.473 144.791 C 507.569 140.563,506.532 139.339,502.112 137.283 C 500.126 136.358,496.836 134.285,494.803 132.676 L 491.105 129.750 478.803 130.448 C 472.036 130.832,463.350 131.226,459.500 131.323 L 452.500 131.500 452.191 126.644 C 451.826 120.904,452.614 119.822,461.892 113.337 C 466.381 110.199,469.874 108.590,473.469 108.005 C 482.233 106.579,489.612 104.043,491.756 101.722 C 494.369 98.893,497.000 92.545,497.000 89.069 C 497.000 83.890,490.872 79.444,485.145 80.469 C 471.385 82.933,466.009 86.852,465.227 94.990 C 464.754 99.910,464.437 100.357,455.431 108.810 C 450.312 113.614,445.620 118.869,445.005 120.487 C 444.390 122.105,443.943 127.044,444.012 131.464 C 444.080 135.884,444.106 139.893,444.068 140.372 C 443.949 141.897,441.000 138.825,441.000 137.175 C 441.000 136.306,439.608 134.159,437.907 132.404 C 434.900 129.302,434.861 129.142,436.486 126.662 C 437.814 124.635,438.011 122.917,437.445 118.305 C 436.637 111.732,431.418 95.984,426.537 85.393 L 423.262 78.285 415.069 75.643 C 404.208 72.139,395.379 72.153,384.620 75.690 M320.323 86.148 C 324.356 87.448,327.000 91.032,327.000 95.200 C 327.000 96.622,328.432 98.724,330.750 100.704 L 334.500 103.907 330.586 102.861 C 328.434 102.286,325.504 102.049,324.075 102.335 C 322.646 102.621,317.942 102.240,313.620 101.490 C 304.827 99.963,302.322 98.257,299.420 91.822 L 297.585 87.754 300.043 85.756 C 302.163 84.033,303.461 83.838,309.500 84.337 C 313.350 84.656,318.220 85.471,320.323 86.148 M491.750 86.245 C 493.561 87.694,493.290 90.770,490.918 95.669 C 489.010 99.611,488.291 100.139,482.313 101.985 C 478.725 103.093,474.374 104.003,472.645 104.006 C 470.915 104.010,468.231 104.674,466.681 105.483 L 463.862 106.953 466.368 103.974 C 468.162 101.842,468.859 99.861,468.819 97.002 C 468.743 91.474,471.030 88.473,476.712 86.648 C 484.977 83.992,488.806 83.890,491.750 86.245 M452.370 291.250 C 453.233 294.472,453.137 296.000,452.071 296.000 C 450.460 296.000,448.000 292.936,448.000 290.929 C 448.000 288.156,451.612 288.422,452.370 291.250 " stroke="none" fill="#000000" fill-rule="evenodd"/></svg>