<?xml version="1.0" encoding="UTF-8" standalone="no"?>
<!-- Created with Inkscape (http://www.inkscape.org/) -->

<svg
   width="11.8in"
   height="2.5in"
   viewBox="0 0 1132.8 240"
   version="1.1"
   id="svg5"
   inkscape:version="1.2.2 (1:1.2.2+202305151914+b0a8486541)"
   sodipodi:docname="drawing.svg"
   xmlns:inkscape="http://www.inkscape.org/namespaces/inkscape"
   xmlns:sodipodi="http://sodipodi.sourceforge.net/DTD/sodipodi-0.dtd"
   xmlns="http://www.w3.org/2000/svg"
   xmlns:svg="http://www.w3.org/2000/svg">
  <sodipodi:namedview
     id="namedview7"
     pagecolor="#ffffff"
     bordercolor="#666666"
     borderopacity="1.0"
     inkscape:showpageshadow="2"
     inkscape:pageopacity="0.0"
     inkscape:pagecheckerboard="0"
     inkscape:deskcolor="#d1d1d1"
     inkscape:document-units="in"
     showgrid="false"
     inkscape:zoom="0.96568627"
     inkscape:cx="386.25381"
     inkscape:cy="408"
     inkscape:window-width="1920"
     inkscape:window-height="1043"
     inkscape:window-x="0"
     inkscape:window-y="0"
     inkscape:window-maximized="1"
     inkscape:current-layer="layer1" />
  <defs
     id="defs2">
    <rect
       x="2.8558059"
       y="1.7717322"
       width="1128.2779"
       height="237.84494"
       id="rect288" />
    <rect
       x="36.162754"
       y="75.391656"
       width="944.51936"
       height="112.84074"
       id="rect278" />
    <rect
       x="7.4469385"
       y="5.7156568"
       width="1123.9133"
       height="262.61684"
       id="rect113" />
    <rect
       x="2.8558059"
       y="1.7717322"
       width="1128.278"
       height="237.84494"
       id="rect288-6" />
  </defs>
  <g
     inkscape:label="Layer 1"
     inkscape:groupmode="layer"
     id="layer1">
    <text
       xml:space="preserve"
       id="text111"
       style="font-style:normal;font-weight:normal;font-size:66.9629px;line-height:0;font-family:sans-serif;white-space:pre;shape-inside:url(#rect113);display:inline;fill:#000000;fill-opacity:1;stroke:none"
       x="381.26572"
       y="0"
       transform="matrix(1.1953264,0,0,1.3585721,-112.23991,34.867391)" />
    <text
       xml:space="preserve"
       id="text276"
       style="font-style:normal;font-variant:normal;font-weight:normal;font-stretch:normal;font-size:74.6667px;line-height:1.7;font-family:Love;-inkscape-font-specification:Love;white-space:pre;shape-inside:url(#rect278);display:inline;fill:#000000;fill-opacity:1;stroke:none"
       x="280.38852"
       y="0"><tspan
         x="36.162109"
         y="265.15823"
         id="tspan472"><tspan
           dx="0 40.959961 46.144043 81.343994 53.440063 16.063965 33.791992 53.504028 16.063965 40.959961 46.144043 81.343994"
           style="font-size:64px;text-align:center;text-anchor:middle"
           id="tspan470">LEAD IS LEAD</tspan></tspan></text>
    <g
       aria-label="
Lead is Lead"
       transform="translate(-259.68821,-23.877934)"
       id="text286"
       style="font-size:85.3333px;line-height:1.15;white-space:pre;shape-inside:url(#rect288);display:inline">
      <path
         d="m 435.36759,185.96294 c -7.08266,-1.28 -14.84799,-0.85333 -21.84532,0.34133 -2.304,0.42667 -4.608,0.93867 -6.912,1.62134 -0.512,-5.46134 -1.45067,-10.92267 -1.96267,-16.29866 -0.34133,-3.41334 -0.59733,-6.82667 -0.768,-10.24 3.66934,-1.45067 6.912,-3.92533 9.64267,-6.82666 8.78933,-9.55733 13.14132,-23.21066 13.99466,-36.01066 0.34133,-5.37599 0.768,-12.28799 -2.38934,-16.98132 -3.32799,-5.034666 -10.49599,-5.802666 -14.67732,-1.45067 -4.52267,4.608 -6.912,11.69066 -8.78933,17.74933 -2.21867,6.656 -3.49867,13.48266 -4.26667,20.47999 -0.768,7.33866 -0.85333,14.67733 -0.512,22.10132 -4.26666,0.17067 -8.36266,-1.28 -11.60533,-4.35199 -1.10933,-1.024 -2.81599,-0.34134 -1.53599,1.024 3.58399,3.49866 8.36266,5.46133 13.22666,5.46133 0,0.256 0.0853,0.512 0.0853,0.768 0.512,8.61866 1.024,17.49332 2.90133,25.94132 0.0853,0.256 0.17067,0.512 0.34134,0.768 -2.73067,1.024 -5.46134,2.304 -7.68,4.096 -1.96267,1.536 2.47466,3.92533 3.584,2.90133 3.15733,-1.19467 6.05866,-2.816 9.21599,-3.92533 3.41334,-1.19467 6.82667,-2.13334 10.32533,-2.73067 3.41333,-0.68267 6.82667,-0.93867 10.24,-0.93867 3.584,0 6.99733,0.59734 10.49599,1.28 1.28,0.256 2.73067,-0.256 2.47467,-1.79199 -0.256,-1.45067 -2.21867,-2.73067 -3.584,-2.98667 z m -26.36799,-70.9973 c 1.62133,-4.864 3.75467,-11.776 8.96,-13.824 6.22933,-2.38933 6.74133,8.02133 6.82666,11.69066 0.17067,11.776 -2.816,23.72266 -9.04533,33.79199 -2.98666,4.77866 -6.91199,9.38666 -12.03199,11.94666 -0.0853,-2.21866 -0.0853,-4.43733 -0.0853,-6.656 0,-12.45866 1.28,-25.17332 5.376,-36.94931 z"
         style="font-family:Love;-inkscape-font-specification:Love;text-align:center;text-anchor:middle"
         id="path394" />
      <path
         d="m 458.8342,155.66962 c -2.56,4.77866 -5.29067,9.55733 -8.53333,13.99466 -1.87734,2.56 -3.92534,5.12 -6.4,7.168 -0.93867,0.768 -2.13333,1.536 -3.328,1.792 -0.42667,0 -0.85333,0 -1.28,-0.0853 0.17067,0 0,0 -0.17067,0 0,0 0,0 0,0 0,0 0,0 0,0 -0.256,0 -0.59733,-0.0853 -0.34133,-0.0853 0.17067,-0.0853 0.17067,-0.0853 0.256,0 -0.17067,-0.42667 -0.256,-0.93867 -0.34133,-1.36533 -0.34134,-1.28 -0.59734,-2.56 -0.768,-3.92533 -0.0853,-2.47467 0.17066,-5.03467 0.59733,-7.50934 0.34133,-0.0853 0.68267,-0.17066 1.024,-0.25599 4.43733,-1.36534 8.27733,-5.12 10.24,-9.38667 0.68266,-1.536 1.70666,-4.01066 1.36533,-5.71733 -0.34133,-1.96266 -2.304,-3.328 -3.92533,-4.01066 -4.52267,-1.87734 -8.87467,0.93866 -11.52,4.52266 -2.38933,3.24267 -3.84,7.33866 -4.69333,11.264 -0.768,3.92533 -1.28,8.27733 -0.256,12.11732 1.024,3.84 4.18133,7.424 8.27733,8.10667 2.98667,0.42666 5.97333,-2.38933 8.02133,-4.352 6.05866,-5.71733 10.41066,-13.48266 14.25066,-20.82132 0.59733,-1.024 -1.87733,-2.56 -2.47466,-1.45067 z m -16.896,-0.256 c 0.59734,-0.93867 1.19467,-1.87733 2.048,-2.73067 0.512,-0.512 1.024,-1.024 1.70667,-1.36533 0.17066,-0.17067 1.28,-0.512 1.792,-0.68267 0.17066,1.10934 0.0853,1.87734 -0.42667,3.072 -0.85333,2.21867 -2.21867,4.26667 -3.92533,5.97333 -1.10933,1.10934 -2.47467,2.13334 -3.92533,2.816 0.59733,-2.47466 1.45066,-4.864 2.73066,-7.08266 z"
         style="font-family:Love;-inkscape-font-specification:Love;text-align:center;text-anchor:middle"
         id="path396" />
      <path
         d="m 489.29824,154.90162 c -0.93867,3.584 -1.96267,7.08266 -3.15733,10.58133 -1.36534,3.92533 -2.90134,8.61866 -5.97333,11.60533 -0.512,0.512 -1.024,0.85333 -1.792,1.10933 -0.0853,0 -0.256,0.0853 -0.42667,0.0853 -0.0853,0 -0.256,-0.0853 -0.34133,-0.0853 0,-0.0853 0,-0.17067 -0.0853,-0.256 -0.256,-0.768 -0.512,-1.536 -0.68266,-2.38933 -1.024,-4.18133 -1.024,-8.53333 -0.93867,-12.8 0.0853,-2.38933 0.34133,-4.864 0.42667,-7.25333 0.17066,-1.87733 0.42666,-3.75466 0,-5.54666 -0.256,-1.536 -3.92533,-4.01067 -5.03467,-2.048 -0.256,0.512 -0.512,1.024 -0.59733,1.536 -0.42667,-0.34133 -0.85333,-0.68267 -1.36533,-0.93867 -2.56,-1.536 -5.888,-1.70666 -8.27733,0.0853 -4.52267,3.41333 -5.80267,10.32532 -6.57067,15.44532 -0.68266,5.20533 -1.10933,11.43466 4.352,14.25066 2.56,1.36534 4.43733,0.0853 5.632,-2.304 1.024,-2.304 1.96266,-4.60799 2.816,-6.91199 0.768,-1.96267 1.36533,-3.84 2.048,-5.80267 -0.0853,4.096 0.0853,8.36267 1.536,12.11733 1.36533,3.584 5.97333,8.192 9.89866,5.54667 3.328,-2.304 5.29066,-7.168 6.656,-10.752 1.87733,-4.608 3.24266,-9.472 4.43733,-14.25066 0.256,-1.10933 -2.304,-2.304 -2.56,-1.024 z m -23.38133,9.81333 c -0.85333,2.47466 -1.70666,4.94933 -2.90133,7.33866 -0.34133,0.85334 -0.768,1.792 -1.36533,2.47467 -0.0853,0.0853 -0.0853,0.17066 -0.17067,0.256 -0.0853,-1.19467 0,-2.38933 0,-3.584 0.17067,-3.41333 0.68267,-6.912 1.536,-10.24 0.68267,-2.816 1.45067,-5.88799 3.24267,-8.19199 0.68266,-0.93867 1.28,-1.45067 2.38933,-1.36534 0.17067,0 0.17067,0 0.256,-0.0853 0,0.0853 0.0853,0.0853 0.17067,0.17067 0.34133,0.256 0.59733,0.512 0.85333,0.768 -1.28,4.18133 -2.56,8.36266 -4.01067,12.45866 z"
         style="font-family:Love;-inkscape-font-specification:Love;text-align:center;text-anchor:middle"
         id="path398" />
      <path
         d="m 526.41816,155.32829 c -2.56,8.53333 -5.376,17.40799 -10.24,25.00265 -1.45066,2.304 -4.35199,6.31467 -7.25333,5.376 -0.0853,-0.0853 -0.17066,-0.17067 -0.17066,-0.256 0,0 0,-0.0853 0,-0.17067 -0.0853,-0.256 -0.0853,-0.512 -0.17067,-0.68266 0,-0.17067 0,-0.42667 0,-0.59734 0,-0.0853 -0.0853,-0.59733 -0.0853,-0.768 0,-0.768 0.0853,-1.536 0.0853,-2.30399 0.34133,-5.54667 0.68267,-11.09333 1.28,-16.64 0.59733,-5.29066 1.36533,-10.49599 2.13333,-15.78666 0.512,-3.328 1.10933,-6.656 1.70667,-9.98399 0.68266,-4.01067 1.62133,-8.10667 1.70666,-12.11733 0,-1.45067 -1.28,-2.64533 -2.47466,-3.24267 -0.85333,-0.42666 -3.15733,-1.10933 -3.66933,0.17067 -1.36534,3.49866 -2.048,7.25333 -2.73067,10.92266 -0.59733,3.24267 -1.19467,6.57067 -1.792,9.81333 -0.42666,2.38933 -0.768,4.864 -1.10933,7.25333 -0.512,-0.59733 -1.10933,-1.19467 -1.87733,-1.62133 -2.73067,-1.62133 -6.31467,-1.96267 -8.96,0.256 -4.69333,3.84 -6.31466,11.09333 -7.33866,16.72532 -1.024,5.632 -2.048,13.568 4.52266,16.29866 2.73067,1.10934 4.43733,-1.024 5.54667,-3.24266 1.28,-2.47467 2.30399,-4.94933 3.32799,-7.59466 1.10934,-2.816 2.13334,-5.71734 3.15734,-8.61867 -0.512,5.20533 -0.93867,10.496 0.0853,15.53066 0.512,2.64533 1.28,5.71733 2.98666,7.85067 0.68267,0.85333 1.62134,1.62133 2.73067,2.048 3.072,1.27999 6.22933,-1.36534 8.192,-3.49867 3.584,-4.01066 5.88799,-9.216 7.93599,-14.16533 1.96267,-4.864 3.66934,-9.89866 5.20533,-14.93332 0.256,-1.024 -2.30399,-2.304 -2.73066,-1.024 z m -28.84266,12.37332 c -1.02399,2.73067 -2.13333,5.54667 -3.41333,8.192 -0.42666,0.93867 -0.93866,1.96267 -1.536,2.816 -0.17066,0.256 -0.42666,0.42667 -0.59733,0.68267 0,-0.256 0,-0.512 0,-0.68267 0,-1.45067 0.0853,-2.90133 0.17067,-4.43733 0.34133,-3.84 1.10933,-7.76533 2.13333,-11.52 0.93867,-3.072 1.96267,-6.48533 4.01066,-9.04533 0.68267,-0.768 1.536,-1.536 2.64534,-1.10933 0.59733,0.17067 1.10933,0.768 1.36533,1.36533 -1.45067,4.608 -3.072,9.216 -4.77867,13.73866 z m 10.752,17.83466 c -0.17067,-0.0853 -0.0853,-0.0853 0,0 z"
         style="font-family:Love;-inkscape-font-specification:Love;text-align:center;text-anchor:middle"
         id="path400" />
      <path
         d="m 565.5008,153.02429 c -1.19467,3.84 -2.56,7.76533 -4.01067,11.51999 -1.536,3.84 -3.15733,8.192 -5.97333,11.17866 -0.512,0.59734 -1.10933,1.19467 -1.87733,1.36534 -0.17067,0.0853 -0.59733,0.0853 -1.024,0.0853 -0.0853,-0.34133 -0.256,-0.93867 -0.34133,-1.45067 -0.85334,-3.83999 -0.768,-7.76533 -0.512,-11.60532 0.256,-4.01067 1.19466,-8.02133 0.59733,-12.032 -0.17067,-1.536 -3.75466,-3.66933 -4.77866,-1.87733 -2.048,3.24266 -2.13334,7.76533 -2.47467,11.51999 -0.42667,4.52267 -0.768,9.89867 1.28,14.08 0.93867,1.96266 2.47466,3.66933 4.352,4.608 1.70666,0.85333 4.352,1.45066 5.54666,-0.34134 2.38933,-3.49866 4.608,-6.99733 6.31467,-10.92266 2.13333,-4.94933 3.83999,-10.06933 5.37599,-15.18933 0.34134,-0.93866 -2.13333,-2.21866 -2.47466,-0.93866 z m -12.20266,-5.80267 c 0.42666,-0.42666 0.42666,-1.28 0.59733,-1.87733 0.0853,-0.512 0.256,-1.10933 0.256,-1.62133 -0.0853,-1.536 -1.19467,-2.64533 -2.56,-3.328 -0.93867,-0.512 -2.98666,-1.024 -3.66933,0.256 -0.34133,0.59733 -0.42667,1.28 -0.59733,1.96266 -0.17067,0.768 -0.34134,1.36534 -0.17067,2.21867 0.512,2.13333 4.352,4.352 6.144,2.38933 z"
         style="font-family:Love;-inkscape-font-specification:Love;text-align:center;text-anchor:middle"
         id="path402" />
      <path
         d="m 587.94348,154.47495 c -6.14399,2.90134 -11.60533,6.99733 -15.95732,12.20266 -2.13334,-3.66933 -2.98667,-8.02133 -2.47467,-12.28799 0.256,-2.21867 0.85333,-4.608 1.96267,-6.656 0.42666,-0.85333 1.19466,-2.13333 2.38933,-1.96266 1.28,0.256 1.96266,2.56 2.38933,3.49866 0.34133,0.85333 2.90133,1.536 2.38933,0.256 -1.28,-3.66933 -3.072,-7.168 -7.42399,-7.68 -4.352,-0.51199 -6.99733,3.66934 -8.192,7.25334 -1.28,4.01066 -1.45067,8.27733 -0.256,12.28799 1.10933,4.01067 3.328,6.99733 5.632,10.24 -2.64533,4.18133 -4.608,9.13066 -4.69333,14.07999 -0.0853,2.90133 0.42666,6.31466 2.98666,8.192 3.15733,2.304 7.50933,1.28 9.89866,-1.536 2.816,-3.24267 3.584,-8.10667 2.816,-12.20266 -0.768,-4.26667 -3.328,-7.68 -5.80266,-11.09333 4.352,-5.46133 10.06933,-9.81333 16.38399,-12.8 1.024,-0.512 -1.10933,-2.21866 -2.048,-1.792 z m -15.87199,30.80532 c -0.256,1.87734 -0.68267,4.096 -1.87733,5.632 -0.34134,0.42667 -1.19467,1.536 -1.87734,1.62133 -1.024,0.0853 -1.45066,-1.45066 -1.62133,-2.21866 -1.45066,-5.46133 0.59733,-11.264 3.41333,-16.128 1.96267,3.328 2.47467,7.25334 1.96267,11.09333 z"
         style="font-family:Love;-inkscape-font-specification:Love;text-align:center;text-anchor:middle"
         id="path404" />
      <path
         d="m 663.97541,185.96294 c -7.08266,-1.28 -14.84799,-0.85333 -21.84532,0.34133 -2.304,0.42667 -4.608,0.93867 -6.912,1.62134 -0.512,-5.46134 -1.45067,-10.92267 -1.96267,-16.29866 -0.34133,-3.41334 -0.59733,-6.82667 -0.768,-10.24 3.66933,-1.45067 6.912,-3.92533 9.64267,-6.82666 8.78932,-9.55733 13.14132,-23.21066 13.99466,-36.01066 0.34133,-5.37599 0.768,-12.28799 -2.38934,-16.98132 -3.328,-5.034666 -10.49599,-5.802666 -14.67732,-1.45067 -4.52267,4.608 -6.912,11.69066 -8.78933,17.74933 -2.21867,6.656 -3.49867,13.48266 -4.26667,20.47999 -0.768,7.33866 -0.85333,14.67733 -0.512,22.10132 -4.26666,0.17067 -8.36266,-1.28 -11.60533,-4.35199 -1.10933,-1.024 -2.816,-0.34134 -1.536,1.024 3.584,3.49866 8.36267,5.46133 13.22667,5.46133 0,0.256 0.0853,0.512 0.0853,0.768 0.512,8.61866 1.024,17.49332 2.90133,25.94132 0.0853,0.256 0.17067,0.512 0.34133,0.768 -2.73066,1.024 -5.46133,2.304 -7.67999,4.096 -1.96267,1.536 2.47466,3.92533 3.584,2.90133 3.15733,-1.19467 6.05866,-2.816 9.21599,-3.92533 3.41333,-1.19467 6.82667,-2.13334 10.32533,-2.73067 3.41333,-0.68267 6.82666,-0.93867 10.24,-0.93867 3.584,0 6.99733,0.59734 10.49599,1.28 1.28,0.256 2.73067,-0.256 2.47467,-1.79199 -0.256,-1.45067 -2.21867,-2.73067 -3.584,-2.98667 z m -26.36799,-70.9973 c 1.62133,-4.864 3.75467,-11.776 8.96,-13.824 6.22933,-2.38933 6.74133,8.02133 6.82666,11.69066 0.17067,11.776 -2.816,23.72266 -9.04533,33.79199 -2.98666,4.77866 -6.912,9.38666 -12.03199,11.94666 -0.0853,-2.21866 -0.0853,-4.43733 -0.0853,-6.656 0,-12.45866 1.28,-25.17332 5.376,-36.94931 z"
         style="font-family:Love;-inkscape-font-specification:Love;text-align:center;text-anchor:middle"
         id="path406" />
      <path
         d="m 687.44201,155.66962 c -2.56,4.77866 -5.29067,9.55733 -8.53333,13.99466 -1.87734,2.56 -3.92534,5.12 -6.4,7.168 -0.93867,0.768 -2.13333,1.536 -3.328,1.792 -0.42667,0 -0.85333,0 -1.28,-0.0853 0.17067,0 0,0 -0.17067,0 0,0 0,0 0,0 0,0 0,0 0,0 -0.256,0 -0.59733,-0.0853 -0.34133,-0.0853 0.17067,-0.0853 0.17067,-0.0853 0.256,0 -0.17067,-0.42667 -0.256,-0.93867 -0.34133,-1.36533 -0.34134,-1.28 -0.59733,-2.56 -0.768,-3.92533 -0.0853,-2.47467 0.17067,-5.03467 0.59733,-7.50934 0.34133,-0.0853 0.68267,-0.17066 1.024,-0.25599 4.43733,-1.36534 8.27733,-5.12 10.24,-9.38667 0.68266,-1.536 1.70666,-4.01066 1.36533,-5.71733 -0.34133,-1.96266 -2.304,-3.328 -3.92533,-4.01066 -4.52267,-1.87734 -8.87467,0.93866 -11.52,4.52266 -2.38933,3.24267 -3.84,7.33866 -4.69333,11.264 -0.768,3.92533 -1.28,8.27733 -0.256,12.11732 1.024,3.84 4.18133,7.424 8.27733,8.10667 2.98667,0.42666 5.97333,-2.38933 8.02133,-4.352 6.05867,-5.71733 10.41066,-13.48266 14.25066,-20.82132 0.59734,-1.024 -1.87733,-2.56 -2.47466,-1.45067 z m -16.896,-0.256 c 0.59734,-0.93867 1.19467,-1.87733 2.048,-2.73067 0.512,-0.512 1.024,-1.024 1.70667,-1.36533 0.17067,-0.17067 1.28,-0.512 1.792,-0.68267 0.17066,1.10934 0.0853,1.87734 -0.42667,3.072 -0.85333,2.21867 -2.21866,4.26667 -3.92533,5.97333 -1.10933,1.10934 -2.47467,2.13334 -3.92533,2.816 0.59733,-2.47466 1.45066,-4.864 2.73066,-7.08266 z"
         style="font-family:Love;-inkscape-font-specification:Love;text-align:center;text-anchor:middle"
         id="path408" />
      <path
         d="m 717.90604,154.90162 c -0.93866,3.584 -1.96266,7.08266 -3.15733,10.58133 -1.36533,3.92533 -2.90133,8.61866 -5.97333,11.60533 -0.512,0.512 -1.024,0.85333 -1.792,1.10933 -0.0853,0 -0.256,0.0853 -0.42667,0.0853 -0.0853,0 -0.256,-0.0853 -0.34133,-0.0853 0,-0.0853 0,-0.17067 -0.0853,-0.256 -0.256,-0.768 -0.512,-1.536 -0.68267,-2.38933 -1.024,-4.18133 -1.024,-8.53333 -0.93867,-12.8 0.0853,-2.38933 0.34134,-4.864 0.42667,-7.25333 0.17067,-1.87733 0.42667,-3.75466 0,-5.54666 -0.256,-1.536 -3.92533,-4.01067 -5.03466,-2.048 -0.256,0.512 -0.512,1.024 -0.59734,1.536 -0.42666,-0.34133 -0.85333,-0.68267 -1.36533,-0.93867 -2.56,-1.536 -5.888,-1.70666 -8.27733,0.0853 -4.52266,3.41333 -5.80266,10.32532 -6.57066,15.44532 -0.68267,5.20533 -1.10934,11.43466 4.35199,14.25066 2.56,1.36534 4.43734,0.0853 5.632,-2.304 1.024,-2.304 1.96267,-4.60799 2.816,-6.91199 0.768,-1.96267 1.36533,-3.84 2.048,-5.80267 -0.0853,4.096 0.0853,8.36267 1.536,12.11733 1.36533,3.584 5.97333,8.192 9.89866,5.54667 3.328,-2.304 5.29067,-7.168 6.656,-10.752 1.87733,-4.608 3.24266,-9.472 4.43733,-14.25066 0.256,-1.10933 -2.304,-2.304 -2.56,-1.024 z m -23.38132,9.81333 c -0.85333,2.47466 -1.70667,4.94933 -2.90133,7.33866 -0.34134,0.85334 -0.768,1.792 -1.36534,2.47467 -0.0853,0.0853 -0.0853,0.17066 -0.17066,0.256 -0.0853,-1.19467 0,-2.38933 0,-3.584 0.17066,-3.41333 0.68266,-6.912 1.536,-10.24 0.68266,-2.816 1.45066,-5.88799 3.24266,-8.19199 0.68267,-0.93867 1.28,-1.45067 2.38933,-1.36534 0.17067,0 0.17067,0 0.256,-0.0853 0,0.0853 0.0853,0.0853 0.17067,0.17067 0.34133,0.256 0.59733,0.512 0.85333,0.768 -1.28,4.18133 -2.56,8.36266 -4.01066,12.45866 z"
         style="font-family:Love;-inkscape-font-specification:Love;text-align:center;text-anchor:middle"
         id="path410" />
      <path
         d="m 755.02599,155.32829 c -2.56,8.53333 -5.376,17.40799 -10.24,25.00265 -1.45067,2.304 -4.352,6.31467 -7.25333,5.376 -0.0853,-0.0853 -0.17067,-0.17067 -0.17067,-0.256 0,0 0,-0.0853 0,-0.17067 -0.0853,-0.256 -0.0853,-0.512 -0.17066,-0.68266 0,-0.17067 0,-0.42667 0,-0.59734 0,-0.0853 -0.0853,-0.59733 -0.0853,-0.768 0,-0.768 0.0853,-1.536 0.0853,-2.30399 0.34133,-5.54667 0.68266,-11.09333 1.28,-16.64 0.59733,-5.29066 1.36533,-10.49599 2.13333,-15.78666 0.512,-3.328 1.10933,-6.656 1.70666,-9.98399 0.68267,-4.01067 1.62134,-8.10667 1.70667,-12.11733 0,-1.45067 -1.28,-2.64533 -2.47467,-3.24267 -0.85333,-0.42666 -3.15733,-1.10933 -3.66933,0.17067 -1.36533,3.49866 -2.048,7.25333 -2.73066,10.92266 -0.59734,3.24267 -1.19467,6.57067 -1.792,9.81333 -0.42667,2.38933 -0.768,4.864 -1.10933,7.25333 -0.512,-0.59733 -1.10934,-1.19467 -1.87734,-1.62133 -2.73066,-1.62133 -6.31466,-1.96267 -8.95999,0.256 -4.69334,3.84 -6.31467,11.09333 -7.33867,16.72532 -1.024,5.632 -2.048,13.568 4.52267,16.29866 2.73066,1.10934 4.43733,-1.024 5.54666,-3.24266 1.28,-2.47467 2.304,-4.94933 3.328,-7.59466 1.10933,-2.816 2.13333,-5.71734 3.15733,-8.61867 -0.512,5.20533 -0.93866,10.496 0.0853,15.53066 0.512,2.64533 1.28,5.71733 2.98666,7.85067 0.68267,0.85333 1.62133,1.62133 2.73067,2.048 3.072,1.27999 6.22933,-1.36534 8.19199,-3.49867 3.584,-4.01066 5.888,-9.216 7.936,-14.16533 1.96267,-4.864 3.66933,-9.89866 5.20533,-14.93332 0.256,-1.024 -2.304,-2.304 -2.73066,-1.024 z m -28.84266,12.37332 c -1.024,2.73067 -2.13333,5.54667 -3.41333,8.192 -0.42667,0.93867 -0.93867,1.96267 -1.536,2.816 -0.17067,0.256 -0.42667,0.42667 -0.59733,0.68267 0,-0.256 0,-0.512 0,-0.68267 0,-1.45067 0.0853,-2.90133 0.17066,-4.43733 0.34134,-3.84 1.10934,-7.76533 2.13334,-11.52 0.93866,-3.072 1.96266,-6.48533 4.01066,-9.04533 0.68267,-0.768 1.536,-1.536 2.64533,-1.10933 0.59734,0.17067 1.10934,0.768 1.36534,1.36533 -1.45067,4.608 -3.072,9.216 -4.77867,13.73866 z m 10.752,17.83466 c -0.17067,-0.0853 -0.0853,-0.0853 0,0 z"
         style="font-family:Love;-inkscape-font-specification:Love;text-align:center;text-anchor:middle"
         id="path412" />
    </g>
    <g
       aria-label="
Lead is Lead"
       transform="translate(269.78907,-13.522958)"
       id="text286-4"
       style="font-size:85.3333px;line-height:1.15;white-space:pre;shape-inside:url(#rect288-6);display:inline">
      <path
         d="m 435.36759,185.96294 c -7.08266,-1.28 -14.84799,-0.85333 -21.84532,0.34133 -2.304,0.42667 -4.608,0.93867 -6.912,1.62134 -0.512,-5.46134 -1.45067,-10.92267 -1.96267,-16.29866 -0.34133,-3.41334 -0.59733,-6.82667 -0.768,-10.24 3.66934,-1.45067 6.912,-3.92533 9.64267,-6.82666 8.78933,-9.55733 13.14132,-23.21066 13.99466,-36.01066 0.34133,-5.37599 0.768,-12.28799 -2.38934,-16.98132 -3.32799,-5.034666 -10.49599,-5.802666 -14.67732,-1.45067 -4.52267,4.608 -6.912,11.69066 -8.78933,17.74933 -2.21867,6.656 -3.49867,13.48266 -4.26667,20.47999 -0.768,7.33866 -0.85333,14.67733 -0.512,22.10132 -4.26666,0.17067 -8.36266,-1.28 -11.60533,-4.35199 -1.10933,-1.024 -2.81599,-0.34134 -1.53599,1.024 3.58399,3.49866 8.36266,5.46133 13.22666,5.46133 0,0.256 0.0853,0.512 0.0853,0.768 0.512,8.61866 1.024,17.49332 2.90133,25.94132 0.0853,0.256 0.17067,0.512 0.34134,0.768 -2.73067,1.024 -5.46134,2.304 -7.68,4.096 -1.96267,1.536 2.47466,3.92533 3.584,2.90133 3.15733,-1.19467 6.05866,-2.816 9.21599,-3.92533 3.41334,-1.19467 6.82667,-2.13334 10.32533,-2.73067 3.41333,-0.68267 6.82667,-0.93867 10.24,-0.93867 3.584,0 6.99733,0.59734 10.49599,1.28 1.28,0.256 2.73067,-0.256 2.47467,-1.79199 -0.256,-1.45067 -2.21867,-2.73067 -3.584,-2.98667 z m -26.36799,-70.9973 c 1.62133,-4.864 3.75467,-11.776 8.96,-13.824 6.22933,-2.38933 6.74133,8.02133 6.82666,11.69066 0.17067,11.776 -2.816,23.72266 -9.04533,33.79199 -2.98666,4.77866 -6.91199,9.38666 -12.03199,11.94666 -0.0853,-2.21866 -0.0853,-4.43733 -0.0853,-6.656 0,-12.45866 1.28,-25.17332 5.376,-36.94931 z"
         style="font-family:Love;-inkscape-font-specification:Love;text-align:center;text-anchor:middle"
         id="path415" />
      <path
         d="m 458.8342,155.66962 c -2.56,4.77866 -5.29067,9.55733 -8.53333,13.99466 -1.87734,2.56 -3.92534,5.12 -6.4,7.168 -0.93867,0.768 -2.13333,1.536 -3.328,1.792 -0.42667,0 -0.85333,0 -1.28,-0.0853 0.17067,0 0,0 -0.17067,0 0,0 0,0 0,0 0,0 0,0 0,0 -0.256,0 -0.59733,-0.0853 -0.34133,-0.0853 0.17067,-0.0853 0.17067,-0.0853 0.256,0 -0.17067,-0.42667 -0.256,-0.93867 -0.34133,-1.36533 -0.34134,-1.28 -0.59734,-2.56 -0.768,-3.92533 -0.0853,-2.47467 0.17066,-5.03467 0.59733,-7.50934 0.34133,-0.0853 0.68267,-0.17066 1.024,-0.25599 4.43733,-1.36534 8.27733,-5.12 10.24,-9.38667 0.68266,-1.536 1.70666,-4.01066 1.36533,-5.71733 -0.34133,-1.96266 -2.304,-3.328 -3.92533,-4.01066 -4.52267,-1.87734 -8.87467,0.93866 -11.52,4.52266 -2.38933,3.24267 -3.84,7.33866 -4.69333,11.264 -0.768,3.92533 -1.28,8.27733 -0.256,12.11732 1.024,3.84 4.18133,7.424 8.27733,8.10667 2.98667,0.42666 5.97333,-2.38933 8.02133,-4.352 6.05866,-5.71733 10.41066,-13.48266 14.25066,-20.82132 0.59733,-1.024 -1.87733,-2.56 -2.47466,-1.45067 z m -16.896,-0.256 c 0.59734,-0.93867 1.19467,-1.87733 2.048,-2.73067 0.512,-0.512 1.024,-1.024 1.70667,-1.36533 0.17066,-0.17067 1.28,-0.512 1.792,-0.68267 0.17066,1.10934 0.0853,1.87734 -0.42667,3.072 -0.85333,2.21867 -2.21867,4.26667 -3.92533,5.97333 -1.10933,1.10934 -2.47467,2.13334 -3.92533,2.816 0.59733,-2.47466 1.45066,-4.864 2.73066,-7.08266 z"
         style="font-family:Love;-inkscape-font-specification:Love;text-align:center;text-anchor:middle"
         id="path417" />
      <path
         d="m 489.29824,154.90162 c -0.93867,3.584 -1.96267,7.08266 -3.15733,10.58133 -1.36534,3.92533 -2.90134,8.61866 -5.97333,11.60533 -0.512,0.512 -1.024,0.85333 -1.792,1.10933 -0.0853,0 -0.256,0.0853 -0.42667,0.0853 -0.0853,0 -0.256,-0.0853 -0.34133,-0.0853 0,-0.0853 0,-0.17067 -0.0853,-0.256 -0.256,-0.768 -0.512,-1.536 -0.68266,-2.38933 -1.024,-4.18133 -1.024,-8.53333 -0.93867,-12.8 0.0853,-2.38933 0.34133,-4.864 0.42667,-7.25333 0.17066,-1.87733 0.42666,-3.75466 0,-5.54666 -0.256,-1.536 -3.92533,-4.01067 -5.03467,-2.048 -0.256,0.512 -0.512,1.024 -0.59733,1.536 -0.42667,-0.34133 -0.85333,-0.68267 -1.36533,-0.93867 -2.56,-1.536 -5.888,-1.70666 -8.27733,0.0853 -4.52267,3.41333 -5.80267,10.32532 -6.57067,15.44532 -0.68266,5.20533 -1.10933,11.43466 4.352,14.25066 2.56,1.36534 4.43733,0.0853 5.632,-2.304 1.024,-2.304 1.96266,-4.60799 2.816,-6.91199 0.768,-1.96267 1.36533,-3.84 2.048,-5.80267 -0.0853,4.096 0.0853,8.36267 1.536,12.11733 1.36533,3.584 5.97333,8.192 9.89866,5.54667 3.328,-2.304 5.29066,-7.168 6.656,-10.752 1.87733,-4.608 3.24266,-9.472 4.43733,-14.25066 0.256,-1.10933 -2.304,-2.304 -2.56,-1.024 z m -23.38133,9.81333 c -0.85333,2.47466 -1.70666,4.94933 -2.90133,7.33866 -0.34133,0.85334 -0.768,1.792 -1.36533,2.47467 -0.0853,0.0853 -0.0853,0.17066 -0.17067,0.256 -0.0853,-1.19467 0,-2.38933 0,-3.584 0.17067,-3.41333 0.68267,-6.912 1.536,-10.24 0.68267,-2.816 1.45067,-5.88799 3.24267,-8.19199 0.68266,-0.93867 1.28,-1.45067 2.38933,-1.36534 0.17067,0 0.17067,0 0.256,-0.0853 0,0.0853 0.0853,0.0853 0.17067,0.17067 0.34133,0.256 0.59733,0.512 0.85333,0.768 -1.28,4.18133 -2.56,8.36266 -4.01067,12.45866 z"
         style="font-family:Love;-inkscape-font-specification:Love;text-align:center;text-anchor:middle"
         id="path419" />
      <path
         d="m 526.41816,155.32829 c -2.56,8.53333 -5.376,17.40799 -10.24,25.00265 -1.45066,2.304 -4.35199,6.31467 -7.25333,5.376 -0.0853,-0.0853 -0.17066,-0.17067 -0.17066,-0.256 0,0 0,-0.0853 0,-0.17067 -0.0853,-0.256 -0.0853,-0.512 -0.17067,-0.68266 0,-0.17067 0,-0.42667 0,-0.59734 0,-0.0853 -0.0853,-0.59733 -0.0853,-0.768 0,-0.768 0.0853,-1.536 0.0853,-2.30399 0.34133,-5.54667 0.68267,-11.09333 1.28,-16.64 0.59733,-5.29066 1.36533,-10.49599 2.13333,-15.78666 0.512,-3.328 1.10933,-6.656 1.70667,-9.98399 0.68266,-4.01067 1.62133,-8.10667 1.70666,-12.11733 0,-1.45067 -1.28,-2.64533 -2.47466,-3.24267 -0.85333,-0.42666 -3.15733,-1.10933 -3.66933,0.17067 -1.36534,3.49866 -2.048,7.25333 -2.73067,10.92266 -0.59733,3.24267 -1.19467,6.57067 -1.792,9.81333 -0.42666,2.38933 -0.768,4.864 -1.10933,7.25333 -0.512,-0.59733 -1.10933,-1.19467 -1.87733,-1.62133 -2.73067,-1.62133 -6.31467,-1.96267 -8.96,0.256 -4.69333,3.84 -6.31466,11.09333 -7.33866,16.72532 -1.024,5.632 -2.048,13.568 4.52266,16.29866 2.73067,1.10934 4.43733,-1.024 5.54667,-3.24266 1.28,-2.47467 2.30399,-4.94933 3.32799,-7.59466 1.10934,-2.816 2.13334,-5.71734 3.15734,-8.61867 -0.512,5.20533 -0.93867,10.496 0.0853,15.53066 0.512,2.64533 1.28,5.71733 2.98666,7.85067 0.68267,0.85333 1.62134,1.62133 2.73067,2.048 3.072,1.27999 6.22933,-1.36534 8.192,-3.49867 3.584,-4.01066 5.88799,-9.216 7.93599,-14.16533 1.96267,-4.864 3.66934,-9.89866 5.20533,-14.93332 0.256,-1.024 -2.30399,-2.304 -2.73066,-1.024 z m -28.84266,12.37332 c -1.02399,2.73067 -2.13333,5.54667 -3.41333,8.192 -0.42666,0.93867 -0.93866,1.96267 -1.536,2.816 -0.17066,0.256 -0.42666,0.42667 -0.59733,0.68267 0,-0.256 0,-0.512 0,-0.68267 0,-1.45067 0.0853,-2.90133 0.17067,-4.43733 0.34133,-3.84 1.10933,-7.76533 2.13333,-11.52 0.93867,-3.072 1.96267,-6.48533 4.01066,-9.04533 0.68267,-0.768 1.536,-1.536 2.64534,-1.10933 0.59733,0.17067 1.10933,0.768 1.36533,1.36533 -1.45067,4.608 -3.072,9.216 -4.77867,13.73866 z m 10.752,17.83466 c -0.17067,-0.0853 -0.0853,-0.0853 0,0 z"
         style="font-family:Love;-inkscape-font-specification:Love;text-align:center;text-anchor:middle"
         id="path421" />
      <path
         d="m 565.5008,153.02429 c -1.19467,3.84 -2.56,7.76533 -4.01067,11.51999 -1.536,3.84 -3.15733,8.192 -5.97333,11.17866 -0.512,0.59734 -1.10933,1.19467 -1.87733,1.36534 -0.17067,0.0853 -0.59733,0.0853 -1.024,0.0853 -0.0853,-0.34133 -0.256,-0.93867 -0.34133,-1.45067 -0.85334,-3.83999 -0.768,-7.76533 -0.512,-11.60532 0.256,-4.01067 1.19466,-8.02133 0.59733,-12.032 -0.17067,-1.536 -3.75466,-3.66933 -4.77866,-1.87733 -2.048,3.24266 -2.13334,7.76533 -2.47467,11.51999 -0.42667,4.52267 -0.768,9.89867 1.28,14.08 0.93867,1.96266 2.47466,3.66933 4.352,4.608 1.70666,0.85333 4.352,1.45066 5.54666,-0.34134 2.38933,-3.49866 4.608,-6.99733 6.31467,-10.92266 2.13333,-4.94933 3.83999,-10.06933 5.37599,-15.18933 0.34134,-0.93866 -2.13333,-2.21866 -2.47466,-0.93866 z m -12.20266,-5.80267 c 0.42666,-0.42666 0.42666,-1.28 0.59733,-1.87733 0.0853,-0.512 0.256,-1.10933 0.256,-1.62133 -0.0853,-1.536 -1.19467,-2.64533 -2.56,-3.328 -0.93867,-0.512 -2.98666,-1.024 -3.66933,0.256 -0.34133,0.59733 -0.42667,1.28 -0.59733,1.96266 -0.17067,0.768 -0.34134,1.36534 -0.17067,2.21867 0.512,2.13333 4.352,4.352 6.144,2.38933 z"
         style="font-family:Love;-inkscape-font-specification:Love;text-align:center;text-anchor:middle"
         id="path423" />
      <path
         d="m 587.94348,154.47495 c -6.14399,2.90134 -11.60533,6.99733 -15.95732,12.20266 -2.13334,-3.66933 -2.98667,-8.02133 -2.47467,-12.28799 0.256,-2.21867 0.85333,-4.608 1.96267,-6.656 0.42666,-0.85333 1.19466,-2.13333 2.38933,-1.96266 1.28,0.256 1.96266,2.56 2.38933,3.49866 0.34133,0.85333 2.90133,1.536 2.38933,0.256 -1.28,-3.66933 -3.072,-7.168 -7.42399,-7.68 -4.352,-0.51199 -6.99733,3.66934 -8.192,7.25334 -1.28,4.01066 -1.45067,8.27733 -0.256,12.28799 1.10933,4.01067 3.328,6.99733 5.632,10.24 -2.64533,4.18133 -4.608,9.13066 -4.69333,14.07999 -0.0853,2.90133 0.42666,6.31466 2.98666,8.192 3.15733,2.304 7.50933,1.28 9.89866,-1.536 2.816,-3.24267 3.584,-8.10667 2.816,-12.20266 -0.768,-4.26667 -3.328,-7.68 -5.80266,-11.09333 4.352,-5.46133 10.06933,-9.81333 16.38399,-12.8 1.024,-0.512 -1.10933,-2.21866 -2.048,-1.792 z m -15.87199,30.80532 c -0.256,1.87734 -0.68267,4.096 -1.87733,5.632 -0.34134,0.42667 -1.19467,1.536 -1.87734,1.62133 -1.024,0.0853 -1.45066,-1.45066 -1.62133,-2.21866 -1.45066,-5.46133 0.59733,-11.264 3.41333,-16.128 1.96267,3.328 2.47467,7.25334 1.96267,11.09333 z"
         style="font-family:Love;-inkscape-font-specification:Love;text-align:center;text-anchor:middle"
         id="path425" />
      <path
         d="m 663.97541,185.96294 c -7.08266,-1.28 -14.84799,-0.85333 -21.84532,0.34133 -2.304,0.42667 -4.608,0.93867 -6.912,1.62134 -0.512,-5.46134 -1.45067,-10.92267 -1.96267,-16.29866 -0.34133,-3.41334 -0.59733,-6.82667 -0.768,-10.24 3.66933,-1.45067 6.912,-3.92533 9.64267,-6.82666 8.78932,-9.55733 13.14132,-23.21066 13.99466,-36.01066 0.34133,-5.37599 0.768,-12.28799 -2.38934,-16.98132 -3.328,-5.034666 -10.49599,-5.802666 -14.67732,-1.45067 -4.52267,4.608 -6.912,11.69066 -8.78933,17.74933 -2.21867,6.656 -3.49867,13.48266 -4.26667,20.47999 -0.768,7.33866 -0.85333,14.67733 -0.512,22.10132 -4.26666,0.17067 -8.36266,-1.28 -11.60533,-4.35199 -1.10933,-1.024 -2.816,-0.34134 -1.536,1.024 3.584,3.49866 8.36267,5.46133 13.22667,5.46133 0,0.256 0.0853,0.512 0.0853,0.768 0.512,8.61866 1.024,17.49332 2.90133,25.94132 0.0853,0.256 0.17067,0.512 0.34133,0.768 -2.73066,1.024 -5.46133,2.304 -7.67999,4.096 -1.96267,1.536 2.47466,3.92533 3.584,2.90133 3.15733,-1.19467 6.05866,-2.816 9.21599,-3.92533 3.41333,-1.19467 6.82667,-2.13334 10.32533,-2.73067 3.41333,-0.68267 6.82666,-0.93867 10.24,-0.93867 3.584,0 6.99733,0.59734 10.49599,1.28 1.28,0.256 2.73067,-0.256 2.47467,-1.79199 -0.256,-1.45067 -2.21867,-2.73067 -3.584,-2.98667 z m -26.36799,-70.9973 c 1.62133,-4.864 3.75467,-11.776 8.96,-13.824 6.22933,-2.38933 6.74133,8.02133 6.82666,11.69066 0.17067,11.776 -2.816,23.72266 -9.04533,33.79199 -2.98666,4.77866 -6.912,9.38666 -12.03199,11.94666 -0.0853,-2.21866 -0.0853,-4.43733 -0.0853,-6.656 0,-12.45866 1.28,-25.17332 5.376,-36.94931 z"
         style="font-family:Love;-inkscape-font-specification:Love;text-align:center;text-anchor:middle"
         id="path427" />
      <path
         d="m 687.44201,155.66962 c -2.56,4.77866 -5.29067,9.55733 -8.53333,13.99466 -1.87734,2.56 -3.92534,5.12 -6.4,7.168 -0.93867,0.768 -2.13333,1.536 -3.328,1.792 -0.42667,0 -0.85333,0 -1.28,-0.0853 0.17067,0 0,0 -0.17067,0 0,0 0,0 0,0 0,0 0,0 0,0 -0.256,0 -0.59733,-0.0853 -0.34133,-0.0853 0.17067,-0.0853 0.17067,-0.0853 0.256,0 -0.17067,-0.42667 -0.256,-0.93867 -0.34133,-1.36533 -0.34134,-1.28 -0.59733,-2.56 -0.768,-3.92533 -0.0853,-2.47467 0.17067,-5.03467 0.59733,-7.50934 0.34133,-0.0853 0.68267,-0.17066 1.024,-0.25599 4.43733,-1.36534 8.27733,-5.12 10.24,-9.38667 0.68266,-1.536 1.70666,-4.01066 1.36533,-5.71733 -0.34133,-1.96266 -2.304,-3.328 -3.92533,-4.01066 -4.52267,-1.87734 -8.87467,0.93866 -11.52,4.52266 -2.38933,3.24267 -3.84,7.33866 -4.69333,11.264 -0.768,3.92533 -1.28,8.27733 -0.256,12.11732 1.024,3.84 4.18133,7.424 8.27733,8.10667 2.98667,0.42666 5.97333,-2.38933 8.02133,-4.352 6.05867,-5.71733 10.41066,-13.48266 14.25066,-20.82132 0.59734,-1.024 -1.87733,-2.56 -2.47466,-1.45067 z m -16.896,-0.256 c 0.59734,-0.93867 1.19467,-1.87733 2.048,-2.73067 0.512,-0.512 1.024,-1.024 1.70667,-1.36533 0.17067,-0.17067 1.28,-0.512 1.792,-0.68267 0.17066,1.10934 0.0853,1.87734 -0.42667,3.072 -0.85333,2.21867 -2.21866,4.26667 -3.92533,5.97333 -1.10933,1.10934 -2.47467,2.13334 -3.92533,2.816 0.59733,-2.47466 1.45066,-4.864 2.73066,-7.08266 z"
         style="font-family:Love;-inkscape-font-specification:Love;text-align:center;text-anchor:middle"
         id="path429" />
      <path
         d="m 717.90604,154.90162 c -0.93866,3.584 -1.96266,7.08266 -3.15733,10.58133 -1.36533,3.92533 -2.90133,8.61866 -5.97333,11.60533 -0.512,0.512 -1.024,0.85333 -1.792,1.10933 -0.0853,0 -0.256,0.0853 -0.42667,0.0853 -0.0853,0 -0.256,-0.0853 -0.34133,-0.0853 0,-0.0853 0,-0.17067 -0.0853,-0.256 -0.256,-0.768 -0.512,-1.536 -0.68267,-2.38933 -1.024,-4.18133 -1.024,-8.53333 -0.93867,-12.8 0.0853,-2.38933 0.34134,-4.864 0.42667,-7.25333 0.17067,-1.87733 0.42667,-3.75466 0,-5.54666 -0.256,-1.536 -3.92533,-4.01067 -5.03466,-2.048 -0.256,0.512 -0.512,1.024 -0.59734,1.536 -0.42666,-0.34133 -0.85333,-0.68267 -1.36533,-0.93867 -2.56,-1.536 -5.888,-1.70666 -8.27733,0.0853 -4.52266,3.41333 -5.80266,10.32532 -6.57066,15.44532 -0.68267,5.20533 -1.10934,11.43466 4.35199,14.25066 2.56,1.36534 4.43734,0.0853 5.632,-2.304 1.024,-2.304 1.96267,-4.60799 2.816,-6.91199 0.768,-1.96267 1.36533,-3.84 2.048,-5.80267 -0.0853,4.096 0.0853,8.36267 1.536,12.11733 1.36533,3.584 5.97333,8.192 9.89866,5.54667 3.328,-2.304 5.29067,-7.168 6.656,-10.752 1.87733,-4.608 3.24266,-9.472 4.43733,-14.25066 0.256,-1.10933 -2.304,-2.304 -2.56,-1.024 z m -23.38132,9.81333 c -0.85333,2.47466 -1.70667,4.94933 -2.90133,7.33866 -0.34134,0.85334 -0.768,1.792 -1.36534,2.47467 -0.0853,0.0853 -0.0853,0.17066 -0.17066,0.256 -0.0853,-1.19467 0,-2.38933 0,-3.584 0.17066,-3.41333 0.68266,-6.912 1.536,-10.24 0.68266,-2.816 1.45066,-5.88799 3.24266,-8.19199 0.68267,-0.93867 1.28,-1.45067 2.38933,-1.36534 0.17067,0 0.17067,0 0.256,-0.0853 0,0.0853 0.0853,0.0853 0.17067,0.17067 0.34133,0.256 0.59733,0.512 0.85333,0.768 -1.28,4.18133 -2.56,8.36266 -4.01066,12.45866 z"
         style="font-family:Love;-inkscape-font-specification:Love;text-align:center;text-anchor:middle"
         id="path431" />
      <path
         d="m 755.02599,155.32829 c -2.56,8.53333 -5.376,17.40799 -10.24,25.00265 -1.45067,2.304 -4.352,6.31467 -7.25333,5.376 -0.0853,-0.0853 -0.17067,-0.17067 -0.17067,-0.256 0,0 0,-0.0853 0,-0.17067 -0.0853,-0.256 -0.0853,-0.512 -0.17066,-0.68266 0,-0.17067 0,-0.42667 0,-0.59734 0,-0.0853 -0.0853,-0.59733 -0.0853,-0.768 0,-0.768 0.0853,-1.536 0.0853,-2.30399 0.34133,-5.54667 0.68266,-11.09333 1.28,-16.64 0.59733,-5.29066 1.36533,-10.49599 2.13333,-15.78666 0.512,-3.328 1.10933,-6.656 1.70666,-9.98399 0.68267,-4.01067 1.62134,-8.10667 1.70667,-12.11733 0,-1.45067 -1.28,-2.64533 -2.47467,-3.24267 -0.85333,-0.42666 -3.15733,-1.10933 -3.66933,0.17067 -1.36533,3.49866 -2.048,7.25333 -2.73066,10.92266 -0.59734,3.24267 -1.19467,6.57067 -1.792,9.81333 -0.42667,2.38933 -0.768,4.864 -1.10933,7.25333 -0.512,-0.59733 -1.10934,-1.19467 -1.87734,-1.62133 -2.73066,-1.62133 -6.31466,-1.96267 -8.95999,0.256 -4.69334,3.84 -6.31467,11.09333 -7.33867,16.72532 -1.024,5.632 -2.048,13.568 4.52267,16.29866 2.73066,1.10934 4.43733,-1.024 5.54666,-3.24266 1.28,-2.47467 2.304,-4.94933 3.328,-7.59466 1.10933,-2.816 2.13333,-5.71734 3.15733,-8.61867 -0.512,5.20533 -0.93866,10.496 0.0853,15.53066 0.512,2.64533 1.28,5.71733 2.98666,7.85067 0.68267,0.85333 1.62133,1.62133 2.73067,2.048 3.072,1.27999 6.22933,-1.36534 8.19199,-3.49867 3.584,-4.01066 5.888,-9.216 7.936,-14.16533 1.96267,-4.864 3.66933,-9.89866 5.20533,-14.93332 0.256,-1.024 -2.304,-2.304 -2.73066,-1.024 z m -28.84266,12.37332 c -1.024,2.73067 -2.13333,5.54667 -3.41333,8.192 -0.42667,0.93867 -0.93867,1.96267 -1.536,2.816 -0.17067,0.256 -0.42667,0.42667 -0.59733,0.68267 0,-0.256 0,-0.512 0,-0.68267 0,-1.45067 0.0853,-2.90133 0.17066,-4.43733 0.34134,-3.84 1.10934,-7.76533 2.13334,-11.52 0.93866,-3.072 1.96266,-6.48533 4.01066,-9.04533 0.68267,-0.768 1.536,-1.536 2.64533,-1.10933 0.59734,0.17067 1.10934,0.768 1.36534,1.36533 -1.45067,4.608 -3.072,9.216 -4.77867,13.73866 z m 10.752,17.83466 c -0.17067,-0.0853 -0.0853,-0.0853 0,0 z"
         style="font-family:Love;-inkscape-font-specification:Love;text-align:center;text-anchor:middle"
         id="path433" />
    </g>
  </g>
</svg>
