<?xml version="1.0" encoding="UTF-8" standalone="no"?>
<!-- Created with Inkscape (http://www.inkscape.org/) -->

<svg
   width="297mm"
   height="210mm"
   viewBox="0 0 1122.5197 793.70081"
   version="1.1"
   id="svg5"
   inkscape:version="1.2.2 (1:1.2.2+202305151914+b0a8486541)"
   sodipodi:docname="drawing.svg"
   xmlns:inkscape="http://www.inkscape.org/namespaces/inkscape"
   xmlns:sodipodi="http://sodipodi.sourceforge.net/DTD/sodipodi-0.dtd"
   xmlns="http://www.w3.org/2000/svg"
   xmlns:svg="http://www.w3.org/2000/svg">
  <sodipodi:namedview
     id="namedview7"
     pagecolor="#ffffff"
     bordercolor="#666666"
     borderopacity="1.0"
     inkscape:showpageshadow="2"
     inkscape:pageopacity="0.0"
     inkscape:pagecheckerboard="0"
     inkscape:deskcolor="#d1d1d1"
     inkscape:document-units="mm"
     showgrid="false"
     inkscape:zoom="1.1670174"
     inkscape:cx="561.25984"
     inkscape:cy="396.73787"
     inkscape:window-width="2186"
     inkscape:window-height="1435"
     inkscape:window-x="0"
     inkscape:window-y="0"
     inkscape:window-maximized="1"
     inkscape:current-layer="layer1" />
  <defs
     id="defs2">
    <rect
       x="12.093463"
       y="11.584687"
       width="1073.6203"
       height="282.12278"
       id="rect113" />
  </defs>
  <g
     inkscape:label="Layer 1"
     inkscape:groupmode="layer"
     id="layer1">
    <g
       aria-label="
We've been trying to reach
you about your cars extended
warranty"
       id="text111"
       style="font-size:53.3333px;line-height:1.25;white-space:pre;shape-inside:url(#rect113);display:inline">
      <path
         d="M 61.000388,88.697281 50.86706,126.77726 h -4.85333 l -7.413329,-24.95999 q -0.426667,-1.54666 -0.853333,-3.093329 -0.426666,-1.546665 -0.693333,-2.719998 -0.266666,-1.226666 -0.373333,-1.706666 -0.05333,0.693333 -0.586666,2.986665 -0.48,2.239999 -1.226666,4.693328 l -7.199996,24.79999 h -4.85333 L 12.73375,88.697281 h 5.01333 l 5.919996,23.253319 q 0.64,2.45333 1.066666,4.74666 0.48,2.29334 0.746667,4.32 0.266666,-2.08 0.799999,-4.53333 0.533333,-2.45333 1.226666,-4.8 L 34.22707,88.697281 h 4.959997 l 6.986663,23.146649 q 0.746666,2.45334 1.279999,4.90667 0.533333,2.4 0.799999,4.26666 0.266667,-1.97333 0.746667,-4.26666 0.479999,-2.34667 1.119999,-4.85333 l 5.866663,-23.199989 z"
         id="path309" />
      <path
         d="m 76.200369,97.657275 q 3.679998,0 6.293329,1.599999 2.666665,1.599996 4.053331,4.533326 1.439999,2.88 1.439999,6.77333 v 2.82667 H 68.413707 q 0.106666,4.85333 2.453332,7.41333 2.399998,2.50666 6.666662,2.50666 2.719999,0 4.799997,-0.48 2.133332,-0.53333 4.373331,-1.49333 v 4.10667 q -2.186665,0.95999 -4.319997,1.38666 -2.133332,0.48 -5.066664,0.48 -4.053331,0 -7.199996,-1.65333 -3.093331,-1.65333 -4.85333,-4.90667 -1.706666,-3.30666 -1.706666,-8.05332 0,-4.69333 1.546666,-8.05333 1.599999,-3.36 4.426664,-5.173333 2.879998,-1.813332 6.666663,-1.813332 z m -0.05333,3.839995 q -3.359998,0 -5.33333,2.18667 -1.919999,2.13333 -2.293332,5.97333 h 14.559992 q -0.05333,-3.62667 -1.706666,-5.86667 -1.653332,-2.29333 -5.226664,-2.29333 z"
         id="path311" />
      <path
         d="M 98.706966,88.697281 97.6403,102.45727 H 94.706968 L 93.640302,88.697281 Z"
         id="path313" />
      <path
         d="M 113.00031,126.77726 102.17365,98.190608 h 5.01333 l 6.08,16.853322 q 0.42667,1.17333 0.90667,2.61333 0.48,1.44 0.85333,2.77333 0.37333,1.28 0.53333,2.18667 h 0.21333 q 0.21334,-0.90667 0.58667,-2.24 0.42667,-1.33333 0.90667,-2.77333 0.53333,-1.44 0.90666,-2.56 l 6.08,-16.853322 h 5.01333 l -10.87999,28.586652 z"
         id="path315" />
      <path
         d="m 144.84026,97.657275 q 3.68,0 6.29333,1.599999 2.66667,1.599996 4.05333,4.533326 1.44,2.88 1.44,6.77333 v 2.82667 H 137.0536 q 0.10667,4.85333 2.45333,7.41333 2.4,2.50666 6.66666,2.50666 2.72,0 4.8,-0.48 2.13333,-0.53333 4.37333,-1.49333 v 4.10667 q -2.18666,0.95999 -4.32,1.38666 -2.13333,0.48 -5.06666,0.48 -4.05333,0 -7.2,-1.65333 -3.09333,-1.65333 -4.85333,-4.90667 -1.70666,-3.30666 -1.70666,-8.05332 0,-4.69333 1.54666,-8.05333 1.6,-3.36 4.42667,-5.173333 2.88,-1.813332 6.66666,-1.813332 z m -0.0533,3.839995 q -3.36,0 -5.33333,2.18667 -1.92,2.13333 -2.29333,5.97333 h 14.55999 q -0.0533,-3.62667 -1.70667,-5.86667 -1.65333,-2.29333 -5.22666,-2.29333 z"
         id="path317" />
      <path
         d="m 182.44021,96.110609 q 0,1.813333 -0.10667,3.413332 -0.0533,1.546669 -0.16,2.453329 h 0.26667 q 1.22666,-1.81333 3.36,-3.039996 2.13333,-1.226665 5.49333,-1.226665 5.33333,0 8.53332,3.733331 3.25334,3.68 3.25334,11.03999 0,7.36 -3.25334,11.09333 -3.25333,3.73333 -8.53332,3.73333 -3.36,0 -5.49333,-1.22667 -2.13334,-1.22666 -3.36,-2.93333 h -0.37334 l -0.95999,3.62667 h -3.36 V 86.243949 h 4.69333 z m 8.05333,5.493331 q -4.53333,0 -6.29333,2.61333 -1.76,2.61333 -1.76,8.10666 v 0.21334 q 0,5.27999 1.70666,8.10666 1.76,2.77333 6.45333,2.77333 3.84,0 5.70667,-2.82667 1.92,-2.82666 1.92,-8.15999 0,-10.82666 -7.73333,-10.82666 z"
         id="path319" />
      <path
         d="m 221.58684,97.657275 q 3.68,0 6.29333,1.599999 2.66667,1.599996 4.05333,4.533326 1.44,2.88 1.44,6.77333 v 2.82667 h -19.57332 q 0.10667,4.85333 2.45333,7.41333 2.4,2.50666 6.66667,2.50666 2.71999,0 4.79999,-0.48 2.13334,-0.53333 4.37333,-1.49333 v 4.10667 q -2.18666,0.95999 -4.31999,1.38666 -2.13334,0.48 -5.06667,0.48 -4.05333,0 -7.19999,-1.65333 -3.09333,-1.65333 -4.85333,-4.90667 -1.70667,-3.30666 -1.70667,-8.05332 0,-4.69333 1.54667,-8.05333 1.6,-3.36 4.42666,-5.173333 2.88,-1.813332 6.66666,-1.813332 z m -0.0533,3.839995 q -3.36,0 -5.33333,2.18667 -1.92,2.13333 -2.29333,5.97333 h 14.55999 q -0.0533,-3.62667 -1.70667,-5.86667 -1.65333,-2.29333 -5.22666,-2.29333 z"
         id="path321" />
      <path
         d="m 251.66678,97.657275 q 3.68,0 6.29333,1.599999 2.66667,1.599996 4.05333,4.533326 1.44,2.88 1.44,6.77333 v 2.82667 h -19.57332 q 0.10667,4.85333 2.45333,7.41333 2.4,2.50666 6.66667,2.50666 2.72,0 4.79999,-0.48 2.13334,-0.53333 4.37333,-1.49333 v 4.10667 q -2.18666,0.95999 -4.31999,1.38666 -2.13333,0.48 -5.06667,0.48 -4.05333,0 -7.19999,-1.65333 -3.09333,-1.65333 -4.85333,-4.90667 -1.70667,-3.30666 -1.70667,-8.05332 0,-4.69333 1.54667,-8.05333 1.6,-3.36 4.42666,-5.173333 2.88,-1.813332 6.66666,-1.813332 z m -0.0533,3.839995 q -3.36,0 -5.33333,2.18667 -1.92,2.13333 -2.29333,5.97333 h 14.55999 q -0.0533,-3.62667 -1.70667,-5.86667 -1.65333,-2.29333 -5.22666,-2.29333 z"
         id="path323" />
      <path
         d="m 284.46672,97.657275 q 5.12,0 7.73333,2.506665 2.61333,2.45333 2.61333,8 v 18.61332 h -4.63999 v -18.29332 q 0,-6.88 -6.4,-6.88 -4.74666,0 -6.56,2.66666 -1.81333,2.66667 -1.81333,7.68 v 14.82666 h -4.69333 V 98.190608 h 3.78667 l 0.69333,3.893332 h 0.26667 q 1.38666,-2.239999 3.83999,-3.306665 2.45333,-1.12 5.17333,-1.12 z"
         id="path325" />
      <path
         d="m 327.08005,123.47059 q 1.06667,0 2.18667,-0.16 1.12,-0.21333 1.81333,-0.42666 v 3.57333 q -0.74667,0.37333 -2.13333,0.58666 -1.38667,0.26667 -2.66667,0.26667 -2.24,0 -4.15999,-0.74667 -1.86667,-0.79999 -3.04,-2.71999 -1.17334,-1.92 -1.17334,-5.38667 v -16.63999 h -4.05333 v -2.239996 l 4.10667,-1.866665 1.86666,-6.079997 h 2.77334 v 6.559996 h 8.26666 v 3.626662 h -8.26666 v 16.53333 q 0,2.61333 1.22666,3.89333 1.28,1.22666 3.25333,1.22666 z"
         id="path327" />
      <path
         d="m 350.12001,97.657275 q 0.8,0 1.70667,0.106667 0.96,0.05333 1.65333,0.213333 l -0.58667,4.319995 q -0.69333,-0.16 -1.54666,-0.26666 -0.8,-0.10667 -1.54667,-0.10667 -2.18666,0 -4.10666,1.22667 -1.92,1.17333 -3.09333,3.35999 -1.12,2.13334 -1.12,5.01333 v 15.25333 h -4.69333 V 98.190608 h 3.84 l 0.53333,5.226662 h 0.21333 q 1.38667,-2.34666 3.57333,-4.053329 2.18667,-1.706666 5.17333,-1.706666 z"
         id="path329" />
      <path
         d="m 354.33336,98.190608 h 5.01333 l 6.18667,16.266662 q 0.8,2.13333 1.44,4.10666 0.63999,1.92 0.95999,3.68 h 0.21334 q 0.32,-1.33334 1.01333,-3.46667 0.69333,-2.18666 1.44,-4.37333 l 5.81333,-16.213322 h 5.06666 l -12.31999,32.533312 q -1.49333,4.05333 -3.89333,6.45333 -2.34667,2.4 -6.50666,2.4 -1.28,0 -2.24,-0.16 -0.96,-0.10667 -1.65333,-0.26667 v -3.73333 q 0.58666,0.10667 1.38666,0.21334 0.85333,0.10666 1.76,0.10666 2.45333,0 3.94666,-1.38666 1.54667,-1.38667 2.4,-3.68 l 1.49334,-3.78667 z"
         id="path331" />
      <path
         d="m 388.41337,87.470615 q 1.06667,0 1.86667,0.746666 0.85333,0.693333 0.85333,2.239999 0,1.493332 -0.85333,2.239998 -0.8,0.746666 -1.86667,0.746666 -1.17333,0 -1.97333,-0.746666 -0.8,-0.746666 -0.8,-2.239998 0,-1.546666 0.8,-2.239999 0.8,-0.746666 1.97333,-0.746666 z m 2.29333,10.719993 v 28.586652 h -4.69333 V 98.190608 Z"
         id="path333" />
      <path
         d="m 413.53331,97.657275 q 5.12,0 7.73333,2.506665 2.61333,2.45333 2.61333,8 v 18.61332 h -4.63999 v -18.29332 q 0,-6.88 -6.4,-6.88 -4.74666,0 -6.56,2.66666 -1.81333,2.66667 -1.81333,7.68 v 14.82666 h -4.69333 V 98.190608 h 3.78667 l 0.69333,3.893332 h 0.26666 q 1.38667,-2.239999 3.84,-3.306665 2.45333,-1.12 5.17333,-1.12 z"
         id="path335" />
      <path
         d="m 442.86664,97.657275 q 2.82666,0 5.06666,1.066666 2.29334,1.066666 3.89333,3.253329 h 0.26667 l 0.64,-3.786662 h 3.73333 v 29.066652 q 0,6.13333 -3.14666,9.22666 -3.09333,3.09333 -9.65333,3.09333 -6.29333,0 -10.29333,-1.81333 v -4.32 q 4.21333,2.24 10.56,2.24 3.67999,0 5.75999,-2.18667 2.13333,-2.13333 2.13333,-5.86666 v -1.12 q 0,-0.64 0.0533,-1.81333 0.0533,-1.22667 0.10666,-1.70667 h -0.21333 q -2.88,4.32 -8.85333,4.32 -5.54666,0 -8.69333,-3.89333 -3.09333,-3.89333 -3.09333,-10.87999 0,-6.82667 3.09333,-10.82666 3.14667,-4.053335 8.64,-4.053335 z m 0.64,3.946665 q -3.57333,0 -5.54666,2.88 -1.97334,2.82666 -1.97334,8.10666 0,5.28 1.92,8.10666 1.97333,2.77333 5.70667,2.77333 4.31999,0 6.29333,-2.29333 1.97333,-2.34666 1.97333,-7.51999 v -1.12 q 0,-5.86667 -2.02667,-8.37333 -2.02666,-2.56 -6.34666,-2.56 z"
         id="path337" />
      <path
         d="m 488.9466,123.47059 q 1.06667,0 2.18666,-0.16 1.12,-0.21333 1.81334,-0.42666 v 3.57333 q -0.74667,0.37333 -2.13334,0.58666 -1.38666,0.26667 -2.66666,0.26667 -2.24,0 -4.16,-0.74667 -1.86666,-0.79999 -3.04,-2.71999 -1.17333,-1.92 -1.17333,-5.38667 v -16.63999 h -4.05333 v -2.239996 l 4.10666,-1.866665 1.86667,-6.079997 h 2.77333 v 6.559996 h 8.26666 v 3.626662 h -8.26666 v 16.53333 q 0,2.61333 1.22667,3.89333 1.28,1.22666 3.25333,1.22666 z"
         id="path339" />
      <path
         d="m 523.50658,112.4306 q 0,7.09333 -3.62666,10.98666 -3.57333,3.89333 -9.70666,3.89333 -3.78667,0 -6.77333,-1.70666 -2.93333,-1.76 -4.64,-5.06667 -1.70666,-3.36 -1.70666,-8.10666 0,-7.09333 3.57333,-10.93333 3.57333,-3.839995 9.70666,-3.839995 3.89333,0 6.82666,1.759999 2.98667,1.706666 4.64,5.013326 1.70666,3.25334 1.70666,8 z m -21.59998,0 q 0,5.06666 1.97333,8.05333 2.02666,2.93333 6.39999,2.93333 4.32,0 6.34667,-2.93333 2.02666,-2.98667 2.02666,-8.05333 0,-5.06666 -2.02666,-7.94666 -2.02667,-2.88 -6.4,-2.88 -4.37333,0 -6.34666,2.88 -1.97333,2.88 -1.97333,7.94666 z"
         id="path341" />
      <path
         d="m 558.11989,97.657275 q 0.8,0 1.70667,0.106667 0.96,0.05333 1.65333,0.213333 l -0.58667,4.319995 q -0.69333,-0.16 -1.54666,-0.26666 -0.8,-0.10667 -1.54667,-0.10667 -2.18666,0 -4.10666,1.22667 -1.92,1.17333 -3.09333,3.35999 -1.12,2.13334 -1.12,5.01333 v 15.25333 h -4.69333 V 98.190608 h 3.83999 l 0.53334,5.226662 h 0.21333 q 1.38667,-2.34666 3.57333,-4.053329 2.18667,-1.706666 5.17333,-1.706666 z"
         id="path343" />
      <path
         d="m 576.78652,97.657275 q 3.68,0 6.29333,1.599999 2.66666,1.599996 4.05333,4.533326 1.44,2.88 1.44,6.77333 v 2.82667 h -19.57332 q 0.10666,4.85333 2.45333,7.41333 2.4,2.50666 6.66666,2.50666 2.72,0 4.8,-0.48 2.13333,-0.53333 4.37333,-1.49333 v 4.10667 q -2.18667,0.95999 -4.32,1.38666 -2.13333,0.48 -5.06666,0.48 -4.05333,0 -7.2,-1.65333 -3.09333,-1.65333 -4.85333,-4.90667 -1.70666,-3.30666 -1.70666,-8.05332 0,-4.69333 1.54666,-8.05333 1.6,-3.36 4.42667,-5.173333 2.88,-1.813332 6.66666,-1.813332 z m -0.0533,3.839995 q -3.36,0 -5.33333,2.18667 -1.92,2.13333 -2.29334,5.97333 h 14.56 q -0.0533,-3.62667 -1.70667,-5.86667 -1.65333,-2.29333 -5.22666,-2.29333 z"
         id="path345" />
      <path
         d="m 606.65314,97.710609 q 5.22667,0 7.73333,2.293331 2.50667,2.29333 2.50667,7.30666 v 19.46666 h -3.41333 l -0.90667,-4.05333 h -0.21333 q -1.86667,2.34666 -3.94667,3.46666 -2.02666,1.12 -5.65333,1.12 -3.89333,0 -6.45333,-2.02666 -2.56,-2.08 -2.56,-6.45333 0,-4.26667 3.36,-6.56 3.36,-2.34667 10.34666,-2.56 l 4.85333,-0.16 v -1.70666 q 0,-3.57334 -1.54666,-4.96 -1.54667,-1.38667 -4.37333,-1.38667 -2.24,0 -4.26667,0.69334 -2.02666,0.64 -3.78666,1.49333 l -1.44,-3.52 q 1.86666,-1.013332 4.42666,-1.706665 2.56,-0.746666 5.33333,-0.746666 z m 1.38667,15.253321 q -5.33333,0.21334 -7.41333,1.70667 -2.02667,1.49333 -2.02667,4.21333 0,2.4 1.44,3.52 1.49334,1.12 3.78667,1.12 3.62666,0 6.02666,-1.97334 2.4,-2.02666 2.4,-6.18666 v -2.56 z"
         id="path347" />
      <path
         d="m 637.21313,127.31059 q -3.78667,0 -6.77333,-1.54666 -2.93334,-1.54667 -4.64,-4.8 -1.65333,-3.25333 -1.65333,-8.32 0,-5.27999 1.76,-8.58666 1.75999,-3.30666 4.74666,-4.853329 3.04,-1.546666 6.88,-1.546666 2.18666,0 4.21333,0.48 2.02666,0.426666 3.30666,1.066666 l -1.44,3.893329 q -1.28,-0.48 -2.98666,-0.90666 -1.70667,-0.42667 -3.2,-0.42667 -8.42666,0 -8.42666,10.82666 0,5.17333 2.02666,7.94666 2.08,2.72 6.13333,2.72 2.34667,0 4.10667,-0.48 1.81333,-0.48 3.30666,-1.17333 v 4.16 q -1.44,0.74666 -3.2,1.11999 -1.70666,0.42667 -4.15999,0.42667 z"
         id="path349" />
      <path
         d="m 656.03977,98.137275 q 0,2.133335 -0.26666,3.999995 h 0.31999 q 1.38667,-2.186663 3.73334,-3.306662 2.39999,-1.119999 5.17333,-1.119999 5.22666,0 7.83999,2.506661 2.61333,2.45334 2.61333,7.94667 v 18.61332 h -4.63999 v -18.29332 q 0,-6.88 -6.4,-6.88 -4.8,0 -6.61333,2.72 -1.76,2.66666 -1.76,7.67999 v 14.77333 h -4.69333 V 86.243949 h 4.69333 z"
         id="path351" />
      <path
         d="m 12.147083,164.85723 h 5.013331 l 6.186663,16.26666 q 0.799999,2.13333 1.439999,4.10667 0.639999,1.91999 0.959999,3.67999 h 0.213333 q 0.32,-1.33333 1.013333,-3.46666 0.693333,-2.18667 1.439999,-4.37333 l 5.81333,-16.21333 h 5.066664 l -12.319993,32.53332 q -1.493332,4.05333 -3.893331,6.45333 -2.346665,2.4 -6.506663,2.4 -1.279999,0 -2.239998,-0.16 -0.96,-0.10667 -1.653333,-0.26667 v -3.73333 q 0.586667,0.10667 1.386666,0.21333 0.853333,0.10667 1.759999,0.10667 2.453332,0 3.946664,-1.38667 1.546666,-1.38666 2.399999,-3.68 l 1.493332,-3.78666 z"
         id="path353" />
      <path
         d="m 68.680394,179.09723 q 0,7.09332 -3.626664,10.98666 -3.573332,3.89333 -9.706661,3.89333 -3.786665,0 -6.773329,-1.70667 -2.933332,-1.76 -4.639998,-5.06666 -1.706665,-3.36 -1.706665,-8.10666 0,-7.09333 3.573331,-10.93333 3.573331,-3.84 9.706661,-3.84 3.893331,0 6.826662,1.76 2.986665,1.70667 4.639998,5.01333 1.706665,3.25333 1.706665,8 z m -21.599987,0 q 0,5.06666 1.973332,8.05332 2.026666,2.93334 6.399996,2.93334 4.319998,0 6.346663,-2.93334 2.026666,-2.98666 2.026666,-8.05332 0,-5.06667 -2.026666,-7.94667 -2.026665,-2.87999 -6.399996,-2.87999 -4.373331,0 -6.346663,2.87999 -1.973332,2.88 -1.973332,7.94667 z"
         id="path355" />
      <path
         d="m 99.987021,164.85723 v 28.58665 h -3.839998 l -0.693333,-3.78666 h -0.213333 q -1.386666,2.24 -3.839997,3.30666 -2.453332,1.01334 -5.226664,1.01334 -5.17333,0 -7.786662,-2.45333 -2.613332,-2.50667 -2.613332,-7.94667 v -18.71999 h 4.746664 v 18.39999 q 0,6.82667 6.346663,6.82667 4.746664,0 6.559996,-2.66667 1.866666,-2.66666 1.866666,-7.67999 v -14.88 z"
         id="path357" />
      <path
         d="m 133.74701,164.37723 q 5.22667,0 7.73333,2.29334 2.50667,2.29333 2.50667,7.30666 v 19.46665 h -3.41333 l -0.90667,-4.05333 h -0.21333 q -1.86667,2.34667 -3.94667,3.46667 -2.02666,1.12 -5.65333,1.12 -3.89333,0 -6.45333,-2.02667 -2.55999,-2.08 -2.55999,-6.45333 0,-4.26666 3.35999,-6.55999 3.36,-2.34667 10.34666,-2.56 l 4.85333,-0.16 v -1.70667 q 0,-3.57333 -1.54666,-4.96 -1.54667,-1.38666 -4.37333,-1.38666 -2.24,0 -4.26667,0.69333 -2.02666,0.64 -3.78666,1.49333 l -1.44,-3.51999 q 1.86667,-1.01334 4.42666,-1.70667 2.56,-0.74667 5.33333,-0.74667 z m 1.38667,15.25333 q -5.33333,0.21333 -7.41333,1.70666 -2.02666,1.49334 -2.02666,4.21334 0,2.39999 1.44,3.51999 1.49333,1.12 3.78666,1.12 3.62666,0 6.02666,-1.97333 2.4,-2.02667 2.4,-6.18666 v -2.56 z"
         id="path359" />
      <path
         d="m 157.53371,162.77724 q 0,1.81333 -0.10666,3.41333 -0.0533,1.54666 -0.16,2.45333 h 0.26666 q 1.22667,-1.81333 3.36,-3.04 2.13333,-1.22667 5.49333,-1.22667 5.33333,0 8.53333,3.73334 3.25333,3.67999 3.25333,11.03999 0,7.35999 -3.25333,11.09333 -3.25333,3.73333 -8.53333,3.73333 -3.36,0 -5.49333,-1.22667 -2.13333,-1.22666 -3.36,-2.93333 h -0.37333 l -0.96,3.62666 h -3.36 v -40.53331 h 4.69333 z m 8.05333,5.49333 q -4.53333,0 -6.29333,2.61333 -1.76,2.61333 -1.76,8.10666 v 0.21333 q 0,5.28 1.70667,8.10666 1.76,2.77334 6.45333,2.77334 3.84,0 5.70666,-2.82667 1.92,-2.82666 1.92,-8.15999 0,-10.82666 -7.73333,-10.82666 z"
         id="path361" />
      <path
         d="m 210.49367,179.09723 q 0,7.09332 -3.62666,10.98666 -3.57333,3.89333 -9.70666,3.89333 -3.78667,0 -6.77333,-1.70667 -2.93333,-1.76 -4.64,-5.06666 -1.70666,-3.36 -1.70666,-8.10666 0,-7.09333 3.57333,-10.93333 3.57333,-3.84 9.70666,-3.84 3.89333,0 6.82666,1.76 2.98667,1.70667 4.64,5.01333 1.70666,3.25333 1.70666,8 z m -21.59998,0 q 0,5.06666 1.97333,8.05332 2.02666,2.93334 6.4,2.93334 4.31999,0 6.34666,-2.93334 2.02666,-2.98666 2.02666,-8.05332 0,-5.06667 -2.02666,-7.94667 -2.02667,-2.87999 -6.4,-2.87999 -4.37333,0 -6.34666,2.87999 -1.97333,2.88 -1.97333,7.94667 z"
         id="path363" />
      <path
         d="m 241.80029,164.85723 v 28.58665 h -3.84 l -0.69333,-3.78666 h -0.21333 q -1.38667,2.24 -3.84,3.30666 -2.45333,1.01334 -5.22666,1.01334 -5.17333,0 -7.78667,-2.45333 -2.61333,-2.50667 -2.61333,-7.94667 v -18.71999 h 4.74667 v 18.39999 q 0,6.82667 6.34666,6.82667 4.74666,0 6.56,-2.66667 1.86666,-2.66666 1.86666,-7.67999 v -14.88 z"
         id="path365" />
      <path
         d="m 260.41363,190.13722 q 1.06666,0 2.18666,-0.16 1.12,-0.21333 1.81333,-0.42667 v 3.57333 q -0.74666,0.37334 -2.13333,0.58667 -1.38667,0.26667 -2.66666,0.26667 -2.24,0 -4.16,-0.74667 -1.86667,-0.8 -3.04,-2.72 -1.17333,-1.92 -1.17333,-5.38666 V 168.4839 h -4.05333 v -2.24 l 4.10666,-1.86667 1.86667,-6.07999 h 2.77333 v 6.55999 h 8.26666 v 3.62667 h -8.26666 v 16.53332 q 0,2.61333 1.22666,3.89333 1.28,1.22667 3.25334,1.22667 z"
         id="path367" />
      <path
         d="m 279.50695,164.85723 h 5.01333 l 6.18666,16.26666 q 0.8,2.13333 1.44,4.10667 0.64,1.91999 0.96,3.67999 h 0.21333 q 0.32,-1.33333 1.01333,-3.46666 0.69334,-2.18667 1.44,-4.37333 l 5.81333,-16.21333 h 5.06667 l -12.32,32.53332 q -1.49333,4.05333 -3.89333,6.45333 -2.34666,2.4 -6.50666,2.4 -1.28,0 -2.24,-0.16 -0.96,-0.10667 -1.65333,-0.26667 v -3.73333 q 0.58667,0.10667 1.38667,0.21333 0.85333,0.10667 1.75999,0.10667 2.45334,0 3.94667,-1.38667 1.54666,-1.38666 2.4,-3.68 l 1.49333,-3.78666 z"
         id="path369" />
      <path
         d="m 336.04027,179.09723 q 0,7.09332 -3.62666,10.98666 -3.57333,3.89333 -9.70666,3.89333 -3.78667,0 -6.77333,-1.70667 -2.93333,-1.76 -4.64,-5.06666 -1.70666,-3.36 -1.70666,-8.10666 0,-7.09333 3.57333,-10.93333 3.57333,-3.84 9.70666,-3.84 3.89333,0 6.82666,1.76 2.98667,1.70667 4.64,5.01333 1.70666,3.25333 1.70666,8 z m -21.59998,0 q 0,5.06666 1.97333,8.05332 2.02667,2.93334 6.4,2.93334 4.31999,0 6.34666,-2.93334 2.02666,-2.98666 2.02666,-8.05332 0,-5.06667 -2.02666,-7.94667 -2.02667,-2.87999 -6.4,-2.87999 -4.37333,0 -6.34666,2.87999 -1.97333,2.88 -1.97333,7.94667 z"
         id="path371" />
      <path
         d="m 367.34688,164.85723 v 28.58665 h -3.84 l -0.69333,-3.78666 h -0.21334 q -1.38666,2.24 -3.83999,3.30666 -2.45334,1.01334 -5.22667,1.01334 -5.17333,0 -7.78666,-2.45333 -2.61333,-2.50667 -2.61333,-7.94667 v -18.71999 h 4.74666 v 18.39999 q 0,6.82667 6.34666,6.82667 4.74667,0 6.56,-2.66667 1.86667,-2.66666 1.86667,-7.67999 v -14.88 z"
         id="path373" />
      <path
         d="m 389.74687,164.3239 q 0.8,0 1.70667,0.10667 0.96,0.0533 1.65333,0.21333 l -0.58666,4.32 q -0.69334,-0.16 -1.54667,-0.26667 -0.8,-0.10666 -1.54667,-0.10666 -2.18666,0 -4.10666,1.22666 -1.92,1.17333 -3.09333,3.36 -1.12,2.13333 -1.12,5.01333 v 15.25332 h -4.69333 v -28.58665 h 3.84 l 0.53333,5.22667 h 0.21333 q 1.38667,-2.34667 3.57333,-4.05333 2.18667,-1.70667 5.17333,-1.70667 z"
         id="path375" />
      <path
         d="m 423.77355,193.97722 q -3.78666,0 -6.77333,-1.54667 -2.93333,-1.54666 -4.64,-4.8 -1.65333,-3.25333 -1.65333,-8.31999 0,-5.28 1.76,-8.58666 1.76,-3.30667 4.74666,-4.85333 3.04,-1.54667 6.88,-1.54667 2.18667,0 4.21333,0.48 2.02667,0.42667 3.30667,1.06667 l -1.44,3.89333 q -1.28,-0.48 -2.98667,-0.90667 -1.70666,-0.42666 -3.2,-0.42666 -8.42666,0 -8.42666,10.82666 0,5.17333 2.02667,7.94666 2.08,2.72 6.13333,2.72 2.34666,0 4.10666,-0.48 1.81333,-0.48 3.30667,-1.17334 v 4.16 q -1.44,0.74667 -3.2,1.12 -1.70667,0.42667 -4.16,0.42667 z"
         id="path377" />
      <path
         d="m 448.7335,164.37723 q 5.22666,0 7.73332,2.29334 2.50667,2.29333 2.50667,7.30666 v 19.46665 h -3.41333 l -0.90667,-4.05333 h -0.21333 q -1.86667,2.34667 -3.94667,3.46667 -2.02666,1.12 -5.65333,1.12 -3.89333,0 -6.45333,-2.02667 -2.55999,-2.08 -2.55999,-6.45333 0,-4.26666 3.35999,-6.55999 3.36,-2.34667 10.34667,-2.56 l 4.85333,-0.16 v -1.70667 q 0,-3.57333 -1.54667,-4.96 -1.54667,-1.38666 -4.37333,-1.38666 -2.24,0 -4.26667,0.69333 -2.02666,0.64 -3.78666,1.49333 l -1.44,-3.51999 q 1.86667,-1.01334 4.42667,-1.70667 2.55999,-0.74667 5.33333,-0.74667 z m 1.38666,15.25333 q -5.33333,0.21333 -7.41333,1.70666 -2.02666,1.49334 -2.02666,4.21334 0,2.39999 1.44,3.51999 1.49333,1.12 3.78666,1.12 3.62667,0 6.02666,-1.97333 2.4,-2.02667 2.4,-6.18666 v -2.56 z"
         id="path379" />
      <path
         d="m 481.1602,164.3239 q 0.8,0 1.70667,0.10667 0.96,0.0533 1.65333,0.21333 l -0.58666,4.32 q -0.69334,-0.16 -1.54667,-0.26667 -0.8,-0.10666 -1.54667,-0.10666 -2.18666,0 -4.10666,1.22666 -1.92,1.17333 -3.09333,3.36 -1.12,2.13333 -1.12,5.01333 v 15.25332 h -4.69333 v -28.58665 h 3.84 l 0.53333,5.22667 h 0.21333 q 1.38667,-2.34667 3.57333,-4.05333 2.18667,-1.70667 5.17333,-1.70667 z"
         id="path381" />
      <path
         d="m 508.46684,185.55056 q 0,4.15999 -3.09333,6.29332 -3.09333,2.13334 -8.31999,2.13334 -2.98667,0 -5.17333,-0.48 -2.13334,-0.48 -3.78667,-1.33334 v -4.26666 q 1.70667,0.85333 4.10667,1.6 2.45333,0.69333 4.95999,0.69333 3.57333,0 5.17333,-1.12 1.6,-1.17333 1.6,-3.09333 0,-1.06666 -0.58666,-1.92 -0.58667,-0.85333 -2.13334,-1.70666 -1.49333,-0.85334 -4.31999,-1.92 -2.77333,-1.06667 -4.74667,-2.13333 -1.97333,-1.06667 -3.04,-2.56 -1.06666,-1.49333 -1.06666,-3.84 0,-3.62666 2.93333,-5.6 2.98667,-1.97333 7.78666,-1.97333 2.61333,0 4.85333,0.53333 2.29333,0.48 4.26667,1.38667 l -1.6,3.73333 q -1.81333,-0.74667 -3.78667,-1.28 -1.97333,-0.53333 -4.05333,-0.53333 -2.88,0 -4.42666,0.96 -1.49333,0.90666 -1.49333,2.50666 0,1.17334 0.69333,2.02667 0.69333,0.8 2.29333,1.6 1.65333,0.74666 4.37333,1.81333 2.72,1.01333 4.64,2.08 1.92,1.06667 2.93333,2.61333 1.01333,1.49333 1.01333,3.78667 z"
         id="path383" />
      <path
         d="m 540.30684,164.3239 q 3.68,0 6.29333,1.6 2.66667,1.6 4.05334,4.53333 1.43999,2.88 1.43999,6.77333 v 2.82667 h -19.57332 q 0.10667,4.85333 2.45333,7.41332 2.4,2.50667 6.66667,2.50667 2.72,0 4.79999,-0.48 2.13334,-0.53333 4.37333,-1.49333 v 4.10666 q -2.18666,0.96 -4.31999,1.38667 -2.13333,0.48 -5.06667,0.48 -4.05333,0 -7.19999,-1.65334 -3.09333,-1.65333 -4.85333,-4.90666 -1.70667,-3.30666 -1.70667,-8.05333 0,-4.69333 1.54667,-8.05333 1.6,-3.35999 4.42666,-5.17333 2.88,-1.81333 6.66666,-1.81333 z m -0.0533,3.84 q -3.36,0 -5.33333,2.18666 -1.92,2.13334 -2.29333,5.97333 h 14.55999 q -0.0533,-3.62666 -1.70667,-5.86666 -1.65333,-2.29333 -5.22666,-2.29333 z"
         id="path385" />
      <path
         d="m 565.05343,178.83056 -9.86667,-13.97333 h 5.33333 l 7.36,10.77333 7.30666,-10.77333 h 5.28 l -9.86666,13.97333 10.39999,14.61332 h -5.33333 l -7.78666,-11.41332 -7.89333,11.41332 h -5.28 z"
         id="path387" />
      <path
         d="m 596.04007,190.13722 q 1.06667,0 2.18667,-0.16 1.12,-0.21333 1.81333,-0.42667 v 3.57333 q -0.74666,0.37334 -2.13333,0.58667 -1.38667,0.26667 -2.66666,0.26667 -2.24,0 -4.16,-0.74667 -1.86667,-0.8 -3.04,-2.72 -1.17333,-1.92 -1.17333,-5.38666 V 168.4839 h -4.05333 v -2.24 l 4.10666,-1.86667 1.86667,-6.07999 h 2.77333 v 6.55999 h 8.26666 v 3.62667 h -8.26666 v 16.53332 q 0,2.61333 1.22666,3.89333 1.28,1.22667 3.25333,1.22667 z"
         id="path389" />
      <path
         d="m 616.7867,164.3239 q 3.68,0 6.29333,1.6 2.66667,1.6 4.05333,4.53333 1.44,2.88 1.44,6.77333 v 2.82667 h -19.57332 q 0.10667,4.85333 2.45333,7.41332 2.4,2.50667 6.66667,2.50667 2.71999,0 4.79999,-0.48 2.13333,-0.53333 4.37333,-1.49333 v 4.10666 q -2.18666,0.96 -4.31999,1.38667 -2.13334,0.48 -5.06667,0.48 -4.05333,0 -7.19999,-1.65334 -3.09333,-1.65333 -4.85333,-4.90666 -1.70667,-3.30666 -1.70667,-8.05333 0,-4.69333 1.54667,-8.05333 1.6,-3.35999 4.42666,-5.17333 2.88,-1.81333 6.66666,-1.81333 z m -0.0533,3.84 q -3.36,0 -5.33333,2.18666 -1.92,2.13334 -2.29333,5.97333 h 14.55999 q -0.0533,-3.62666 -1.70667,-5.86666 -1.65333,-2.29333 -5.22666,-2.29333 z"
         id="path391" />
      <path
         d="m 649.58666,164.3239 q 5.11999,0 7.73333,2.50667 2.61333,2.45333 2.61333,7.99999 v 18.61332 h -4.64 v -18.29332 q 0,-6.87999 -6.4,-6.87999 -4.74666,0 -6.55999,2.66666 -1.81333,2.66667 -1.81333,7.68 v 14.82665 h -4.69333 v -28.58665 h 3.78666 l 0.69333,3.89334 h 0.26667 q 1.38667,-2.24 3.84,-3.30667 2.45333,-1.12 5.17333,-1.12 z"
         id="path393" />
      <path
         d="m 678.91995,193.97722 q -5.33333,0 -8.53332,-3.68 -3.2,-3.73333 -3.2,-11.09333 0,-7.35999 3.2,-11.09332 3.25333,-3.78667 8.58666,-3.78667 3.30666,0 5.38666,1.22667 2.13333,1.22666 3.46667,2.98666 h 0.31999 q -0.0533,-0.69333 -0.21333,-2.02666 -0.10666,-1.38667 -0.10666,-2.18667 v -11.41333 h 4.69333 v 40.53331 h -3.78667 l -0.69333,-3.83999 h -0.21333 q -1.28,1.81333 -3.41334,3.09333 -2.13333,1.28 -5.49333,1.28 z m 0.74667,-3.89333 q 4.53333,0 6.34666,-2.45334 1.86667,-2.50666 1.86667,-7.51999 v -0.85333 q 0,-5.33333 -1.76,-8.16 -1.76,-2.88 -6.50666,-2.88 -3.78667,0 -5.70667,3.04 -1.86666,2.98667 -1.86666,8.05333 0,5.12 1.86666,7.94666 1.92,2.82667 5.76,2.82667 z"
         id="path395" />
      <path
         d="m 712.62661,164.3239 q 3.68,0 6.29333,1.6 2.66666,1.6 4.05333,4.53333 1.44,2.88 1.44,6.77333 v 2.82667 h -19.57332 q 0.10666,4.85333 2.45333,7.41332 2.4,2.50667 6.66666,2.50667 2.72,0 4.8,-0.48 2.13333,-0.53333 4.37333,-1.49333 v 4.10666 q -2.18667,0.96 -4.32,1.38667 -2.13333,0.48 -5.06666,0.48 -4.05333,0 -7.2,-1.65334 -3.09333,-1.65333 -4.85333,-4.90666 -1.70666,-3.30666 -1.70666,-8.05333 0,-4.69333 1.54666,-8.05333 1.6,-3.35999 4.42667,-5.17333 2.87999,-1.81333 6.66666,-1.81333 z m -0.0533,3.84 q -3.35999,0 -5.33333,2.18666 -1.91999,2.13334 -2.29333,5.97333 h 14.55999 q -0.0533,-3.62666 -1.70666,-5.86666 -1.65333,-2.29333 -5.22667,-2.29333 z"
         id="path397" />
      <path
         d="m 741.7999,193.97722 q -5.33333,0 -8.53333,-3.68 -3.2,-3.73333 -3.2,-11.09333 0,-7.35999 3.2,-11.09332 3.25333,-3.78667 8.58666,-3.78667 3.30667,0 5.38666,1.22667 2.13334,1.22666 3.46667,2.98666 h 0.32 q -0.0533,-0.69333 -0.21333,-2.02666 -0.10667,-1.38667 -0.10667,-2.18667 v -11.41333 h 4.69333 v 40.53331 h -3.78666 l -0.69334,-3.83999 h -0.21333 q -1.28,1.81333 -3.41333,3.09333 -2.13333,1.28 -5.49333,1.28 z m 0.74666,-3.89333 q 4.53333,0 6.34667,-2.45334 1.86666,-2.50666 1.86666,-7.51999 v -0.85333 q 0,-5.33333 -1.76,-8.16 -1.76,-2.88 -6.50666,-2.88 -3.78666,0 -5.70666,3.04 -1.86667,2.98667 -1.86667,8.05333 0,5.12 1.86667,7.94666 1.92,2.82667 5.75999,2.82667 z"
         id="path399" />
      <path
         d="m 35.080403,243.95052 q -0.693333,-2.18667 -1.226666,-4.26666 -0.48,-2.13334 -0.746666,-3.30667 h -0.213333 q -0.213334,1.17333 -0.693333,3.30667 -0.48,2.07999 -1.226666,4.31999 l -5.119997,16.05333 h -5.33333 l -7.839996,-28.58665 h 4.853331 l 3.946664,15.25332 q 0.586666,2.29333 1.119999,4.64 0.533333,2.34666 0.746667,3.89333 h 0.213333 q 0.213333,-0.90667 0.48,-2.24 0.319999,-1.33333 0.693332,-2.77333 0.373334,-1.49333 0.746667,-2.66667 l 5.066663,-16.10665 h 5.119997 l 4.906664,16.10665 q 0.586666,1.81334 1.119999,3.94667 0.586667,2.13333 0.8,3.68 h 0.213333 q 0.16,-1.33334 0.693333,-3.68 0.586666,-2.34667 1.226666,-4.8 l 3.999998,-15.25332 h 4.799997 l -7.946662,28.58665 h -5.49333 z"
         id="path401" />
      <path
         d="m 69.373678,231.04386 q 5.226664,0 7.733329,2.29333 2.506665,2.29333 2.506665,7.30666 v 19.46666 h -3.413331 l -0.906667,-4.05333 h -0.213333 q -1.866665,2.34666 -3.946664,3.46666 -2.026666,1.12 -5.65333,1.12 -3.893331,0 -6.45333,-2.02666 -2.559998,-2.08 -2.559998,-6.45333 0,-4.26667 3.359998,-6.56 3.359998,-2.34666 10.346661,-2.56 l 4.85333,-0.16 v -1.70666 q 0,-3.57333 -1.546666,-4.96 -1.546666,-1.38667 -4.373331,-1.38667 -2.239998,0 -4.266664,0.69334 -2.026665,0.64 -3.786664,1.49333 l -1.439999,-3.52 q 1.866665,-1.01333 4.426664,-1.70666 2.559998,-0.74667 5.33333,-0.74667 z m 1.386666,15.25332 q -5.33333,0.21334 -7.413329,1.70667 -2.026666,1.49333 -2.026666,4.21333 0,2.4 1.44,3.52 1.493332,1.12 3.786664,1.12 3.626665,0 6.026663,-1.97333 2.399999,-2.02667 2.399999,-6.18667 v -2.56 z"
         id="path403" />
      <path
         d="m 101.80037,230.99053 q 0.8,0 1.70667,0.10666 0.96,0.0533 1.65333,0.21334 l -0.58667,4.31999 q -0.69333,-0.16 -1.54666,-0.26666 -0.8,-0.10667 -1.54667,-0.10667 -2.186663,0 -4.106662,1.22667 -1.919999,1.17333 -3.093332,3.36 -1.119999,2.13333 -1.119999,5.01333 v 15.25332 h -4.693331 v -28.58665 h 3.839998 l 0.533333,5.22666 h 0.213333 q 1.386666,-2.34666 3.573332,-4.05333 2.186665,-1.70666 5.173328,-1.70666 z"
         id="path405" />
      <path
         d="m 123.82703,230.99053 q 0.8,0 1.70666,0.10666 0.96,0.0533 1.65334,0.21334 l -0.58667,4.31999 q -0.69333,-0.16 -1.54667,-0.26666 -0.79999,-0.10667 -1.54666,-0.10667 -2.18667,0 -4.10667,1.22667 -1.91999,1.17333 -3.09333,3.36 -1.12,2.13333 -1.12,5.01333 v 15.25332 h -4.69333 v -28.58665 h 3.84 l 0.53333,5.22666 h 0.21334 q 1.38666,-2.34666 3.57333,-4.05333 2.18666,-1.70666 5.17333,-1.70666 z"
         id="path407" />
      <path
         d="m 142.28033,231.04386 q 5.22667,0 7.73333,2.29333 2.50667,2.29333 2.50667,7.30666 v 19.46666 h -3.41334 l -0.90666,-4.05333 H 147.987 q -1.86667,2.34666 -3.94667,3.46666 -2.02666,1.12 -5.65333,1.12 -3.89333,0 -6.45333,-2.02666 -2.56,-2.08 -2.56,-6.45333 0,-4.26667 3.36,-6.56 3.36,-2.34666 10.34666,-2.56 l 4.85333,-0.16 v -1.70666 q 0,-3.57333 -1.54666,-4.96 -1.54667,-1.38667 -4.37333,-1.38667 -2.24,0 -4.26667,0.69334 -2.02666,0.64 -3.78666,1.49333 l -1.44,-3.52 q 1.86666,-1.01333 4.42666,-1.70666 2.56,-0.74667 5.33333,-0.74667 z m 1.38667,15.25332 q -5.33333,0.21334 -7.41333,1.70667 -2.02667,1.49333 -2.02667,4.21333 0,2.4 1.44,3.52 1.49334,1.12 3.78667,1.12 3.62666,0 6.02666,-1.97333 2.4,-2.02667 2.4,-6.18667 v -2.56 z"
         id="path409" />
      <path
         d="m 175.13368,230.99053 q 5.12,0 7.73333,2.50666 2.61334,2.45333 2.61334,8 v 18.61332 h -4.64 v -18.29332 q 0,-6.88 -6.4,-6.88 -4.74666,0 -6.55999,2.66667 -1.81334,2.66666 -1.81334,7.67999 v 14.82666 h -4.69333 v -28.58665 h 3.78667 l 0.69333,3.89333 h 0.26667 q 1.38666,-2.24 3.83999,-3.30666 2.45334,-1.12 5.17333,-1.12 z"
         id="path411" />
      <path
         d="m 203.88035,256.80385 q 1.06666,0 2.18666,-0.16 1.12,-0.21334 1.81333,-0.42667 v 3.57333 q -0.74666,0.37333 -2.13333,0.58667 -1.38666,0.26666 -2.66666,0.26666 -2.24,0 -4.16,-0.74666 -1.86667,-0.8 -3.04,-2.72 -1.17333,-1.92 -1.17333,-5.38667 v -16.63999 h -4.05333 v -2.23999 l 4.10666,-1.86667 1.86667,-6.08 h 2.77333 v 6.56 h 8.26666 v 3.62666 h -8.26666 v 16.53333 q 0,2.61333 1.22666,3.89333 1.28,1.22667 3.25334,1.22667 z"
         id="path413" />
      <path
         d="m 209.10701,231.52386 h 5.01333 l 6.18667,16.26666 q 0.8,2.13333 1.44,4.10666 0.64,1.92 0.96,3.68 h 0.21333 q 0.32,-1.33333 1.01333,-3.46667 0.69333,-2.18666 1.44,-4.37333 l 5.81333,-16.21332 h 5.06666 l -12.31999,32.53331 q -1.49333,4.05334 -3.89333,6.45333 -2.34666,2.4 -6.50666,2.4 -1.28,0 -2.24,-0.16 -0.96,-0.10666 -1.65333,-0.26666 v -3.73334 q 0.58666,0.10667 1.38666,0.21334 0.85334,0.10666 1.76,0.10666 2.45333,0 3.94667,-1.38666 1.54666,-1.38667 2.39999,-3.68 l 1.49334,-3.78666 z"
         id="path415" />
    </g>
  </g>
</svg>
