<?xml version="1.0" encoding="UTF-8" standalone="no"?>
<!-- Created with Inkscape (http://www.inkscape.org/) -->

<svg
   width="297mm"
   height="210mm"
   viewBox="0 0 1122.5197 793.70081"
   version="1.1"
   id="svg5"
   sodipodi:docname="drawing.svg"
   inkscape:version="1.2.2 (1:1.2.2+202305151914+b0a8486541)"
   xmlns:inkscape="http://www.inkscape.org/namespaces/inkscape"
   xmlns:sodipodi="http://sodipodi.sourceforge.net/DTD/sodipodi-0.dtd"
   xmlns="http://www.w3.org/2000/svg"
   xmlns:svg="http://www.w3.org/2000/svg">
  <sodipodi:namedview
     id="namedview7"
     pagecolor="#ffffff"
     bordercolor="#666666"
     borderopacity="1.0"
     inkscape:showpageshadow="2"
     inkscape:pageopacity="0.0"
     inkscape:pagecheckerboard="0"
     inkscape:deskcolor="#d1d1d1"
     inkscape:document-units="mm"
     showgrid="false"
     inkscape:zoom="1.1670174"
     inkscape:cx="561.25984"
     inkscape:cy="396.73787"
     inkscape:window-width="2186"
     inkscape:window-height="1435"
     inkscape:window-x="0"
     inkscape:window-y="0"
     inkscape:window-maximized="1"
     inkscape:current-layer="layer1" />
  <defs
     id="defs2">
    <rect
       x="12.093463"
       y="11.584687"
       width="1073.6203"
       height="282.12278"
       id="rect113" />
  </defs>
  <g
     inkscape:label="Layer 1"
     inkscape:groupmode="layer"
     id="layer1">
    <g
       aria-label="
We've been trying to
reach you about your 
cars extended warranty"
       id="text111"
       style="font-size:53.3333px;line-height:1.25;white-space:pre;shape-inside:url(#rect113);display:inline">
      <path
         d="M 61.000388,88.697281 50.86706,126.77726 h -4.85333 l -7.413329,-24.95999 q -0.426667,-1.54666 -0.853333,-3.093329 -0.426666,-1.546665 -0.693333,-2.719998 -0.266666,-1.226666 -0.373333,-1.706666 -0.05333,0.693333 -0.586666,2.986665 -0.48,2.239999 -1.226666,4.693328 l -7.199996,24.79999 h -4.85333 L 12.73375,88.697281 h 5.01333 l 5.919996,23.253319 q 0.64,2.45333 1.066666,4.74666 0.48,2.29334 0.746667,4.32 0.266666,-2.08 0.799999,-4.53333 0.533333,-2.45333 1.226666,-4.8 L 34.22707,88.697281 h 4.959997 l 6.986663,23.146649 q 0.746666,2.45334 1.279999,4.90667 0.533333,2.4 0.799999,4.26666 0.266667,-1.97333 0.746667,-4.26666 0.479999,-2.34667 1.119999,-4.85333 l 5.866663,-23.199989 z"
         id="path508" />
      <path
         d="m 76.200369,97.657275 q 3.679998,0 6.293329,1.599999 2.666665,1.599996 4.053331,4.533326 1.439999,2.88 1.439999,6.77333 v 2.82667 H 68.413707 q 0.106666,4.85333 2.453332,7.41333 2.399998,2.50666 6.666662,2.50666 2.719999,0 4.799997,-0.48 2.133332,-0.53333 4.373331,-1.49333 v 4.10667 q -2.186665,0.95999 -4.319997,1.38666 -2.133332,0.48 -5.066664,0.48 -4.053331,0 -7.199996,-1.65333 -3.093331,-1.65333 -4.85333,-4.90667 -1.706666,-3.30666 -1.706666,-8.05332 0,-4.69333 1.546666,-8.05333 1.599999,-3.36 4.426664,-5.173333 2.879998,-1.813332 6.666663,-1.813332 z m -0.05333,3.839995 q -3.359998,0 -5.33333,2.18667 -1.919999,2.13333 -2.293332,5.97333 h 14.559992 q -0.05333,-3.62667 -1.706666,-5.86667 -1.653332,-2.29333 -5.226664,-2.29333 z"
         id="path510" />
      <path
         d="M 98.706966,88.697281 97.6403,102.45727 H 94.706968 L 93.640302,88.697281 Z"
         id="path512" />
      <path
         d="M 113.00031,126.77726 102.17365,98.190608 h 5.01333 l 6.08,16.853322 q 0.42667,1.17333 0.90667,2.61333 0.48,1.44 0.85333,2.77333 0.37333,1.28 0.53333,2.18667 h 0.21333 q 0.21334,-0.90667 0.58667,-2.24 0.42667,-1.33333 0.90667,-2.77333 0.53333,-1.44 0.90666,-2.56 l 6.08,-16.853322 h 5.01333 l -10.87999,28.586652 z"
         id="path514" />
      <path
         d="m 144.84026,97.657275 q 3.68,0 6.29333,1.599999 2.66667,1.599996 4.05333,4.533326 1.44,2.88 1.44,6.77333 v 2.82667 H 137.0536 q 0.10667,4.85333 2.45333,7.41333 2.4,2.50666 6.66666,2.50666 2.72,0 4.8,-0.48 2.13333,-0.53333 4.37333,-1.49333 v 4.10667 q -2.18666,0.95999 -4.32,1.38666 -2.13333,0.48 -5.06666,0.48 -4.05333,0 -7.2,-1.65333 -3.09333,-1.65333 -4.85333,-4.90667 -1.70666,-3.30666 -1.70666,-8.05332 0,-4.69333 1.54666,-8.05333 1.6,-3.36 4.42667,-5.173333 2.88,-1.813332 6.66666,-1.813332 z m -0.0533,3.839995 q -3.36,0 -5.33333,2.18667 -1.92,2.13333 -2.29333,5.97333 h 14.55999 q -0.0533,-3.62667 -1.70667,-5.86667 -1.65333,-2.29333 -5.22666,-2.29333 z"
         id="path516" />
      <path
         d="m 182.44021,96.110609 q 0,1.813333 -0.10667,3.413332 -0.0533,1.546669 -0.16,2.453329 h 0.26667 q 1.22666,-1.81333 3.36,-3.039996 2.13333,-1.226665 5.49333,-1.226665 5.33333,0 8.53332,3.733331 3.25334,3.68 3.25334,11.03999 0,7.36 -3.25334,11.09333 -3.25333,3.73333 -8.53332,3.73333 -3.36,0 -5.49333,-1.22667 -2.13334,-1.22666 -3.36,-2.93333 h -0.37334 l -0.95999,3.62667 h -3.36 V 86.243949 h 4.69333 z m 8.05333,5.493331 q -4.53333,0 -6.29333,2.61333 -1.76,2.61333 -1.76,8.10666 v 0.21334 q 0,5.27999 1.70666,8.10666 1.76,2.77333 6.45333,2.77333 3.84,0 5.70667,-2.82667 1.92,-2.82666 1.92,-8.15999 0,-10.82666 -7.73333,-10.82666 z"
         id="path518" />
      <path
         d="m 221.58684,97.657275 q 3.68,0 6.29333,1.599999 2.66667,1.599996 4.05333,4.533326 1.44,2.88 1.44,6.77333 v 2.82667 h -19.57332 q 0.10667,4.85333 2.45333,7.41333 2.4,2.50666 6.66667,2.50666 2.71999,0 4.79999,-0.48 2.13334,-0.53333 4.37333,-1.49333 v 4.10667 q -2.18666,0.95999 -4.31999,1.38666 -2.13334,0.48 -5.06667,0.48 -4.05333,0 -7.19999,-1.65333 -3.09333,-1.65333 -4.85333,-4.90667 -1.70667,-3.30666 -1.70667,-8.05332 0,-4.69333 1.54667,-8.05333 1.6,-3.36 4.42666,-5.173333 2.88,-1.813332 6.66666,-1.813332 z m -0.0533,3.839995 q -3.36,0 -5.33333,2.18667 -1.92,2.13333 -2.29333,5.97333 h 14.55999 q -0.0533,-3.62667 -1.70667,-5.86667 -1.65333,-2.29333 -5.22666,-2.29333 z"
         id="path520" />
      <path
         d="m 251.66678,97.657275 q 3.68,0 6.29333,1.599999 2.66667,1.599996 4.05333,4.533326 1.44,2.88 1.44,6.77333 v 2.82667 h -19.57332 q 0.10667,4.85333 2.45333,7.41333 2.4,2.50666 6.66667,2.50666 2.72,0 4.79999,-0.48 2.13334,-0.53333 4.37333,-1.49333 v 4.10667 q -2.18666,0.95999 -4.31999,1.38666 -2.13333,0.48 -5.06667,0.48 -4.05333,0 -7.19999,-1.65333 -3.09333,-1.65333 -4.85333,-4.90667 -1.70667,-3.30666 -1.70667,-8.05332 0,-4.69333 1.54667,-8.05333 1.6,-3.36 4.42666,-5.173333 2.88,-1.813332 6.66666,-1.813332 z m -0.0533,3.839995 q -3.36,0 -5.33333,2.18667 -1.92,2.13333 -2.29333,5.97333 h 14.55999 q -0.0533,-3.62667 -1.70667,-5.86667 -1.65333,-2.29333 -5.22666,-2.29333 z"
         id="path522" />
      <path
         d="m 284.46672,97.657275 q 5.12,0 7.73333,2.506665 2.61333,2.45333 2.61333,8 v 18.61332 h -4.63999 v -18.29332 q 0,-6.88 -6.4,-6.88 -4.74666,0 -6.56,2.66666 -1.81333,2.66667 -1.81333,7.68 v 14.82666 h -4.69333 V 98.190608 h 3.78667 l 0.69333,3.893332 h 0.26667 q 1.38666,-2.239999 3.83999,-3.306665 2.45333,-1.12 5.17333,-1.12 z"
         id="path524" />
      <path
         d="m 327.08005,123.47059 q 1.06667,0 2.18667,-0.16 1.12,-0.21333 1.81333,-0.42666 v 3.57333 q -0.74667,0.37333 -2.13333,0.58666 -1.38667,0.26667 -2.66667,0.26667 -2.24,0 -4.15999,-0.74667 -1.86667,-0.79999 -3.04,-2.71999 -1.17334,-1.92 -1.17334,-5.38667 v -16.63999 h -4.05333 v -2.239996 l 4.10667,-1.866665 1.86666,-6.079997 h 2.77334 v 6.559996 h 8.26666 v 3.626662 h -8.26666 v 16.53333 q 0,2.61333 1.22666,3.89333 1.28,1.22666 3.25333,1.22666 z"
         id="path526" />
      <path
         d="m 350.12001,97.657275 q 0.8,0 1.70667,0.106667 0.96,0.05333 1.65333,0.213333 l -0.58667,4.319995 q -0.69333,-0.16 -1.54666,-0.26666 -0.8,-0.10667 -1.54667,-0.10667 -2.18666,0 -4.10666,1.22667 -1.92,1.17333 -3.09333,3.35999 -1.12,2.13334 -1.12,5.01333 v 15.25333 h -4.69333 V 98.190608 h 3.84 l 0.53333,5.226662 h 0.21333 q 1.38667,-2.34666 3.57333,-4.053329 2.18667,-1.706666 5.17333,-1.706666 z"
         id="path528" />
      <path
         d="m 354.33336,98.190608 h 5.01333 l 6.18667,16.266662 q 0.8,2.13333 1.44,4.10666 0.63999,1.92 0.95999,3.68 h 0.21334 q 0.32,-1.33334 1.01333,-3.46667 0.69333,-2.18666 1.44,-4.37333 l 5.81333,-16.213322 h 5.06666 l -12.31999,32.533312 q -1.49333,4.05333 -3.89333,6.45333 -2.34667,2.4 -6.50666,2.4 -1.28,0 -2.24,-0.16 -0.96,-0.10667 -1.65333,-0.26667 v -3.73333 q 0.58666,0.10667 1.38666,0.21334 0.85333,0.10666 1.76,0.10666 2.45333,0 3.94666,-1.38666 1.54667,-1.38667 2.4,-3.68 l 1.49334,-3.78667 z"
         id="path530" />
      <path
         d="m 388.41337,87.470615 q 1.06667,0 1.86667,0.746666 0.85333,0.693333 0.85333,2.239999 0,1.493332 -0.85333,2.239998 -0.8,0.746666 -1.86667,0.746666 -1.17333,0 -1.97333,-0.746666 -0.8,-0.746666 -0.8,-2.239998 0,-1.546666 0.8,-2.239999 0.8,-0.746666 1.97333,-0.746666 z m 2.29333,10.719993 v 28.586652 h -4.69333 V 98.190608 Z"
         id="path532" />
      <path
         d="m 413.53331,97.657275 q 5.12,0 7.73333,2.506665 2.61333,2.45333 2.61333,8 v 18.61332 h -4.63999 v -18.29332 q 0,-6.88 -6.4,-6.88 -4.74666,0 -6.56,2.66666 -1.81333,2.66667 -1.81333,7.68 v 14.82666 h -4.69333 V 98.190608 h 3.78667 l 0.69333,3.893332 h 0.26666 q 1.38667,-2.239999 3.84,-3.306665 2.45333,-1.12 5.17333,-1.12 z"
         id="path534" />
      <path
         d="m 442.86664,97.657275 q 2.82666,0 5.06666,1.066666 2.29334,1.066666 3.89333,3.253329 h 0.26667 l 0.64,-3.786662 h 3.73333 v 29.066652 q 0,6.13333 -3.14666,9.22666 -3.09333,3.09333 -9.65333,3.09333 -6.29333,0 -10.29333,-1.81333 v -4.32 q 4.21333,2.24 10.56,2.24 3.67999,0 5.75999,-2.18667 2.13333,-2.13333 2.13333,-5.86666 v -1.12 q 0,-0.64 0.0533,-1.81333 0.0533,-1.22667 0.10666,-1.70667 h -0.21333 q -2.88,4.32 -8.85333,4.32 -5.54666,0 -8.69333,-3.89333 -3.09333,-3.89333 -3.09333,-10.87999 0,-6.82667 3.09333,-10.82666 3.14667,-4.053335 8.64,-4.053335 z m 0.64,3.946665 q -3.57333,0 -5.54666,2.88 -1.97334,2.82666 -1.97334,8.10666 0,5.28 1.92,8.10666 1.97333,2.77333 5.70667,2.77333 4.31999,0 6.29333,-2.29333 1.97333,-2.34666 1.97333,-7.51999 v -1.12 q 0,-5.86667 -2.02667,-8.37333 -2.02666,-2.56 -6.34666,-2.56 z"
         id="path536" />
      <path
         d="m 488.9466,123.47059 q 1.06667,0 2.18666,-0.16 1.12,-0.21333 1.81334,-0.42666 v 3.57333 q -0.74667,0.37333 -2.13334,0.58666 -1.38666,0.26667 -2.66666,0.26667 -2.24,0 -4.16,-0.74667 -1.86666,-0.79999 -3.04,-2.71999 -1.17333,-1.92 -1.17333,-5.38667 v -16.63999 h -4.05333 v -2.239996 l 4.10666,-1.866665 1.86667,-6.079997 h 2.77333 v 6.559996 h 8.26666 v 3.626662 h -8.26666 v 16.53333 q 0,2.61333 1.22667,3.89333 1.28,1.22666 3.25333,1.22666 z"
         id="path538" />
      <path
         d="m 523.50658,112.4306 q 0,7.09333 -3.62666,10.98666 -3.57333,3.89333 -9.70666,3.89333 -3.78667,0 -6.77333,-1.70666 -2.93333,-1.76 -4.64,-5.06667 -1.70666,-3.36 -1.70666,-8.10666 0,-7.09333 3.57333,-10.93333 3.57333,-3.839995 9.70666,-3.839995 3.89333,0 6.82666,1.759999 2.98667,1.706666 4.64,5.013326 1.70666,3.25334 1.70666,8 z m -21.59998,0 q 0,5.06666 1.97333,8.05333 2.02666,2.93333 6.39999,2.93333 4.32,0 6.34667,-2.93333 2.02666,-2.98667 2.02666,-8.05333 0,-5.06666 -2.02666,-7.94666 -2.02667,-2.88 -6.4,-2.88 -4.37333,0 -6.34666,2.88 -1.97333,2.88 -1.97333,7.94666 z"
         id="path540" />
      <path
         d="m 29.960406,164.3239 q 0.8,0 1.706666,0.10667 0.959999,0.0533 1.653332,0.21333 l -0.586666,4.32 q -0.693333,-0.16 -1.546666,-0.26667 -0.8,-0.10666 -1.546666,-0.10666 -2.186665,0 -4.106664,1.22666 -1.919999,1.17333 -3.093332,3.36 -1.119999,2.13333 -1.119999,5.01333 v 15.25332 h -4.69333 v -28.58665 h 3.839997 l 0.533333,5.22667 h 0.213334 q 1.386665,-2.34667 3.573331,-4.05333 2.186665,-1.70667 5.17333,-1.70667 z"
         id="path542" />
      <path
         d="m 48.627043,164.3239 q 3.679997,0 6.293329,1.6 2.666665,1.6 4.053331,4.53333 1.439999,2.88 1.439999,6.77333 v 2.82667 H 40.840381 q 0.106666,4.85333 2.453331,7.41332 2.399999,2.50667 6.666663,2.50667 2.719999,0 4.799997,-0.48 2.133332,-0.53333 4.373331,-1.49333 v 4.10666 q -2.186665,0.96 -4.319997,1.38667 -2.133332,0.48 -5.066664,0.48 -4.053331,0 -7.199996,-1.65334 -3.093331,-1.65333 -4.85333,-4.90666 -1.706666,-3.30666 -1.706666,-8.05333 0,-4.69333 1.546666,-8.05333 1.599999,-3.35999 4.426664,-5.17333 2.879998,-1.81333 6.666663,-1.81333 z m -0.05333,3.84 q -3.359998,0 -5.33333,2.18666 -1.919999,2.13334 -2.293332,5.97333 h 14.559992 q -0.05333,-3.62666 -1.706666,-5.86666 -1.653332,-2.29333 -5.226664,-2.29333 z"
         id="path544" />
      <path
         d="m 78.49365,164.37723 q 5.226664,0 7.733329,2.29334 2.506665,2.29333 2.506665,7.30666 v 19.46665 h -3.413331 l -0.906666,-4.05333 h -0.213334 q -1.866665,2.34667 -3.946664,3.46667 -2.026665,1.12 -5.65333,1.12 -3.893331,0 -6.453329,-2.02667 -2.559999,-2.08 -2.559999,-6.45333 0,-4.26666 3.359998,-6.55999 3.359998,-2.34667 10.346661,-2.56 l 4.85333,-0.16 v -1.70667 q 0,-3.57333 -1.546666,-4.96 -1.546665,-1.38666 -4.37333,-1.38666 -2.239999,0 -4.266664,0.69333 -2.026666,0.64 -3.786665,1.49333 l -1.439999,-3.51999 q 1.866666,-1.01334 4.426664,-1.70667 2.559999,-0.74667 5.33333,-0.74667 z m 1.386666,15.25333 q -5.33333,0.21333 -7.413329,1.70666 -2.026665,1.49334 -2.026665,4.21334 0,2.39999 1.439999,3.51999 1.493332,1.12 3.786664,1.12 3.626665,0 6.026663,-1.97333 2.399999,-2.02667 2.399999,-6.18666 v -2.56 z"
         id="path546" />
      <path
         d="m 109.05367,193.97722 q -3.78666,0 -6.77333,-1.54667 -2.93333,-1.54666 -4.639996,-4.8 -1.653332,-3.25333 -1.653332,-8.31999 0,-5.28 1.759999,-8.58666 1.759999,-3.30667 4.746659,-4.85333 3.04,-1.54667 6.88,-1.54667 2.18667,0 4.21333,0.48 2.02667,0.42667 3.30667,1.06667 l -1.44,3.89333 q -1.28,-0.48 -2.98667,-0.90667 -1.70666,-0.42666 -3.2,-0.42666 -8.42666,0 -8.42666,10.82666 0,5.17333 2.02667,7.94666 2.08,2.72 6.13333,2.72 2.34666,0 4.10666,-0.48 1.81333,-0.48 3.30667,-1.17334 v 4.16 q -1.44,0.74667 -3.2,1.12 -1.70667,0.42667 -4.16,0.42667 z"
         id="path548" />
      <path
         d="m 127.8803,164.8039 q 0,2.13333 -0.26666,4 h 0.32 q 1.38666,-2.18667 3.73333,-3.30667 2.39999,-1.12 5.17333,-1.12 5.22666,0 7.83999,2.50667 2.61333,2.45333 2.61333,7.94666 v 18.61332 h -4.63999 v -18.29332 q 0,-6.87999 -6.4,-6.87999 -4.8,0 -6.61333,2.71999 -1.76,2.66667 -1.76,7.68 v 14.77332 h -4.69333 v -40.53331 h 4.69333 z"
         id="path550" />
      <path
         d="m 165.53363,164.85723 h 5.01333 l 6.18667,16.26666 q 0.8,2.13333 1.44,4.10667 0.64,1.91999 0.96,3.67999 h 0.21333 q 0.32,-1.33333 1.01333,-3.46666 0.69333,-2.18667 1.44,-4.37333 l 5.81333,-16.21333 h 5.06666 l -12.31999,32.53332 q -1.49333,4.05333 -3.89333,6.45333 -2.34666,2.4 -6.50666,2.4 -1.28,0 -2.24,-0.16 -0.96,-0.10667 -1.65333,-0.26667 v -3.73333 q 0.58666,0.10667 1.38666,0.21333 0.85334,0.10667 1.76,0.10667 2.45333,0 3.94667,-1.38667 1.54666,-1.38666 2.39999,-3.68 l 1.49334,-3.78666 z"
         id="path552" />
      <path
         d="m 222.06695,179.09723 q 0,7.09332 -3.62667,10.98666 -3.57333,3.89333 -9.70666,3.89333 -3.78666,0 -6.77333,-1.70667 -2.93333,-1.76 -4.63999,-5.06666 -1.70667,-3.36 -1.70667,-8.10666 0,-7.09333 3.57333,-10.93333 3.57333,-3.84 9.70666,-3.84 3.89333,0 6.82666,1.76 2.98667,1.70667 4.64,5.01333 1.70667,3.25333 1.70667,8 z m -21.59999,0 q 0,5.06666 1.97333,8.05332 2.02667,2.93334 6.4,2.93334 4.32,0 6.34666,-2.93334 2.02667,-2.98666 2.02667,-8.05332 0,-5.06667 -2.02667,-7.94667 -2.02666,-2.87999 -6.4,-2.87999 -4.37333,0 -6.34666,2.87999 -1.97333,2.88 -1.97333,7.94667 z"
         id="path554" />
      <path
         d="m 253.37356,164.85723 v 28.58665 h -3.83999 l -0.69334,-3.78666 h -0.21333 q -1.38667,2.24 -3.84,3.30666 -2.45333,1.01334 -5.22666,1.01334 -5.17333,0 -7.78666,-2.45333 -2.61333,-2.50667 -2.61333,-7.94667 v -18.71999 h 4.74666 v 18.39999 q 0,6.82667 6.34666,6.82667 4.74667,0 6.56,-2.66667 1.86666,-2.66666 1.86666,-7.67999 v -14.88 z"
         id="path556" />
      <path
         d="m 287.13355,164.37723 q 5.22666,0 7.73333,2.29334 2.50666,2.29333 2.50666,7.30666 v 19.46665 h -3.41333 l -0.90666,-4.05333 h -0.21334 q -1.86666,2.34667 -3.94666,3.46667 -2.02667,1.12 -5.65333,1.12 -3.89333,0 -6.45333,-2.02667 -2.56,-2.08 -2.56,-6.45333 0,-4.26666 3.36,-6.55999 3.36,-2.34667 10.34666,-2.56 l 4.85333,-0.16 v -1.70667 q 0,-3.57333 -1.54667,-4.96 -1.54666,-1.38666 -4.37333,-1.38666 -2.23999,0 -4.26666,0.69333 -2.02667,0.64 -3.78666,1.49333 l -1.44,-3.51999 q 1.86666,-1.01334 4.42666,-1.70667 2.56,-0.74667 5.33333,-0.74667 z m 1.38667,15.25333 q -5.33333,0.21333 -7.41333,1.70666 -2.02667,1.49334 -2.02667,4.21334 0,2.39999 1.44,3.51999 1.49333,1.12 3.78667,1.12 3.62666,0 6.02666,-1.97333 2.4,-2.02667 2.4,-6.18666 v -2.56 z"
         id="path558" />
      <path
         d="m 310.92026,162.77724 q 0,1.81333 -0.10666,3.41333 -0.0533,1.54666 -0.16,2.45333 h 0.26666 q 1.22667,-1.81333 3.36,-3.04 2.13333,-1.22667 5.49333,-1.22667 5.33333,0 8.53333,3.73334 3.25333,3.67999 3.25333,11.03999 0,7.35999 -3.25333,11.09333 -3.25333,3.73333 -8.53333,3.73333 -3.36,0 -5.49333,-1.22667 -2.13333,-1.22666 -3.36,-2.93333 h -0.37333 l -0.96,3.62666 h -3.36 v -40.53331 h 4.69333 z m 8.05333,5.49333 q -4.53333,0 -6.29333,2.61333 -1.76,2.61333 -1.76,8.10666 v 0.21333 q 0,5.28 1.70667,8.10666 1.76,2.77334 6.45333,2.77334 3.84,0 5.70666,-2.82667 1.92,-2.82666 1.92,-8.15999 0,-10.82666 -7.73333,-10.82666 z"
         id="path560" />
      <path
         d="m 363.88021,179.09723 q 0,7.09332 -3.62666,10.98666 -3.57334,3.89333 -9.70667,3.89333 -3.78666,0 -6.77332,-1.70667 -2.93334,-1.76 -4.64,-5.06666 -1.70667,-3.36 -1.70667,-8.10666 0,-7.09333 3.57333,-10.93333 3.57333,-3.84 9.70666,-3.84 3.89334,0 6.82667,1.76 2.98666,1.70667 4.63999,5.01333 1.70667,3.25333 1.70667,8 z m -21.59999,0 q 0,5.06666 1.97333,8.05332 2.02667,2.93334 6.4,2.93334 4.32,0 6.34666,-2.93334 2.02667,-2.98666 2.02667,-8.05332 0,-5.06667 -2.02667,-7.94667 -2.02666,-2.87999 -6.39999,-2.87999 -4.37333,0 -6.34667,2.87999 -1.97333,2.88 -1.97333,7.94667 z"
         id="path562" />
      <path
         d="m 395.18684,164.85723 v 28.58665 h -3.84 l -0.69333,-3.78666 h -0.21333 q -1.38667,2.24 -3.84,3.30666 -2.45333,1.01334 -5.22666,1.01334 -5.17333,0 -7.78666,-2.45333 -2.61334,-2.50667 -2.61334,-7.94667 v -18.71999 h 4.74667 v 18.39999 q 0,6.82667 6.34666,6.82667 4.74666,0 6.56,-2.66667 1.86666,-2.66666 1.86666,-7.67999 v -14.88 z"
         id="path564" />
      <path
         d="m 413.80018,190.13722 q 1.06666,0 2.18666,-0.16 1.12,-0.21333 1.81333,-0.42667 v 3.57333 q -0.74666,0.37334 -2.13333,0.58667 -1.38666,0.26667 -2.66666,0.26667 -2.24,0 -4.16,-0.74667 -1.86667,-0.8 -3.04,-2.72 -1.17333,-1.92 -1.17333,-5.38666 V 168.4839 h -4.05333 v -2.24 l 4.10666,-1.86667 1.86667,-6.07999 h 2.77333 v 6.55999 h 8.26666 v 3.62667 h -8.26666 v 16.53332 q 0,2.61333 1.22666,3.89333 1.28,1.22667 3.25334,1.22667 z"
         id="path566" />
      <path
         d="m 432.89351,164.85723 h 5.01333 l 6.18667,16.26666 q 0.8,2.13333 1.44,4.10667 0.63999,1.91999 0.95999,3.67999 h 0.21334 q 0.32,-1.33333 1.01333,-3.46666 0.69333,-2.18667 1.44,-4.37333 l 5.81333,-16.21333 h 5.06666 l -12.31999,32.53332 q -1.49333,4.05333 -3.89333,6.45333 -2.34667,2.4 -6.50666,2.4 -1.28,0 -2.24,-0.16 -0.96,-0.10667 -1.65333,-0.26667 v -3.73333 q 0.58666,0.10667 1.38666,0.21333 0.85333,0.10667 1.76,0.10667 2.45333,0 3.94666,-1.38667 1.54667,-1.38666 2.4,-3.68 l 1.49334,-3.78666 z"
         id="path568" />
      <path
         d="m 489.42681,179.09723 q 0,7.09332 -3.62666,10.98666 -3.57334,3.89333 -9.70667,3.89333 -3.78666,0 -6.77332,-1.70667 -2.93334,-1.76 -4.64,-5.06666 -1.70667,-3.36 -1.70667,-8.10666 0,-7.09333 3.57333,-10.93333 3.57334,-3.84 9.70666,-3.84 3.89334,0 6.82667,1.76 2.98666,1.70667 4.63999,5.01333 1.70667,3.25333 1.70667,8 z m -21.59999,0 q 0,5.06666 1.97334,8.05332 2.02666,2.93334 6.39999,2.93334 4.32,0 6.34666,-2.93334 2.02667,-2.98666 2.02667,-8.05332 0,-5.06667 -2.02667,-7.94667 -2.02666,-2.87999 -6.39999,-2.87999 -4.37333,0 -6.34666,2.87999 -1.97334,2.88 -1.97334,7.94667 z"
         id="path570" />
      <path
         d="m 520.73344,164.85723 v 28.58665 h -3.83999 l -0.69334,-3.78666 h -0.21333 q -1.38667,2.24 -3.84,3.30666 -2.45333,1.01334 -5.22666,1.01334 -5.17333,0 -7.78666,-2.45333 -2.61334,-2.50667 -2.61334,-7.94667 v -18.71999 h 4.74667 v 18.39999 q 0,6.82667 6.34666,6.82667 4.74666,0 6.56,-2.66667 1.86666,-2.66666 1.86666,-7.67999 v -14.88 z"
         id="path572" />
      <path
         d="m 543.13344,164.3239 q 0.8,0 1.70667,0.10667 0.96,0.0533 1.65333,0.21333 l -0.58667,4.32 q -0.69333,-0.16 -1.54666,-0.26667 -0.8,-0.10666 -1.54667,-0.10666 -2.18666,0 -4.10666,1.22666 -1.92,1.17333 -3.09333,3.36 -1.12,2.13333 -1.12,5.01333 v 15.25332 h -4.69333 v -28.58665 h 3.83999 l 0.53334,5.22667 h 0.21333 q 1.38667,-2.34667 3.57333,-4.05333 2.18667,-1.70667 5.17333,-1.70667 z"
         id="path574" />
      <path
         d="m 28.09374,260.64384 q -3.786664,0 -6.773329,-1.54666 -2.933331,-1.54667 -4.639997,-4.8 -1.653332,-3.25333 -1.653332,-8.32 0,-5.27999 1.759999,-8.58666 1.759998,-3.30666 4.746663,-4.85333 3.039999,-1.54666 6.879996,-1.54666 2.186666,0 4.213331,0.48 2.026666,0.42666 3.306665,1.06666 l -1.439999,3.89333 q -1.28,-0.48 -2.986665,-0.90666 -1.706666,-0.42667 -3.199998,-0.42667 -8.426662,0 -8.426662,10.82666 0,5.17333 2.026665,7.94666 2.079999,2.72 6.13333,2.72 2.346665,0 4.106664,-0.48 1.813333,-0.48 3.306665,-1.17333 v 4.16 q -1.439999,0.74666 -3.199998,1.12 -1.706666,0.42666 -4.159998,0.42666 z"
         id="path576" />
      <path
         d="m 53.053701,231.04386 q 5.226664,0 7.733329,2.29333 2.506665,2.29333 2.506665,7.30666 v 19.46666 h -3.413331 l -0.906666,-4.05333 h -0.213334 q -1.866665,2.34666 -3.946664,3.46666 -2.026665,1.12 -5.65333,1.12 -3.893331,0 -6.453329,-2.02666 -2.559999,-2.08 -2.559999,-6.45333 0,-4.26667 3.359998,-6.56 3.359998,-2.34666 10.346661,-2.56 l 4.85333,-0.16 v -1.70666 q 0,-3.57333 -1.546666,-4.96 -1.546665,-1.38667 -4.37333,-1.38667 -2.239999,0 -4.266664,0.69334 -2.026666,0.64 -3.786665,1.49333 l -1.439999,-3.52 q 1.866666,-1.01333 4.426664,-1.70666 2.559998,-0.74667 5.33333,-0.74667 z m 1.386666,15.25332 q -5.33333,0.21334 -7.413329,1.70667 -2.026665,1.49333 -2.026665,4.21333 0,2.4 1.439999,3.52 1.493332,1.12 3.786664,1.12 3.626665,0 6.026663,-1.97333 2.399999,-2.02667 2.399999,-6.18667 v -2.56 z"
         id="path578" />
      <path
         d="m 85.480395,230.99053 q 0.8,0 1.706666,0.10666 0.959999,0.0533 1.653332,0.21334 l -0.586666,4.31999 q -0.693333,-0.16 -1.546666,-0.26666 -0.8,-0.10667 -1.546666,-0.10667 -2.186665,0 -4.106664,1.22667 -1.919999,1.17333 -3.093331,3.36 -1.12,2.13333 -1.12,5.01333 v 15.25332 h -4.69333 v -28.58665 h 3.839997 l 0.533333,5.22666 h 0.213334 q 1.386665,-2.34666 3.573331,-4.05333 2.186665,-1.70666 5.17333,-1.70666 z"
         id="path580" />
      <path
         d="m 112.78705,252.21718 q 0,4.16 -3.09333,6.29333 -3.09333,2.13333 -8.32,2.13333 -2.986662,0 -5.173328,-0.48 -2.133332,-0.48 -3.786664,-1.33333 v -4.26666 q 1.706665,0.85333 4.106664,1.6 2.453332,0.69333 4.959998,0.69333 3.57333,0 5.17333,-1.12 1.6,-1.17333 1.6,-3.09333 0,-1.06667 -0.58667,-1.92 -0.58666,-0.85333 -2.13333,-1.70667 -1.49333,-0.85333 -4.32,-1.92 -2.773329,-1.06666 -4.746661,-2.13333 -1.973332,-1.06666 -3.039998,-2.56 -1.066667,-1.49333 -1.066667,-3.83999 0,-3.62667 2.933332,-5.6 2.986665,-1.97333 7.786664,-1.97333 2.61333,0 4.85333,0.53333 2.29333,0.48 4.26666,1.38667 l -1.6,3.73333 q -1.81333,-0.74667 -3.78666,-1.28 -1.97333,-0.53334 -4.05333,-0.53334 -2.88,0 -4.426666,0.96 -1.493332,0.90667 -1.493332,2.50667 0,1.17333 0.693333,2.02666 0.693333,0.8 2.293332,1.6 1.653333,0.74667 4.373333,1.81334 2.72,1.01333 4.63999,2.08 1.92,1.06666 2.93334,2.61333 1.01333,1.49333 1.01333,3.78666 z"
         id="path582" />
      <path
         d="m 144.62705,230.99053 q 3.68,0 6.29333,1.6 2.66666,1.6 4.05333,4.53333 1.44,2.88 1.44,6.77333 v 2.82666 h -19.57332 q 0.10666,4.85333 2.45333,7.41333 2.4,2.50667 6.66666,2.50667 2.72,0 4.8,-0.48 2.13333,-0.53334 4.37333,-1.49334 v 4.10667 q -2.18666,0.96 -4.32,1.38666 -2.13333,0.48 -5.06666,0.48 -4.05333,0 -7.2,-1.65333 -3.09333,-1.65333 -4.85333,-4.90666 -1.70666,-3.30667 -1.70666,-8.05333 0,-4.69333 1.54666,-8.05333 1.6,-3.36 4.42667,-5.17333 2.88,-1.81333 6.66666,-1.81333 z m -0.0533,3.83999 q -3.36,0 -5.33333,2.18667 -1.92,2.13333 -2.29334,5.97333 h 14.56 q -0.0533,-3.62666 -1.70667,-5.86666 -1.65333,-2.29334 -5.22666,-2.29334 z"
         id="path584" />
      <path
         d="m 169.37363,245.49719 -9.86666,-13.97333 h 5.33333 l 7.36,10.77333 7.30666,-10.77333 h 5.27999 l -9.86666,13.97333 10.4,14.61332 h -5.33333 l -7.78666,-11.41333 -7.89333,11.41333 h -5.28 z"
         id="path586" />
      <path
         d="m 200.36025,256.80385 q 1.06667,0 2.18667,-0.16 1.11999,-0.21334 1.81333,-0.42667 v 3.57333 q -0.74667,0.37333 -2.13333,0.58667 -1.38667,0.26666 -2.66667,0.26666 -2.24,0 -4.16,-0.74666 -1.86666,-0.8 -3.04,-2.72 -1.17333,-1.92 -1.17333,-5.38667 v -16.63999 h -4.05333 v -2.23999 l 4.10667,-1.86667 1.86666,-6.08 h 2.77333 v 6.56 h 8.26666 v 3.62666 h -8.26666 v 16.53333 q 0,2.61333 1.22667,3.89333 1.28,1.22667 3.25333,1.22667 z"
         id="path588" />
      <path
         d="m 221.10689,230.99053 q 3.68,0 6.29333,1.6 2.66667,1.6 4.05333,4.53333 1.44,2.88 1.44,6.77333 v 2.82666 h -19.57332 q 0.10667,4.85333 2.45333,7.41333 2.4,2.50667 6.66667,2.50667 2.71999,0 4.79999,-0.48 2.13334,-0.53334 4.37333,-1.49334 v 4.10667 q -2.18666,0.96 -4.31999,1.38666 -2.13334,0.48 -5.06667,0.48 -4.05333,0 -7.19999,-1.65333 -3.09333,-1.65333 -4.85333,-4.90666 -1.70667,-3.30667 -1.70667,-8.05333 0,-4.69333 1.54667,-8.05333 1.6,-3.36 4.42666,-5.17333 2.88,-1.81333 6.66666,-1.81333 z m -0.0533,3.83999 q -3.36,0 -5.33333,2.18667 -1.92,2.13333 -2.29333,5.97333 h 14.55999 q -0.0533,-3.62666 -1.70667,-5.86666 -1.65333,-2.29334 -5.22666,-2.29334 z"
         id="path590" />
      <path
         d="m 253.90683,230.99053 q 5.12,0 7.73333,2.50666 2.61333,2.45333 2.61333,8 v 18.61332 h -4.63999 v -18.29332 q 0,-6.88 -6.4,-6.88 -4.74666,0 -6.56,2.66667 -1.81333,2.66666 -1.81333,7.67999 v 14.82666 h -4.69333 v -28.58665 h 3.78667 l 0.69333,3.89333 h 0.26666 q 1.38667,-2.24 3.84,-3.30666 2.45333,-1.12 5.17333,-1.12 z"
         id="path592" />
      <path
         d="m 283.24014,260.64384 q -5.33333,0 -8.53332,-3.67999 -3.2,-3.73334 -3.2,-11.09333 0,-7.36 3.2,-11.09333 3.25333,-3.78666 8.58666,-3.78666 3.30666,0 5.38666,1.22666 2.13333,1.22667 3.46667,2.98667 h 0.32 q -0.0533,-0.69333 -0.21334,-2.02667 -0.10666,-1.38666 -0.10666,-2.18666 V 219.5772 h 4.69333 v 40.53331 h -3.78667 l -0.69333,-3.84 h -0.21333 q -1.28,1.81333 -3.41334,3.09333 -2.13333,1.28 -5.49333,1.28 z m 0.74667,-3.89333 q 4.53333,0 6.34666,-2.45333 1.86667,-2.50667 1.86667,-7.52 v -0.85333 q 0,-5.33333 -1.76,-8.15999 -1.76,-2.88 -6.50666,-2.88 -3.78667,0 -5.70667,3.04 -1.86666,2.98666 -1.86666,8.05332 0,5.12 1.86666,7.94667 1.92,2.82666 5.76,2.82666 z"
         id="path594" />
      <path
         d="m 316.9468,230.99053 q 3.68,0 6.29333,1.6 2.66666,1.6 4.05333,4.53333 1.44,2.88 1.44,6.77333 v 2.82666 h -19.57332 q 0.10666,4.85333 2.45333,7.41333 2.4,2.50667 6.66666,2.50667 2.72,0 4.8,-0.48 2.13333,-0.53334 4.37333,-1.49334 v 4.10667 q -2.18667,0.96 -4.32,1.38666 -2.13333,0.48 -5.06666,0.48 -4.05333,0 -7.2,-1.65333 -3.09333,-1.65333 -4.85333,-4.90666 -1.70666,-3.30667 -1.70666,-8.05333 0,-4.69333 1.54666,-8.05333 1.6,-3.36 4.42667,-5.17333 2.87999,-1.81333 6.66666,-1.81333 z m -0.0533,3.83999 q -3.35999,0 -5.33333,2.18667 -1.91999,2.13333 -2.29333,5.97333 h 14.55999 q -0.0533,-3.62666 -1.70666,-5.86666 -1.65333,-2.29334 -5.22667,-2.29334 z"
         id="path596" />
      <path
         d="m 346.12006,260.64384 q -5.33333,0 -8.53333,-3.67999 -3.2,-3.73334 -3.2,-11.09333 0,-7.36 3.2,-11.09333 3.25333,-3.78666 8.58666,-3.78666 3.30667,0 5.38666,1.22666 2.13334,1.22667 3.46667,2.98667 h 0.32 q -0.0533,-0.69333 -0.21333,-2.02667 -0.10667,-1.38666 -0.10667,-2.18666 V 219.5772 h 4.69333 v 40.53331 h -3.78666 l -0.69334,-3.84 h -0.21333 q -1.28,1.81333 -3.41333,3.09333 -2.13333,1.28 -5.49333,1.28 z m 0.74666,-3.89333 q 4.53333,0 6.34667,-2.45333 1.86666,-2.50667 1.86666,-7.52 v -0.85333 q 0,-5.33333 -1.76,-8.15999 -1.76,-2.88 -6.50666,-2.88 -3.78666,0 -5.70666,3.04 -1.86667,2.98666 -1.86667,8.05332 0,5.12 1.86667,7.94667 1.92,2.82666 5.75999,2.82666 z"
         id="path598" />
      <path
         d="m 401.10671,243.95052 q -0.69333,-2.18667 -1.22667,-4.26666 -0.48,-2.13334 -0.74666,-3.30667 h -0.21334 q -0.21333,1.17333 -0.69333,3.30667 -0.48,2.07999 -1.22667,4.31999 l -5.11999,16.05333 h -5.33333 l -7.84,-28.58665 h 4.85333 l 3.94667,15.25332 q 0.58666,2.29333 1.12,4.64 0.53333,2.34666 0.74666,3.89333 h 0.21334 q 0.21333,-0.90667 0.48,-2.24 0.32,-1.33333 0.69333,-2.77333 0.37333,-1.49333 0.74666,-2.66667 l 5.06667,-16.10665 h 5.12 l 4.90666,16.10665 q 0.58667,1.81334 1.12,3.94667 0.58666,2.13333 0.8,3.68 h 0.21333 q 0.16,-1.33334 0.69333,-3.68 0.58667,-2.34667 1.22667,-4.8 l 4,-15.25332 h 4.79999 l -7.94666,28.58665 h -5.49333 z"
         id="path600" />
      <path
         d="m 435.39997,231.04386 q 5.22666,0 7.73333,2.29333 2.50666,2.29333 2.50666,7.30666 v 19.46666 h -3.41333 l -0.90666,-4.05333 h -0.21334 q -1.86666,2.34666 -3.94666,3.46666 -2.02667,1.12 -5.65333,1.12 -3.89333,0 -6.45333,-2.02666 -2.56,-2.08 -2.56,-6.45333 0,-4.26667 3.36,-6.56 3.36,-2.34666 10.34666,-2.56 l 4.85333,-0.16 v -1.70666 q 0,-3.57333 -1.54667,-4.96 -1.54666,-1.38667 -4.37333,-1.38667 -2.24,0 -4.26666,0.69334 -2.02667,0.64 -3.78667,1.49333 l -1.44,-3.52 q 1.86667,-1.01333 4.42667,-1.70666 2.56,-0.74667 5.33333,-0.74667 z m 1.38666,15.25332 q -5.33333,0.21334 -7.41332,1.70667 -2.02667,1.49333 -2.02667,4.21333 0,2.4 1.44,3.52 1.49333,1.12 3.78666,1.12 3.62667,0 6.02667,-1.97333 2.4,-2.02667 2.4,-6.18667 v -2.56 z"
         id="path602" />
      <path
         d="m 467.82668,230.99053 q 0.8,0 1.70666,0.10666 0.96,0.0533 1.65334,0.21334 l -0.58667,4.31999 q -0.69333,-0.16 -1.54667,-0.26666 -0.8,-0.10667 -1.54666,-0.10667 -2.18667,0 -4.10667,1.22667 -1.91999,1.17333 -3.09333,3.36 -1.12,2.13333 -1.12,5.01333 v 15.25332 h -4.69333 v -28.58665 h 3.84 l 0.53333,5.22666 h 0.21334 q 1.38666,-2.34666 3.57333,-4.05333 2.18666,-1.70666 5.17333,-1.70666 z"
         id="path604" />
      <path
         d="m 489.85332,230.99053 q 0.8,0 1.70667,0.10666 0.95999,0.0533 1.65333,0.21334 l -0.58667,4.31999 q -0.69333,-0.16 -1.54666,-0.26666 -0.8,-0.10667 -1.54667,-0.10667 -2.18667,0 -4.10666,1.22667 -1.92,1.17333 -3.09334,3.36 -1.12,2.13333 -1.12,5.01333 v 15.25332 h -4.69333 v -28.58665 h 3.84 l 0.53334,5.22666 h 0.21333 q 1.38666,-2.34666 3.57333,-4.05333 2.18666,-1.70666 5.17333,-1.70666 z"
         id="path606" />
      <path
         d="m 508.30662,231.04386 q 5.22666,0 7.73332,2.29333 2.50667,2.29333 2.50667,7.30666 v 19.46666 h -3.41333 l -0.90667,-4.05333 h -0.21333 q -1.86667,2.34666 -3.94667,3.46666 -2.02666,1.12 -5.65333,1.12 -3.89333,0 -6.45332,-2.02666 -2.56,-2.08 -2.56,-6.45333 0,-4.26667 3.35999,-6.56 3.36,-2.34666 10.34667,-2.56 l 4.85333,-0.16 v -1.70666 q 0,-3.57333 -1.54667,-4.96 -1.54667,-1.38667 -4.37333,-1.38667 -2.24,0 -4.26667,0.69334 -2.02666,0.64 -3.78666,1.49333 l -1.44,-3.52 q 1.86667,-1.01333 4.42667,-1.70666 2.55999,-0.74667 5.33333,-0.74667 z m 1.38666,15.25332 q -5.33333,0.21334 -7.41333,1.70667 -2.02666,1.49333 -2.02666,4.21333 0,2.4 1.44,3.52 1.49333,1.12 3.78666,1.12 3.62667,0 6.02666,-1.97333 2.4,-2.02667 2.4,-6.18667 v -2.56 z"
         id="path608" />
      <path
         d="m 541.15999,230.99053 q 5.12,0 7.73333,2.50666 2.61333,2.45333 2.61333,8 v 18.61332 h -4.64 v -18.29332 q 0,-6.88 -6.39999,-6.88 -4.74667,0 -6.56,2.66667 -1.81333,2.66666 -1.81333,7.67999 v 14.82666 H 527.4 v -28.58665 h 3.78666 l 0.69334,3.89333 h 0.26666 q 1.38667,-2.24 3.84,-3.30666 2.45333,-1.12 5.17333,-1.12 z"
         id="path610" />
      <path
         d="m 569.90665,256.80385 q 1.06667,0 2.18667,-0.16 1.12,-0.21334 1.81333,-0.42667 v 3.57333 q -0.74667,0.37333 -2.13333,0.58667 -1.38667,0.26666 -2.66667,0.26666 -2.24,0 -4.16,-0.74666 -1.86666,-0.8 -3.03999,-2.72 -1.17334,-1.92 -1.17334,-5.38667 v -16.63999 h -4.05333 v -2.23999 l 4.10667,-1.86667 1.86666,-6.08 h 2.77333 v 6.56 h 8.26667 v 3.62666 h -8.26667 v 16.53333 q 0,2.61333 1.22667,3.89333 1.28,1.22667 3.25333,1.22667 z"
         id="path612" />
      <path
         d="m 575.13329,231.52386 h 5.01333 l 6.18666,16.26666 q 0.8,2.13333 1.44,4.10666 0.64,1.92 0.96,3.68 h 0.21333 q 0.32,-1.33333 1.01334,-3.46667 0.69333,-2.18666 1.44,-4.37333 l 5.81333,-16.21332 h 5.06666 l -12.31999,32.53331 q -1.49334,4.05334 -3.89333,6.45333 -2.34667,2.4 -6.50667,2.4 -1.28,0 -2.24,-0.16 -0.95999,-0.10666 -1.65333,-0.26666 v -3.73334 q 0.58667,0.10667 1.38667,0.21334 0.85333,0.10666 1.76,0.10666 2.45333,0 3.94666,-1.38666 1.54667,-1.38667 2.4,-3.68 l 1.49333,-3.78666 z"
         id="path614" />
    </g>
  </g>
</svg>
