999
"DXF R12 Output" (www.mydxf.blogspot.com)
 0 
SECTION
 2 
HEADER
 9 
$ACADVER
 1 
AC1009
 9 
$EXTMIN
 10 
 0 
 20 
 0 
 9 
$EXTMAX
 10 
 8.5 
 20 
 11 
 0 
ENDSEC
 0 
SECTION
 2 
ENTITIES
0
LINE
8
Layer 1
10
30.532500
20
38.107900
11
30.291738
21
36.724757
0
LINE
8
Layer 1
10
30.291738
20
36.724757
11
29.607375
21
35.622864
0
LINE
8
Layer 1
10
29.607375
20
35.622864
11
28.536297
21
34.894243
0
LINE
8
Layer 1
10
28.536297
20
34.894243
11
27.135390
21
34.630920
0
LINE
8
Layer 1
10
27.135390
20
34.630920
11
27.063700
21
34.631000
0
LINE
8
Layer 1
10
27.063700
20
34.631000
11
25.698196
21
34.894322
0
LINE
8
Layer 1
10
25.698196
20
34.894322
11
24.635109
21
35.622940
0
LINE
8
Layer 1
10
24.635109
20
35.622940
11
23.945294
21
36.724833
0
LINE
8
Layer 1
10
23.945294
20
36.724833
11
23.699610
21
38.107980
0
LINE
8
Layer 1
10
23.699610
20
38.107980
11
23.952208
21
39.519735
0
LINE
8
Layer 1
10
23.952208
20
39.519735
11
24.659519
21
40.617428
0
LINE
8
Layer 1
10
24.659519
20
40.617428
11
25.745818
21
41.328934
0
LINE
8
Layer 1
10
25.745818
20
41.328934
11
27.135380
21
41.582130
0
LINE
8
Layer 1
10
27.135380
20
41.582130
11
28.513860
21
41.329727
0
LINE
8
Layer 1
10
28.513860
20
41.329727
11
29.578468
21
40.619543
0
LINE
8
Layer 1
10
29.578468
20
40.619543
11
30.270808
21
39.522114
0
LINE
8
Layer 1
10
30.270808
20
39.522114
11
30.532490
21
38.107980
0
LINE
8
Layer 1
10
30.532490
20
38.107980
11
30.532500
21
38.107900
0
LINE
8
Layer 1
10
24.959700
20
43.490200
11
29.319200
21
43.490200
0
LINE
8
Layer 1
10
29.319200
20
43.490200
11
30.152037
21
60.789800
0
LINE
8
Layer 1
10
30.152037
20
60.789800
11
24.118700
21
60.789800
0
LINE
8
Layer 1
10
24.118700
20
60.789800
11
24.959700
21
43.490200
0
LINE
8
Layer 1
10
53.727200
20
28.890000
11
53.167968
21
28.192656
0
LINE
8
Layer 1
10
53.167968
20
28.192656
11
52.462632
21
27.666708
0
LINE
8
Layer 1
10
52.462632
20
27.666708
11
51.649240
21
27.334645
0
LINE
8
Layer 1
10
51.649240
20
27.334645
11
50.765840
21
27.218960
0
LINE
8
Layer 1
10
50.765840
20
27.218960
11
3.466250
21
27.219000
0
LINE
8
Layer 1
10
3.466250
20
27.219000
11
2.554366
21
27.341101
0
LINE
8
Layer 1
10
2.554366
20
27.341101
11
1.719791
21
27.691193
0
LINE
8
Layer 1
10
1.719791
20
27.691193
11
1.003643
21
28.244961
0
LINE
8
Layer 1
10
1.003643
20
28.244961
11
0.447040
21
28.978090
0
LINE
8
Layer 1
10
0.447040
20
28.978090
11
0.106892
21
29.830105
0
LINE
8
Layer 1
10
0.106892
20
29.830105
11
0.000424
21
30.725856
0
LINE
8
Layer 1
10
0.000424
20
30.725856
11
0.127635
21
31.619015
0
LINE
8
Layer 1
10
0.127635
20
31.619015
11
0.488527
21
32.463250
0
LINE
8
Layer 1
10
0.488527
20
32.463250
11
24.226500
21
74.576400
0
LINE
8
Layer 1
10
24.226500
20
74.576400
11
24.782010
21
75.282369
0
LINE
8
Layer 1
10
24.782010
20
75.282369
11
25.487963
21
75.811331
0
LINE
8
Layer 1
10
25.487963
20
75.811331
11
26.305570
21
76.143338
0
LINE
8
Layer 1
10
26.305570
20
76.143338
11
27.196040
21
76.258440
0
LINE
8
Layer 1
10
27.196040
20
76.258440
11
27.289700
21
76.258400
0
LINE
8
Layer 1
10
27.289700
20
76.258400
11
28.200296
21
76.112892
0
LINE
8
Layer 1
10
28.200296
20
76.112892
11
29.024345
21
75.739076
0
LINE
8
Layer 1
10
29.024345
20
75.739076
11
29.722822
21
75.163064
0
LINE
8
Layer 1
10
29.722822
20
75.163064
11
30.256700
21
74.410970
0
LINE
8
Layer 1
10
30.256700
20
74.410970
11
53.826500
21
32.295270
0
LINE
8
Layer 1
10
53.826500
20
32.295270
11
54.137844
21
31.457721
0
LINE
8
Layer 1
10
54.137844
20
31.457721
11
54.226620
21
30.582361
0
LINE
8
Layer 1
10
54.226620
20
30.582361
11
54.090501
21
29.712134
0
LINE
8
Layer 1
10
54.090501
20
29.712134
11
53.727158
21
28.889980
0
LINE
8
Layer 1
10
53.727158
20
28.889980
11
53.727200
21
28.890000
0
LINE
8
Layer 1
10
50.765840
20
30.696220
11
27.193240
21
72.798120
0
LINE
8
Layer 1
10
27.193240
20
72.798120
11
3.469140
21
30.696220
0
LINE
8
Layer 1
10
3.469140
20
30.696220
11
50.765840
21
30.696220
0
LINE
8
Layer 1
10
122.823000
20
72.432300
11
122.823000
21
69.614500
0
LINE
8
Layer 1
10
122.823000
20
69.614500
11
121.427500
21
70.712550
0
LINE
8
Layer 1
10
121.427500
20
70.712550
11
119.939000
21
71.493100
0
LINE
8
Layer 1
10
119.939000
20
71.493100
11
118.368250
21
71.959375
0
LINE
8
Layer 1
10
118.368250
20
71.959375
11
116.698000
21
72.114800
0
LINE
8
Layer 1
10
116.698000
20
72.114800
11
115.103888
21
71.984989
0
LINE
8
Layer 1
10
115.103888
20
71.984989
11
113.708212
21
71.595555
0
LINE
8
Layer 1
10
113.708212
20
71.595555
11
112.510973
21
70.946499
0
LINE
8
Layer 1
10
112.510973
20
70.946499
11
111.512170
21
70.037820
0
LINE
8
Layer 1
10
111.512170
20
70.037820
11
110.725033
21
68.890190
0
LINE
8
Layer 1
10
110.725033
20
68.890190
11
110.162792
21
67.511050
0
LINE
8
Layer 1
10
110.162792
20
67.511050
11
109.825448
21
65.900400
0
LINE
8
Layer 1
10
109.825448
20
65.900400
11
109.713000
21
64.058240
0
LINE
8
Layer 1
10
109.713000
20
64.058240
11
109.825448
21
62.221041
0
LINE
8
Layer 1
10
109.825448
20
62.221041
11
110.162792
21
60.612045
0
LINE
8
Layer 1
10
110.162792
20
60.612045
11
110.725033
21
59.231251
0
LINE
8
Layer 1
10
110.725033
20
59.231251
11
111.512170
21
58.078660
0
LINE
8
Layer 1
10
111.512170
20
58.078660
11
112.510973
21
57.175769
0
LINE
8
Layer 1
10
112.510973
20
57.175769
11
113.708213
21
56.530847
0
LINE
8
Layer 1
10
113.708213
20
56.530847
11
115.103888
21
56.143894
0
LINE
8
Layer 1
10
115.103888
20
56.143894
11
116.698000
21
56.014910
0
LINE
8
Layer 1
10
116.698000
20
56.014910
11
118.368180
21
56.170352
0
LINE
8
Layer 1
10
118.368180
20
56.170352
11
119.939140
21
56.636680
0
LINE
8
Layer 1
10
119.939140
20
56.636680
11
121.427420
21
57.417200
0
LINE
8
Layer 1
10
121.427420
20
57.417200
11
122.823100
21
58.515220
0
LINE
8
Layer 1
10
122.823100
20
58.515220
11
122.823000
21
55.723900
0
LINE
8
Layer 1
10
122.823000
20
55.723900
11
121.377715
21
54.890463
0
LINE
8
Layer 1
10
121.377715
20
54.890463
11
119.846440
21
54.295150
0
LINE
8
Layer 1
10
119.846440
20
54.295150
11
118.239097
21
53.937962
0
LINE
8
Layer 1
10
118.239097
20
53.937962
11
116.539150
21
53.818900
0
LINE
8
Layer 1
10
116.539150
20
53.818900
11
114.415868
21
53.990053
0
LINE
8
Layer 1
10
114.415868
20
53.990053
11
112.530712
21
54.503510
0
LINE
8
Layer 1
10
112.530712
20
54.503510
11
110.883683
21
55.359273
0
LINE
8
Layer 1
10
110.883683
20
55.359273
11
109.474780
21
56.557340
0
LINE
8
Layer 1
10
109.474780
20
56.557340
11
108.346166
21
58.058021
0
LINE
8
Layer 1
10
108.346166
20
58.058021
11
107.540012
21
59.808402
0
LINE
8
Layer 1
10
107.540012
20
59.808402
11
107.056321
21
61.808486
0
LINE
8
Layer 1
10
107.056321
20
61.808486
11
106.895090
21
64.058270
0
LINE
8
Layer 1
10
106.895090
20
64.058270
11
107.056321
21
66.313016
0
LINE
8
Layer 1
10
107.056321
20
66.313016
11
107.540012
21
68.314752
0
LINE
8
Layer 1
10
107.540012
20
68.314752
11
108.346166
21
70.063481
0
LINE
8
Layer 1
10
108.346166
20
70.063481
11
109.474780
21
71.559200
0
LINE
8
Layer 1
10
109.474780
20
71.559200
11
110.883683
21
72.763051
0
LINE
8
Layer 1
10
110.883683
20
72.763051
11
112.530712
21
73.622945
0
LINE
8
Layer 1
10
112.530712
20
73.622945
11
114.415868
21
74.138881
0
LINE
8
Layer 1
10
114.415868
20
74.138881
11
116.539150
21
74.310860
0
LINE
8
Layer 1
10
116.539150
20
74.310860
11
118.258942
21
74.191797
0
LINE
8
Layer 1
10
118.258942
20
74.191797
11
119.872900
21
73.834610
0
LINE
8
Layer 1
10
119.872900
20
73.834610
11
121.397560
21
73.252527
0
LINE
8
Layer 1
10
121.397560
20
73.252527
11
122.823000
21
72.432320
0
LINE
8
Layer 1
10
122.823000
20
72.432320
11
122.823000
21
72.432300
0
LINE
8
Layer 1
10
132.586000
20
67.312700
11
131.658304
21
67.216789
0
LINE
8
Layer 1
10
131.658304
20
67.216789
11
130.833135
21
66.929055
0
LINE
8
Layer 1
10
130.833135
20
66.929055
11
130.110494
21
66.449499
0
LINE
8
Layer 1
10
130.110494
20
66.449499
11
129.490380
21
65.778120
0
LINE
8
Layer 1
10
129.490380
20
65.778120
11
128.992632
21
64.946338
0
LINE
8
Layer 1
10
128.992632
20
64.946338
11
128.637098
21
63.972342
0
LINE
8
Layer 1
10
128.637098
20
63.972342
11
128.423777
21
62.856133
0
LINE
8
Layer 1
10
128.423777
20
62.856133
11
128.352670
21
61.597710
0
LINE
8
Layer 1
10
128.352670
20
61.597710
11
128.422950
21
60.338460
0
LINE
8
Layer 1
10
128.422950
20
60.338460
11
128.633790
21
59.219770
0
LINE
8
Layer 1
10
128.633790
20
59.219770
11
128.985190
21
58.241640
0
LINE
8
Layer 1
10
128.985190
20
58.241640
11
129.477150
21
57.404070
0
LINE
8
Layer 1
10
129.477150
20
57.404070
11
130.098094
21
56.738479
0
LINE
8
Layer 1
10
130.098094
20
56.738479
11
130.823218
21
56.263057
0
LINE
8
Layer 1
10
130.823218
20
56.263057
11
131.652519
21
55.977804
0
LINE
8
Layer 1
10
131.652519
20
55.977804
11
132.586000
21
55.882720
0
LINE
8
Layer 1
10
132.586000
20
55.882720
11
133.507908
21
55.978631
0
LINE
8
Layer 1
10
133.507908
20
55.978631
11
134.328942
21
56.266365
0
LINE
8
Layer 1
10
134.328942
20
56.266365
11
135.049103
21
56.745921
0
LINE
8
Layer 1
10
135.049103
20
56.745921
11
135.668390
21
57.417300
0
LINE
8
Layer 1
10
135.668390
20
57.417300
11
136.166138
21
58.254043
0
LINE
8
Layer 1
10
136.166138
20
58.254043
11
136.521673
21
59.229692
0
LINE
8
Layer 1
10
136.521673
20
59.229692
11
136.734993
21
60.344248
0
LINE
8
Layer 1
10
136.734993
20
60.344248
11
136.806100
21
61.597710
0
LINE
8
Layer 1
10
136.806100
20
61.597710
11
136.734993
21
62.845384
0
LINE
8
Layer 1
10
136.734993
20
62.845384
11
136.521673
21
63.955805
0
LINE
8
Layer 1
10
136.521673
20
63.955805
11
136.166138
21
64.928974
0
LINE
8
Layer 1
10
136.166138
20
64.928974
11
135.668390
21
65.764890
0
LINE
8
Layer 1
10
135.668390
20
65.764890
11
135.049099
21
66.442057
0
LINE
8
Layer 1
10
135.049099
20
66.442057
11
134.328937
21
66.925747
0
LINE
8
Layer 1
10
134.328937
20
66.925747
11
133.507904
21
67.215962
0
LINE
8
Layer 1
10
133.507904
20
67.215962
11
132.586000
21
67.312700
0
LINE
8
Layer 1
10
132.586000
20
67.312700
11
132.586000
21
67.312700
0
LINE
8
Layer 1
10
132.586000
20
69.376450
11
134.088337
21
69.247466
0
LINE
8
Layer 1
10
134.088337
20
69.247466
11
135.420348
21
68.860513
0
LINE
8
Layer 1
10
135.420348
20
68.860513
11
136.582032
21
68.215591
0
LINE
8
Layer 1
10
136.582032
20
68.215591
11
137.573390
21
67.312700
0
LINE
8
Layer 1
10
137.573390
20
67.312700
11
138.366311
21
66.181606
0
LINE
8
Layer 1
10
138.366311
20
66.181606
11
138.932683
21
64.852075
0
LINE
8
Layer 1
10
138.932683
20
64.852075
11
139.272506
21
63.324106
0
LINE
8
Layer 1
10
139.272506
20
63.324106
11
139.385780
21
61.597700
0
LINE
8
Layer 1
10
139.385780
20
61.597700
11
139.272506
21
59.876255
0
LINE
8
Layer 1
10
139.272506
20
59.876255
11
138.932683
21
58.349940
0
LINE
8
Layer 1
10
138.932683
20
58.349940
11
138.366311
21
57.018755
0
LINE
8
Layer 1
10
138.366311
20
57.018755
11
137.573390
21
55.882700
0
LINE
8
Layer 1
10
137.573390
20
55.882700
11
136.582028
21
54.979809
0
LINE
8
Layer 1
10
136.582028
20
54.979809
11
135.420343
21
54.334888
0
LINE
8
Layer 1
10
135.420343
20
54.334888
11
134.088333
21
53.947934
0
LINE
8
Layer 1
10
134.088333
20
53.947934
11
132.586000
21
53.818950
0
LINE
8
Layer 1
10
132.586000
20
53.818950
11
131.077875
21
53.947934
0
LINE
8
Layer 1
10
131.077875
20
53.947934
11
129.741730
21
54.334888
0
LINE
8
Layer 1
10
129.741730
20
54.334888
11
128.577565
21
54.979809
0
LINE
8
Layer 1
10
128.577565
20
54.979809
11
127.585380
21
55.882700
0
LINE
8
Layer 1
10
127.585380
20
55.882700
11
126.798243
21
57.018755
0
LINE
8
Layer 1
10
126.798243
20
57.018755
11
126.236003
21
58.349940
0
LINE
8
Layer 1
10
126.236003
20
58.349940
11
125.898658
21
59.876255
0
LINE
8
Layer 1
10
125.898658
20
59.876255
11
125.786210
21
61.597700
0
LINE
8
Layer 1
10
125.786210
20
61.597700
11
125.898658
21
63.324106
0
LINE
8
Layer 1
10
125.898658
20
63.324106
11
126.236003
21
64.852075
0
LINE
8
Layer 1
10
126.236003
20
64.852075
11
126.798243
21
66.181606
0
LINE
8
Layer 1
10
126.798243
20
66.181606
11
127.585380
21
67.312700
0
LINE
8
Layer 1
10
127.585380
20
67.312700
11
128.577569
21
68.215591
0
LINE
8
Layer 1
10
128.577569
20
68.215591
11
129.741735
21
68.860513
0
LINE
8
Layer 1
10
129.741735
20
68.860513
11
131.077879
21
69.247466
0
LINE
8
Layer 1
10
131.077879
20
69.247466
11
132.586000
21
69.376450
0
LINE
8
Layer 1
10
132.586000
20
69.376450
11
132.586000
21
69.376450
0
LINE
8
Layer 1
10
155.737000
20
63.145500
11
155.737000
21
54.202600
0
LINE
8
Layer 1
10
155.737000
20
54.202600
11
153.303000
21
54.202600
0
LINE
8
Layer 1
10
153.303000
20
54.202600
11
153.303000
21
63.066100
0
LINE
8
Layer 1
10
153.303000
20
63.066100
11
153.097948
21
64.904955
0
LINE
8
Layer 1
10
153.097948
20
64.904955
11
152.482792
21
66.214640
0
LINE
8
Layer 1
10
152.482792
20
66.214640
11
152.021425
21
66.671871
0
LINE
8
Layer 1
10
152.021425
20
66.671871
11
151.457533
21
66.998465
0
LINE
8
Layer 1
10
151.457533
20
66.998465
11
150.022172
21
67.259740
0
LINE
8
Layer 1
10
150.022172
20
67.259740
11
149.088691
21
67.181192
0
LINE
8
Layer 1
10
149.088691
20
67.181192
11
148.259389
21
66.945548
0
LINE
8
Layer 1
10
148.259389
20
66.945548
11
147.534266
21
66.552807
0
LINE
8
Layer 1
10
147.534266
20
66.552807
11
146.913322
21
66.002970
0
LINE
8
Layer 1
10
146.913322
20
66.002970
11
146.415574
21
65.317534
0
LINE
8
Layer 1
10
146.415574
20
65.317534
11
146.060040
21
64.517998
0
LINE
8
Layer 1
10
146.060040
20
64.517998
11
145.846719
21
63.604359
0
LINE
8
Layer 1
10
145.846719
20
63.604359
11
145.775612
21
62.576620
0
LINE
8
Layer 1
10
145.775612
20
62.576620
11
145.776000
21
54.202600
0
LINE
8
Layer 1
10
145.776000
20
54.202600
11
143.329000
21
54.202600
0
LINE
8
Layer 1
10
143.329000
20
54.202600
11
143.329000
21
69.019200
0
LINE
8
Layer 1
10
143.329000
20
69.019200
11
145.776000
21
69.019200
0
LINE
8
Layer 1
10
145.776000
20
69.019200
11
145.776000
21
66.717400
0
LINE
8
Layer 1
10
145.776000
20
66.717400
11
146.725192
21
67.884870
0
LINE
8
Layer 1
10
146.725192
20
67.884870
11
147.826520
21
68.715000
0
LINE
8
Layer 1
10
147.826520
20
68.715000
11
149.106440
21
69.211094
0
LINE
8
Layer 1
10
149.106440
20
69.211094
11
150.564960
21
69.376458
0
LINE
8
Layer 1
10
150.564960
20
69.376458
11
151.763853
21
69.277239
0
LINE
8
Layer 1
10
151.763853
20
69.277239
11
152.807302
21
68.979583
0
LINE
8
Layer 1
10
152.807302
20
68.979583
11
153.695308
21
68.483489
0
LINE
8
Layer 1
10
153.695308
20
68.483489
11
154.427870
21
67.788958
0
LINE
8
Layer 1
10
154.427870
20
67.788958
11
155.000859
21
66.908392
0
LINE
8
Layer 1
10
155.000859
20
66.908392
11
155.410138
21
65.840965
0
LINE
8
Layer 1
10
155.410138
20
65.840965
11
155.655704
21
64.586677
0
LINE
8
Layer 1
10
155.655704
20
64.586677
11
155.737560
21
63.145528
0
LINE
8
Layer 1
10
155.737560
20
63.145528
11
155.737000
21
63.145500
0
LINE
8
Layer 1
10
163.000000
20
73.226100
11
163.000000
21
69.019200
0
LINE
8
Layer 1
10
163.000000
20
69.019200
11
168.014000
21
69.019200
0
LINE
8
Layer 1
10
168.014000
20
69.019200
11
168.014000
21
67.127500
0
LINE
8
Layer 1
10
168.014000
20
67.127500
11
163.000000
21
67.127500
0
LINE
8
Layer 1
10
163.000000
20
67.127500
11
163.000000
21
59.084100
0
LINE
8
Layer 1
10
163.000000
20
59.084100
11
163.122369
21
57.595822
0
LINE
8
Layer 1
10
163.122369
20
57.595822
11
163.489477
21
56.755770
0
LINE
8
Layer 1
10
163.489477
20
56.755770
11
164.246846
21
56.368817
0
LINE
8
Layer 1
10
164.246846
20
56.368817
11
165.513537
21
56.239833
0
LINE
8
Layer 1
10
165.513537
20
56.239833
11
168.014000
21
56.239900
0
LINE
8
Layer 1
10
168.014000
20
56.239900
11
168.014000
21
54.202600
0
LINE
8
Layer 1
10
168.014000
20
54.202600
11
165.514000
21
54.202600
0
LINE
8
Layer 1
10
165.514000
20
54.202600
11
164.214236
21
54.267919
0
LINE
8
Layer 1
10
164.214236
20
54.267919
11
163.132752
21
54.463875
0
LINE
8
Layer 1
10
163.132752
20
54.463875
11
162.269551
21
54.790469
0
LINE
8
Layer 1
10
162.269551
20
54.790469
11
161.624630
21
55.247700
0
LINE
8
Layer 1
10
161.624630
20
55.247700
11
161.155822
21
55.884352
0
LINE
8
Layer 1
10
161.155822
20
55.884352
11
160.820960
21
56.735980
0
LINE
8
Layer 1
10
160.820960
20
56.735980
11
160.620042
21
57.802582
0
LINE
8
Layer 1
10
160.620042
20
57.802582
11
160.553070
21
59.084160
0
LINE
8
Layer 1
10
160.553070
20
59.084160
11
160.553000
21
67.127500
0
LINE
8
Layer 1
10
160.553000
20
67.127500
11
158.767000
21
67.127500
0
LINE
8
Layer 1
10
158.767000
20
67.127500
11
158.767000
21
69.019200
0
LINE
8
Layer 1
10
158.767000
20
69.019200
11
160.553000
21
69.019200
0
LINE
8
Layer 1
10
160.553000
20
69.019200
11
160.553000
21
73.226100
0
LINE
8
Layer 1
10
160.553000
20
73.226100
11
163.000000
21
73.226100
0
LINE
8
Layer 1
10
177.949000
20
61.650600
11
175.451998
21
61.481928
0
LINE
8
Layer 1
10
175.451998
20
61.481928
11
173.861190
21
60.975913
0
LINE
8
Layer 1
10
173.861190
20
60.975913
11
173.363442
21
60.579039
0
LINE
8
Layer 1
10
173.363442
20
60.579039
11
173.007907
21
60.063102
0
LINE
8
Layer 1
10
173.007907
20
60.063102
11
172.794587
21
59.428103
0
LINE
8
Layer 1
10
172.794587
20
59.428103
11
172.723480
21
58.674043
0
LINE
8
Layer 1
10
172.723480
20
58.674043
11
172.935147
21
57.509875
0
LINE
8
Layer 1
10
172.935147
20
57.509875
11
173.570146
21
56.610293
0
LINE
8
Layer 1
10
173.570146
20
56.610293
11
174.582177
21
56.044747
0
LINE
8
Layer 1
10
174.582177
20
56.044747
11
175.898476
21
55.856231
0
LINE
8
Layer 1
10
175.898476
20
55.856231
11
176.860070
21
55.945528
0
LINE
8
Layer 1
10
176.860070
20
55.945528
11
177.720791
21
56.213419
0
LINE
8
Layer 1
10
177.720791
20
56.213419
11
178.480640
21
56.659903
0
LINE
8
Layer 1
10
178.480640
20
56.659903
11
179.139616
21
57.284981
0
LINE
8
Layer 1
10
179.139616
20
57.284981
11
179.677877
21
58.064675
0
LINE
8
Layer 1
10
179.677877
20
58.064675
11
180.062349
21
58.961779
0
LINE
8
Layer 1
10
180.062349
20
58.961779
11
180.293032
21
59.976290
0
LINE
8
Layer 1
10
180.293032
20
59.976290
11
180.369926
21
61.108211
0
LINE
8
Layer 1
10
180.369926
20
61.108211
11
180.370000
21
61.650600
0
LINE
8
Layer 1
10
180.370000
20
61.650600
11
177.949000
21
61.650600
0
LINE
8
Layer 1
10
182.804100
20
62.656020
11
182.804000
21
54.202600
0
LINE
8
Layer 1
10
182.804000
20
54.202600
11
180.370000
21
54.202600
0
LINE
8
Layer 1
10
180.370000
20
54.202600
11
180.370000
21
56.451500
0
LINE
8
Layer 1
10
180.370000
20
56.451500
11
179.434037
21
55.277415
0
LINE
8
Layer 1
10
179.434037
20
55.277415
11
178.293020
21
54.453900
0
LINE
8
Layer 1
10
178.293020
20
54.453900
11
176.910573
21
53.977651
0
LINE
8
Layer 1
10
176.910573
20
53.977651
11
175.250310
21
53.818901
0
LINE
8
Layer 1
10
175.250310
20
53.818901
11
174.170482
21
53.898276
0
LINE
8
Layer 1
10
174.170482
20
53.898276
11
173.206408
21
54.136401
0
LINE
8
Layer 1
10
173.206408
20
54.136401
11
172.358087
21
54.533276
0
LINE
8
Layer 1
10
172.358087
20
54.533276
11
171.625520
21
55.088901
0
LINE
8
Layer 1
10
171.625520
20
55.088901
11
171.040954
21
55.784259
0
LINE
8
Layer 1
10
171.040954
20
55.784259
11
170.623408
21
56.587104
0
LINE
8
Layer 1
10
170.623408
20
56.587104
11
170.372879
21
57.497434
0
LINE
8
Layer 1
10
170.372879
20
57.497434
11
170.289370
21
58.515251
0
LINE
8
Layer 1
10
170.289370
20
58.515251
11
170.393549
21
59.688512
0
LINE
8
Layer 1
10
170.393549
20
59.688512
11
170.706088
21
60.707984
0
LINE
8
Layer 1
10
170.706088
20
60.707984
11
171.226984
21
61.573667
0
LINE
8
Layer 1
10
171.226984
20
61.573667
11
171.956240
21
62.285561
0
LINE
8
Layer 1
10
171.956240
20
62.285561
11
172.898816
21
62.841186
0
LINE
8
Layer 1
10
172.898816
20
62.841186
11
174.046445
21
63.238061
0
LINE
8
Layer 1
10
174.046445
20
63.238061
11
175.399126
21
63.476186
0
LINE
8
Layer 1
10
175.399126
20
63.476186
11
176.956860
21
63.555561
0
LINE
8
Layer 1
10
176.956860
20
63.555561
11
180.370000
21
63.555600
0
LINE
8
Layer 1
10
180.370000
20
63.555600
11
180.370000
21
63.793700
0
LINE
8
Layer 1
10
180.370000
20
63.793700
11
180.300547
21
64.585794
0
LINE
8
Layer 1
10
180.300547
20
64.585794
11
180.092188
21
65.281977
0
LINE
8
Layer 1
10
180.092188
20
65.281977
11
179.744922
21
65.882249
0
LINE
8
Layer 1
10
179.744922
20
65.882249
11
179.258750
21
66.386610
0
LINE
8
Layer 1
10
179.258750
20
66.386610
11
178.653516
21
66.791753
0
LINE
8
Layer 1
10
178.653516
20
66.791753
11
177.935835
21
67.081141
0
LINE
8
Layer 1
10
177.935835
20
67.081141
11
176.163130
21
67.312651
0
LINE
8
Layer 1
10
176.163130
20
67.312651
11
174.909668
21
67.236583
0
LINE
8
Layer 1
10
174.909668
20
67.236583
11
173.689280
21
67.008380
0
LINE
8
Layer 1
10
173.689280
20
67.008380
11
172.508580
21
66.628042
0
LINE
8
Layer 1
10
172.508580
20
66.628042
11
171.374180
21
66.095568
0
LINE
8
Layer 1
10
171.374180
20
66.095568
11
171.374000
21
68.344500
0
LINE
8
Layer 1
10
171.374000
20
68.344500
11
173.966910
21
69.111791
0
LINE
8
Layer 1
10
173.966910
20
69.111791
11
176.414310
21
69.376374
0
LINE
8
Layer 1
10
176.414310
20
69.376374
11
177.919951
21
69.272195
0
LINE
8
Layer 1
10
177.919951
20
69.272195
11
179.222195
21
68.959657
0
LINE
8
Layer 1
10
179.222195
20
68.959657
11
180.321041
21
68.438760
0
LINE
8
Layer 1
10
180.321041
20
68.438760
11
181.216490
21
67.709504
0
LINE
8
Layer 1
10
181.216490
20
67.709504
11
181.911021
21
66.768581
0
LINE
8
Layer 1
10
181.911021
20
66.768581
11
182.407115
21
65.612684
0
LINE
8
Layer 1
10
182.407115
20
65.612684
11
182.704771
21
64.241811
0
LINE
8
Layer 1
10
182.704771
20
64.241811
11
182.803990
21
62.655964
0
LINE
8
Layer 1
10
182.803990
20
62.655964
11
182.804100
21
62.656020
0
LINE
8
Layer 1
10
187.818000
20
69.019200
11
190.252000
21
69.019200
0
LINE
8
Layer 1
10
190.252000
20
69.019200
11
190.252000
21
54.202600
0
LINE
8
Layer 1
10
190.252000
20
54.202600
11
187.818000
21
54.202600
0
LINE
8
Layer 1
10
187.818000
20
54.202600
11
187.818000
21
69.019200
0
LINE
8
Layer 1
10
187.818000
20
74.787110
11
190.252000
21
74.787100
0
LINE
8
Layer 1
10
190.252000
20
74.787100
11
190.252000
21
71.704700
0
LINE
8
Layer 1
10
190.252000
20
71.704700
11
187.818000
21
71.704700
0
LINE
8
Layer 1
10
187.818000
20
71.704700
11
187.818000
21
74.787110
0
LINE
8
Layer 1
10
207.662000
20
63.145500
11
207.662000
21
54.202600
0
LINE
8
Layer 1
10
207.662000
20
54.202600
11
205.228000
21
54.202600
0
LINE
8
Layer 1
10
205.228000
20
54.202600
11
205.228000
21
63.066100
0
LINE
8
Layer 1
10
205.228000
20
63.066100
11
205.022948
21
64.904955
0
LINE
8
Layer 1
10
205.022948
20
64.904955
11
204.407792
21
66.214640
0
LINE
8
Layer 1
10
204.407792
20
66.214640
11
203.946425
21
66.671871
0
LINE
8
Layer 1
10
203.946425
20
66.671871
11
203.382533
21
66.998465
0
LINE
8
Layer 1
10
203.382533
20
66.998465
11
201.947172
21
67.259740
0
LINE
8
Layer 1
10
201.947172
20
67.259740
11
201.013688
21
67.181192
0
LINE
8
Layer 1
10
201.013688
20
67.181192
11
200.184384
21
66.945548
0
LINE
8
Layer 1
10
200.184384
20
66.945548
11
199.459263
21
66.552807
0
LINE
8
Layer 1
10
199.459263
20
66.552807
11
198.838322
21
66.002970
0
LINE
8
Layer 1
10
198.838322
20
66.002970
11
198.340574
21
65.317534
0
LINE
8
Layer 1
10
198.340574
20
65.317534
11
197.985040
21
64.517998
0
LINE
8
Layer 1
10
197.985040
20
64.517998
11
197.771719
21
63.604359
0
LINE
8
Layer 1
10
197.771719
20
63.604359
11
197.700612
21
62.576620
0
LINE
8
Layer 1
10
197.700612
20
62.576620
11
197.700000
21
54.202600
0
LINE
8
Layer 1
10
197.700000
20
54.202600
11
195.253000
21
54.202600
0
LINE
8
Layer 1
10
195.253000
20
54.202600
11
195.253000
21
69.019200
0
LINE
8
Layer 1
10
195.253000
20
69.019200
11
197.700000
21
69.019200
0
LINE
8
Layer 1
10
197.700000
20
69.019200
11
197.700000
21
66.717400
0
LINE
8
Layer 1
10
197.700000
20
66.717400
11
198.649192
21
67.884870
0
LINE
8
Layer 1
10
198.649192
20
67.884870
11
199.750520
21
68.715000
0
LINE
8
Layer 1
10
199.750520
20
68.715000
11
201.030437
21
69.211094
0
LINE
8
Layer 1
10
201.030437
20
69.211094
11
202.488950
21
69.376458
0
LINE
8
Layer 1
10
202.488950
20
69.376458
11
203.687843
21
69.277239
0
LINE
8
Layer 1
10
203.687843
20
69.277239
11
204.731292
21
68.979583
0
LINE
8
Layer 1
10
204.731292
20
68.979583
11
205.619298
21
68.483489
0
LINE
8
Layer 1
10
205.619298
20
68.483489
11
206.351860
21
67.788958
0
LINE
8
Layer 1
10
206.351860
20
67.788958
11
206.924849
21
66.908392
0
LINE
8
Layer 1
10
206.924849
20
66.908392
11
207.334127
21
65.840965
0
LINE
8
Layer 1
10
207.334127
20
65.840965
11
207.579694
21
64.586677
0
LINE
8
Layer 1
10
207.579694
20
64.586677
11
207.661550
21
63.145528
0
LINE
8
Layer 1
10
207.661550
20
63.145528
11
207.662000
21
63.145500
0
LINE
8
Layer 1
10
221.963000
20
68.582700
11
221.963000
21
66.280800
0
LINE
8
Layer 1
10
221.963000
20
66.280800
11
219.819880
21
67.074549
0
LINE
8
Layer 1
10
219.819880
20
67.074549
11
217.518010
21
67.339132
0
LINE
8
Layer 1
10
217.518010
20
67.339132
11
215.930512
21
67.200226
0
LINE
8
Layer 1
10
215.930512
20
67.200226
11
214.792800
21
66.783507
0
LINE
8
Layer 1
10
214.792800
20
66.783507
11
214.118113
21
66.088977
0
LINE
8
Layer 1
10
214.118113
20
66.088977
11
213.893217
21
65.116637
0
LINE
8
Layer 1
10
213.893217
20
65.116637
11
214.055274
21
64.359269
0
LINE
8
Layer 1
10
214.055274
20
64.359269
11
214.541447
21
63.780497
0
LINE
8
Layer 1
10
214.541447
20
63.780497
11
215.517095
21
63.314169
0
LINE
8
Layer 1
10
215.517095
20
63.314169
11
217.147587
21
62.867685
0
LINE
8
Layer 1
10
217.147587
20
62.867685
11
217.981025
21
62.682477
0
LINE
8
Layer 1
10
217.981025
20
62.682477
11
220.196907
21
62.011097
0
LINE
8
Layer 1
10
220.196907
20
62.011097
11
221.658735
21
61.108207
0
LINE
8
Layer 1
10
221.658735
20
61.108207
11
222.139119
21
60.555061
0
LINE
8
Layer 1
10
222.139119
20
60.555061
11
222.482250
21
59.901044
0
LINE
8
Layer 1
10
222.482250
20
59.901044
11
222.688129
21
59.146156
0
LINE
8
Layer 1
10
222.688129
20
59.146156
11
222.756755
21
58.290397
0
LINE
8
Layer 1
10
222.756755
20
58.290397
11
222.654229
21
57.312266
0
LINE
8
Layer 1
10
222.654229
20
57.312266
11
222.346650
21
56.441622
0
LINE
8
Layer 1
10
222.346650
20
56.441622
11
221.834019
21
55.678466
0
LINE
8
Layer 1
10
221.834019
20
55.678466
11
221.116335
21
55.022797
0
LINE
8
Layer 1
10
221.116335
20
55.022797
11
220.225850
21
54.496113
0
LINE
8
Layer 1
10
220.225850
20
54.496113
11
219.181575
21
54.119909
0
LINE
8
Layer 1
10
219.181575
20
54.119909
11
217.983510
21
53.894188
0
LINE
8
Layer 1
10
217.983510
20
53.894188
11
216.631655
21
53.818947
0
LINE
8
Layer 1
10
216.631655
20
53.818947
11
214.144575
21
54.057072
0
LINE
8
Layer 1
10
214.144575
20
54.057072
11
211.432595
21
54.744988
0
LINE
8
Layer 1
10
211.432595
20
54.744988
11
211.432000
21
57.258500
0
LINE
8
Layer 1
10
211.432000
20
57.258500
11
212.771450
21
56.643345
0
LINE
8
Layer 1
10
212.771450
20
56.643345
11
214.091060
21
56.200170
0
LINE
8
Layer 1
10
214.091060
20
56.200170
11
215.394132
21
55.942201
0
LINE
8
Layer 1
10
215.394132
20
55.942201
11
216.683970
21
55.856212
0
LINE
8
Layer 1
10
216.683970
20
55.856212
11
218.205322
21
56.001733
0
LINE
8
Layer 1
10
218.205322
20
56.001733
11
219.329800
21
56.438295
0
LINE
8
Layer 1
10
219.329800
20
56.438295
11
220.024331
21
57.152668
0
LINE
8
Layer 1
10
220.024331
20
57.152668
11
220.255841
21
58.105165
0
LINE
8
Layer 1
10
220.255841
20
58.105165
11
220.087169
21
58.981596
0
LINE
8
Layer 1
10
220.087169
20
58.981596
11
219.581153
21
59.626515
0
LINE
8
Layer 1
10
219.581153
20
59.626515
11
218.519514
21
60.145760
0
LINE
8
Layer 1
10
218.519514
20
60.145760
11
216.657513
21
60.645165
0
LINE
8
Layer 1
10
216.657513
20
60.645165
11
215.810847
21
60.843602
0
LINE
8
Layer 1
10
215.810847
20
60.843602
11
213.862852
21
61.445529
0
LINE
8
Layer 1
10
213.862852
20
61.445529
11
212.543247
21
62.298812
0
LINE
8
Layer 1
10
212.543247
20
62.298812
11
212.103376
21
62.840381
0
LINE
8
Layer 1
10
212.103376
20
62.840381
11
211.789182
21
63.472900
0
LINE
8
Layer 1
10
211.789182
20
63.472900
11
211.537827
21
65.010792
0
LINE
8
Layer 1
10
211.537827
20
65.010792
11
211.630431
21
65.996365
0
LINE
8
Layer 1
10
211.630431
20
65.996365
11
211.908244
21
66.862874
0
LINE
8
Layer 1
10
211.908244
20
66.862874
11
212.371266
21
67.610320
0
LINE
8
Layer 1
10
212.371266
20
67.610320
11
213.019497
21
68.238702
0
LINE
8
Layer 1
10
213.019497
20
68.238702
11
213.838053
21
68.736450
0
LINE
8
Layer 1
10
213.838053
20
68.736450
11
214.812050
21
69.091984
0
LINE
8
Layer 1
10
214.812050
20
69.091984
11
215.941488
21
69.305305
0
LINE
8
Layer 1
10
215.941488
20
69.305305
11
217.226367
21
69.376412
0
LINE
8
Layer 1
10
217.226367
20
69.376412
11
219.766367
21
69.177975
0
LINE
8
Layer 1
10
219.766367
20
69.177975
11
221.962407
21
68.582663
0
LINE
8
Layer 1
10
221.962407
20
68.582663
11
221.963000
21
68.582700
0
LINE
8
Layer 1
10
120.244000
20
29.278800
11
120.244000
21
20.335900
0
LINE
8
Layer 1
10
120.244000
20
20.335900
11
117.809000
21
20.335900
0
LINE
8
Layer 1
10
117.809000
20
20.335900
11
117.809000
21
29.199500
0
LINE
8
Layer 1
10
117.809000
20
29.199500
11
117.603948
21
31.038355
0
LINE
8
Layer 1
10
117.603948
20
31.038355
11
116.988792
21
32.348040
0
LINE
8
Layer 1
10
116.988792
20
32.348040
11
116.527425
21
32.805271
0
LINE
8
Layer 1
10
116.527425
20
32.805271
11
115.963533
21
33.131865
0
LINE
8
Layer 1
10
115.963533
20
33.131865
11
114.528172
21
33.393140
0
LINE
8
Layer 1
10
114.528172
20
33.393140
11
113.594688
21
33.314592
0
LINE
8
Layer 1
10
113.594688
20
33.314592
11
112.765384
21
33.078947
0
LINE
8
Layer 1
10
112.765384
20
33.078947
11
112.040263
21
32.686207
0
LINE
8
Layer 1
10
112.040263
20
32.686207
11
111.419322
21
32.136370
0
LINE
8
Layer 1
10
111.419322
20
32.136370
11
110.921574
21
31.450934
0
LINE
8
Layer 1
10
110.921574
20
31.450934
11
110.566039
21
30.651397
0
LINE
8
Layer 1
10
110.566039
20
30.651397
11
110.352719
21
29.737759
0
LINE
8
Layer 1
10
110.352719
20
29.737759
11
110.281612
21
28.710020
0
LINE
8
Layer 1
10
110.281612
20
28.710020
11
110.282000
21
20.335900
0
LINE
8
Layer 1
10
110.282000
20
20.335900
11
107.835000
21
20.335900
0
LINE
8
Layer 1
10
107.835000
20
20.335900
11
107.835000
21
35.152600
0
LINE
8
Layer 1
10
107.835000
20
35.152600
11
110.282000
21
35.152600
0
LINE
8
Layer 1
10
110.282000
20
35.152600
11
110.282000
21
32.850700
0
LINE
8
Layer 1
10
110.282000
20
32.850700
11
111.231192
21
34.018175
0
LINE
8
Layer 1
10
111.231192
20
34.018175
11
112.332520
21
34.848300
0
LINE
8
Layer 1
10
112.332520
20
34.848300
11
113.612437
21
35.344394
0
LINE
8
Layer 1
10
113.612437
20
35.344394
11
115.070950
21
35.509758
0
LINE
8
Layer 1
10
115.070950
20
35.509758
11
116.269843
21
35.410539
0
LINE
8
Layer 1
10
116.269843
20
35.410539
11
117.313292
21
35.112883
0
LINE
8
Layer 1
10
117.313292
20
35.112883
11
118.201298
21
34.616789
0
LINE
8
Layer 1
10
118.201298
20
34.616789
11
118.933860
21
33.922258
0
LINE
8
Layer 1
10
118.933860
20
33.922258
11
119.506849
21
33.041692
0
LINE
8
Layer 1
10
119.506849
20
33.041692
11
119.916127
21
31.974263
0
LINE
8
Layer 1
10
119.916127
20
31.974263
11
120.161694
21
30.719972
0
LINE
8
Layer 1
10
120.161694
20
30.719972
11
120.243550
21
29.278818
0
LINE
8
Layer 1
10
120.243550
20
29.278818
11
120.244000
21
29.278800
0
LINE
8
Layer 1
10
130.840000
20
33.446000
11
129.912304
21
33.350089
0
LINE
8
Layer 1
10
129.912304
20
33.350089
11
129.087135
21
33.062355
0
LINE
8
Layer 1
10
129.087135
20
33.062355
11
128.364494
21
32.582799
0
LINE
8
Layer 1
10
128.364494
20
32.582799
11
127.744380
21
31.911420
0
LINE
8
Layer 1
10
127.744380
20
31.911420
11
127.246632
21
31.079638
0
LINE
8
Layer 1
10
127.246632
20
31.079638
11
126.891098
21
30.105642
0
LINE
8
Layer 1
10
126.891098
20
30.105642
11
126.677777
21
28.989433
0
LINE
8
Layer 1
10
126.677777
20
28.989433
11
126.606670
21
27.731010
0
LINE
8
Layer 1
10
126.606670
20
27.731010
11
126.676950
21
26.471760
0
LINE
8
Layer 1
10
126.676950
20
26.471760
11
126.887790
21
25.353070
0
LINE
8
Layer 1
10
126.887790
20
25.353070
11
127.239190
21
24.374940
0
LINE
8
Layer 1
10
127.239190
20
24.374940
11
127.731150
21
23.537370
0
LINE
8
Layer 1
10
127.731150
20
23.537370
11
128.352094
21
22.871779
0
LINE
8
Layer 1
10
128.352094
20
22.871779
11
129.077218
21
22.396357
0
LINE
8
Layer 1
10
129.077218
20
22.396357
11
129.906519
21
22.111104
0
LINE
8
Layer 1
10
129.906519
20
22.111104
11
130.840000
21
22.016020
0
LINE
8
Layer 1
10
130.840000
20
22.016020
11
131.761908
21
22.111931
0
LINE
8
Layer 1
10
131.761908
20
22.111931
11
132.582943
21
22.399665
0
LINE
8
Layer 1
10
132.582943
20
22.399665
11
133.303103
21
22.879221
0
LINE
8
Layer 1
10
133.303103
20
22.879221
11
133.922390
21
23.550600
0
LINE
8
Layer 1
10
133.922390
20
23.550600
11
134.420138
21
24.387343
0
LINE
8
Layer 1
10
134.420138
20
24.387343
11
134.775672
21
25.362992
0
LINE
8
Layer 1
10
134.775672
20
25.362992
11
134.988993
21
26.477548
0
LINE
8
Layer 1
10
134.988993
20
26.477548
11
135.060100
21
27.731010
0
LINE
8
Layer 1
10
135.060100
20
27.731010
11
134.988993
21
28.978684
0
LINE
8
Layer 1
10
134.988993
20
28.978684
11
134.775672
21
30.089105
0
LINE
8
Layer 1
10
134.775672
20
30.089105
11
134.420138
21
31.062274
0
LINE
8
Layer 1
10
134.420138
20
31.062274
11
133.922390
21
31.898190
0
LINE
8
Layer 1
10
133.922390
20
31.898190
11
133.303099
21
32.575357
0
LINE
8
Layer 1
10
133.303099
20
32.575357
11
132.582938
21
33.059047
0
LINE
8
Layer 1
10
132.582938
20
33.059047
11
131.761904
21
33.349262
0
LINE
8
Layer 1
10
131.761904
20
33.349262
11
130.840000
21
33.446000
0
LINE
8
Layer 1
10
130.840000
20
33.446000
11
130.840000
21
33.446000
0
LINE
8
Layer 1
10
130.840000
20
35.509750
11
132.342337
21
35.380766
0
LINE
8
Layer 1
10
132.342337
20
35.380766
11
133.674347
21
34.993812
0
LINE
8
Layer 1
10
133.674347
20
34.993812
11
134.836032
21
34.348891
0
LINE
8
Layer 1
10
134.836032
20
34.348891
11
135.827390
21
33.446000
0
LINE
8
Layer 1
10
135.827390
20
33.446000
11
136.620311
21
32.314906
0
LINE
8
Layer 1
10
136.620311
20
32.314906
11
137.186682
21
30.985375
0
LINE
8
Layer 1
10
137.186682
20
30.985375
11
137.526506
21
29.457406
0
LINE
8
Layer 1
10
137.526506
20
29.457406
11
137.639780
21
27.731000
0
LINE
8
Layer 1
10
137.639780
20
27.731000
11
137.526506
21
26.009555
0
LINE
8
Layer 1
10
137.526506
20
26.009555
11
137.186682
21
24.483240
0
LINE
8
Layer 1
10
137.186682
20
24.483240
11
136.620311
21
23.152055
0
LINE
8
Layer 1
10
136.620311
20
23.152055
11
135.827390
21
22.016000
0
LINE
8
Layer 1
10
135.827390
20
22.016000
11
134.836028
21
21.113109
0
LINE
8
Layer 1
10
134.836028
20
21.113109
11
133.674342
21
20.468187
0
LINE
8
Layer 1
10
133.674342
20
20.468187
11
132.342333
21
20.081234
0
LINE
8
Layer 1
10
132.342333
20
20.081234
11
130.840000
21
19.952250
0
LINE
8
Layer 1
10
130.840000
20
19.952250
11
129.331875
21
20.081234
0
LINE
8
Layer 1
10
129.331875
20
20.081234
11
127.995730
21
20.468187
0
LINE
8
Layer 1
10
127.995730
20
20.468187
11
126.831565
21
21.113109
0
LINE
8
Layer 1
10
126.831565
20
21.113109
11
125.839380
21
22.016000
0
LINE
8
Layer 1
10
125.839380
20
22.016000
11
125.052243
21
23.152055
0
LINE
8
Layer 1
10
125.052243
20
23.152055
11
124.490003
21
24.483240
0
LINE
8
Layer 1
10
124.490003
20
24.483240
11
124.152658
21
26.009555
0
LINE
8
Layer 1
10
124.152658
20
26.009555
11
124.040210
21
27.731000
0
LINE
8
Layer 1
10
124.040210
20
27.731000
11
124.152658
21
29.457406
0
LINE
8
Layer 1
10
124.152658
20
29.457406
11
124.490003
21
30.985375
0
LINE
8
Layer 1
10
124.490003
20
30.985375
11
125.052243
21
32.314906
0
LINE
8
Layer 1
10
125.052243
20
32.314906
11
125.839380
21
33.446000
0
LINE
8
Layer 1
10
125.839380
20
33.446000
11
126.831569
21
34.348891
0
LINE
8
Layer 1
10
126.831569
20
34.348891
11
127.995735
21
34.993812
0
LINE
8
Layer 1
10
127.995735
20
34.993812
11
129.331879
21
35.380766
0
LINE
8
Layer 1
10
129.331879
20
35.380766
11
130.840000
21
35.509750
0
LINE
8
Layer 1
10
130.840000
20
35.509750
11
130.840000
21
35.509750
0
LINE
8
Layer 1
10
153.991000
20
29.278800
11
153.991000
21
20.335900
0
LINE
8
Layer 1
10
153.991000
20
20.335900
11
151.557000
21
20.335900
0
LINE
8
Layer 1
10
151.557000
20
20.335900
11
151.557000
21
29.199500
0
LINE
8
Layer 1
10
151.557000
20
29.199500
11
151.351948
21
31.038355
0
LINE
8
Layer 1
10
151.351948
20
31.038355
11
150.736792
21
32.348040
0
LINE
8
Layer 1
10
150.736792
20
32.348040
11
150.275425
21
32.805271
0
LINE
8
Layer 1
10
150.275425
20
32.805271
11
149.711533
21
33.131865
0
LINE
8
Layer 1
10
149.711533
20
33.131865
11
148.276172
21
33.393140
0
LINE
8
Layer 1
10
148.276172
20
33.393140
11
147.342691
21
33.314592
0
LINE
8
Layer 1
10
147.342691
20
33.314592
11
146.513389
21
33.078947
0
LINE
8
Layer 1
10
146.513389
20
33.078947
11
145.788266
21
32.686207
0
LINE
8
Layer 1
10
145.788266
20
32.686207
11
145.167322
21
32.136370
0
LINE
8
Layer 1
10
145.167322
20
32.136370
11
144.669574
21
31.450934
0
LINE
8
Layer 1
10
144.669574
20
31.450934
11
144.314039
21
30.651397
0
LINE
8
Layer 1
10
144.314039
20
30.651397
11
144.100719
21
29.737759
0
LINE
8
Layer 1
10
144.100719
20
29.737759
11
144.029612
21
28.710020
0
LINE
8
Layer 1
10
144.029612
20
28.710020
11
144.030000
21
20.335900
0
LINE
8
Layer 1
10
144.030000
20
20.335900
11
141.582000
21
20.335900
0
LINE
8
Layer 1
10
141.582000
20
20.335900
11
141.582000
21
35.152600
0
LINE
8
Layer 1
10
141.582000
20
35.152600
11
144.030000
21
35.152600
0
LINE
8
Layer 1
10
144.030000
20
35.152600
11
144.030000
21
32.850700
0
LINE
8
Layer 1
10
144.030000
20
32.850700
11
144.979192
21
34.018175
0
LINE
8
Layer 1
10
144.979192
20
34.018175
11
146.080520
21
34.848300
0
LINE
8
Layer 1
10
146.080520
20
34.848300
11
147.360440
21
35.344394
0
LINE
8
Layer 1
10
147.360440
20
35.344394
11
148.818960
21
35.509758
0
LINE
8
Layer 1
10
148.818960
20
35.509758
11
150.017853
21
35.410539
0
LINE
8
Layer 1
10
150.017853
20
35.410539
11
151.061303
21
35.112883
0
LINE
8
Layer 1
10
151.061303
20
35.112883
11
151.949308
21
34.616789
0
LINE
8
Layer 1
10
151.949308
20
34.616789
11
152.681870
21
33.922258
0
LINE
8
Layer 1
10
152.681870
20
33.922258
11
153.254859
21
33.041692
0
LINE
8
Layer 1
10
153.254859
20
33.041692
11
153.664137
21
31.974263
0
LINE
8
Layer 1
10
153.664137
20
31.974263
11
153.909704
21
30.719972
0
LINE
8
Layer 1
10
153.909704
20
30.719972
11
153.991560
21
29.278818
0
LINE
8
Layer 1
10
153.991560
20
29.278818
11
153.991000
21
29.278800
0
LINE
8
Layer 1
10
157.616000
20
28.842300
11
164.747000
21
28.842300
0
LINE
8
Layer 1
10
164.747000
20
28.842300
11
164.747000
21
26.672700
0
LINE
8
Layer 1
10
164.747000
20
26.672700
11
157.616000
21
26.672700
0
LINE
8
Layer 1
10
157.616000
20
26.672700
11
157.616000
21
28.842300
0
LINE
8
Layer 1
10
177.499000
20
38.274700
11
176.118209
21
38.139101
0
LINE
8
Layer 1
10
176.118209
20
38.139101
11
174.886245
21
37.732305
0
LINE
8
Layer 1
10
174.886245
20
37.732305
11
173.803109
21
37.054311
0
LINE
8
Layer 1
10
173.803109
20
37.054311
11
172.868800
21
36.105120
0
LINE
8
Layer 1
10
172.868800
20
36.105120
11
172.122180
21
34.921938
0
LINE
8
Layer 1
10
172.122180
20
34.921938
11
171.588880
21
33.541972
0
LINE
8
Layer 1
10
171.588880
20
33.541972
11
171.268900
21
31.965223
0
LINE
8
Layer 1
10
171.268900
20
31.965223
11
171.162240
21
30.191690
0
LINE
8
Layer 1
10
171.162240
20
30.191690
11
171.268900
21
28.423945
0
LINE
8
Layer 1
10
171.268900
20
28.423945
11
171.588880
21
26.851330
0
LINE
8
Layer 1
10
171.588880
20
26.851330
11
172.122180
21
25.473845
0
LINE
8
Layer 1
10
172.122180
20
25.473845
11
172.868800
21
24.291490
0
LINE
8
Layer 1
10
172.868800
20
24.291490
11
173.803109
21
23.342299
0
LINE
8
Layer 1
10
173.803109
20
23.342299
11
174.886245
21
22.664305
0
LINE
8
Layer 1
10
174.886245
20
22.664305
11
176.118209
21
22.257509
0
LINE
8
Layer 1
10
176.118209
20
22.257509
11
177.499000
21
22.121910
0
LINE
8
Layer 1
10
177.499000
20
22.121910
11
178.878138
21
22.257509
0
LINE
8
Layer 1
10
178.878138
20
22.257509
11
180.105142
21
22.664305
0
LINE
8
Layer 1
10
180.105142
20
22.664305
11
181.180013
21
23.342299
0
LINE
8
Layer 1
10
181.180013
20
23.342299
11
182.102750
21
24.291490
0
LINE
8
Layer 1
10
182.102750
20
24.291490
11
182.849370
21
25.473845
0
LINE
8
Layer 1
10
182.849370
20
25.473845
11
183.382670
21
26.851330
0
LINE
8
Layer 1
10
183.382670
20
26.851330
11
183.702650
21
28.423945
0
LINE
8
Layer 1
10
183.702650
20
28.423945
11
183.809310
21
30.191690
0
LINE
8
Layer 1
10
183.809310
20
30.191690
11
183.702650
21
31.965223
0
LINE
8
Layer 1
10
183.702650
20
31.965223
11
183.382670
21
33.541972
0
LINE
8
Layer 1
10
183.382670
20
33.541972
11
182.849370
21
34.921938
0
LINE
8
Layer 1
10
182.849370
20
34.921938
11
182.102750
21
36.105120
0
LINE
8
Layer 1
10
182.102750
20
36.105120
11
181.180017
21
37.054311
0
LINE
8
Layer 1
10
181.180017
20
37.054311
11
180.105147
21
37.732305
0
LINE
8
Layer 1
10
180.105147
20
37.732305
11
178.878142
21
38.139101
0
LINE
8
Layer 1
10
178.878142
20
38.139101
11
177.499000
21
38.274700
0
LINE
8
Layer 1
10
177.499000
20
38.274700
11
177.499000
21
38.274700
0
LINE
8
Layer 1
10
177.499000
20
40.444280
11
179.471800
21
40.269821
0
LINE
8
Layer 1
10
179.471800
20
40.269821
11
181.236240
21
39.746443
0
LINE
8
Layer 1
10
181.236240
20
39.746443
11
182.792320
21
38.874146
0
LINE
8
Layer 1
10
182.792320
20
38.874146
11
184.140040
21
37.652930
0
LINE
8
Layer 1
10
184.140040
20
37.652930
11
185.228138
21
36.144807
0
LINE
8
Layer 1
10
185.228138
20
36.144807
11
186.005350
21
34.398560
0
LINE
8
Layer 1
10
186.005350
20
34.398560
11
186.471677
21
32.414188
0
LINE
8
Layer 1
10
186.471677
20
32.414188
11
186.627120
21
30.191690
0
LINE
8
Layer 1
10
186.627120
20
30.191690
11
186.471677
21
27.974154
0
LINE
8
Layer 1
10
186.471677
20
27.974154
11
186.005350
21
25.991435
0
LINE
8
Layer 1
10
186.005350
20
25.991435
11
185.228138
21
24.243534
0
LINE
8
Layer 1
10
185.228138
20
24.243534
11
184.140040
21
22.730450
0
LINE
8
Layer 1
10
184.140040
20
22.730450
11
182.792320
21
21.515023
0
LINE
8
Layer 1
10
182.792320
20
21.515023
11
181.236240
21
20.646860
0
LINE
8
Layer 1
10
181.236240
20
20.646860
11
179.471800
21
20.125963
0
LINE
8
Layer 1
10
179.471800
20
20.125963
11
177.499000
21
19.952330
0
LINE
8
Layer 1
10
177.499000
20
19.952330
11
175.519586
21
20.125963
0
LINE
8
Layer 1
10
175.519586
20
20.125963
11
173.748533
21
20.646860
0
LINE
8
Layer 1
10
173.748533
20
20.646860
11
172.185841
21
21.515023
0
LINE
8
Layer 1
10
172.185841
20
21.515023
11
170.831510
21
22.730450
0
LINE
8
Layer 1
10
170.831510
20
22.730450
11
169.743413
21
24.238573
0
LINE
8
Layer 1
10
169.743413
20
24.238573
11
168.966200
21
25.984820
0
LINE
8
Layer 1
10
168.966200
20
25.984820
11
168.499873
21
27.969193
0
LINE
8
Layer 1
10
168.499873
20
27.969193
11
168.344430
21
30.191690
0
LINE
8
Layer 1
10
168.344430
20
30.191690
11
168.499873
21
32.414188
0
LINE
8
Layer 1
10
168.499873
20
32.414188
11
168.966200
21
34.398560
0
LINE
8
Layer 1
10
168.966200
20
34.398560
11
169.743413
21
36.144807
0
LINE
8
Layer 1
10
169.743413
20
36.144807
11
170.831510
21
37.652930
0
LINE
8
Layer 1
10
170.831510
20
37.652930
11
172.185844
21
38.874146
0
LINE
8
Layer 1
10
172.185844
20
38.874146
11
173.748537
21
39.746443
0
LINE
8
Layer 1
10
173.748537
20
39.746443
11
175.519589
21
40.269821
0
LINE
8
Layer 1
10
175.519589
20
40.269821
11
177.499000
21
40.444280
0
LINE
8
Layer 1
10
177.499000
20
40.444280
11
177.499000
21
40.444280
0
LINE
8
Layer 1
10
190.808000
20
40.087100
11
203.296000
21
40.087100
0
LINE
8
Layer 1
10
203.296000
20
40.087100
11
203.296000
21
37.838100
0
LINE
8
Layer 1
10
203.296000
20
37.838100
11
193.480000
21
37.838100
0
LINE
8
Layer 1
10
193.480000
20
37.838100
11
193.480000
21
31.990800
0
LINE
8
Layer 1
10
193.480000
20
31.990800
11
202.886000
21
31.990800
0
LINE
8
Layer 1
10
202.886000
20
31.990800
11
202.886000
21
29.741900
0
LINE
8
Layer 1
10
202.886000
20
29.741900
11
193.480000
21
29.741900
0
LINE
8
Layer 1
10
193.480000
20
29.741900
11
193.480000
21
22.584900
0
LINE
8
Layer 1
10
193.480000
20
22.584900
11
203.534000
21
22.584900
0
LINE
8
Layer 1
10
203.534000
20
22.584900
11
203.534000
21
20.335900
0
LINE
8
Layer 1
10
203.534000
20
20.335900
11
190.808000
21
20.335900
0
LINE
8
Layer 1
10
190.808000
20
20.335900
11
190.808000
21
40.087100
0
LINE
8
Layer 1
10
207.927000
20
40.087100
11
211.908000
21
40.087100
0
LINE
8
Layer 1
10
211.908000
20
40.087100
11
216.948310
21
26.646300
0
LINE
8
Layer 1
10
216.948310
20
26.646300
11
222.015080
21
40.087100
0
LINE
8
Layer 1
10
222.015080
20
40.087100
11
225.998000
21
40.087100
0
LINE
8
Layer 1
10
225.998000
20
40.087100
11
225.998000
21
20.335900
0
LINE
8
Layer 1
10
225.998000
20
20.335900
11
223.391000
21
20.335900
0
LINE
8
Layer 1
10
223.391000
20
20.335900
11
223.391000
21
37.679400
0
LINE
8
Layer 1
10
223.391000
20
37.679400
11
218.297780
21
24.132700
0
LINE
8
Layer 1
10
218.297780
20
24.132700
11
215.613000
21
24.132700
0
LINE
8
Layer 1
10
215.613000
20
24.132700
11
210.519780
21
37.679400
0
LINE
8
Layer 1
10
210.519780
20
37.679400
11
210.519000
21
20.335900
0
LINE
8
Layer 1
10
210.519000
20
20.335900
11
207.927000
21
20.335900
0
LINE
8
Layer 1
10
207.927000
20
20.335900
11
207.927000
21
40.087100
0
LINE
8
Layer 1
10
110.282000
20
-11.308200
11
110.282000
21
-19.166300
0
LINE
8
Layer 1
10
110.282000
20
-19.166300
11
107.835000
21
-19.166300
0
LINE
8
Layer 1
10
107.835000
20
-19.166300
11
107.835000
21
1.285950
0
LINE
8
Layer 1
10
107.835000
20
1.285950
11
110.282000
21
1.285950
0
LINE
8
Layer 1
10
110.282000
20
1.285950
11
110.282000
21
-0.963009
0
LINE
8
Layer 1
10
110.282000
20
-0.963009
11
111.148510
21
0.187931
0
LINE
8
Layer 1
10
111.148510
20
0.187931
11
112.213460
21
0.994911
0
LINE
8
Layer 1
10
112.213460
20
0.994911
11
113.503305
21
1.481083
0
LINE
8
Layer 1
10
113.503305
20
1.481083
11
115.018040
21
1.643141
0
LINE
8
Layer 1
10
115.018040
20
1.643141
11
116.303749
21
1.509196
0
LINE
8
Layer 1
10
116.303749
20
1.509196
11
117.462127
21
1.107361
0
LINE
8
Layer 1
10
117.462127
20
1.107361
11
118.493174
21
0.437636
0
LINE
8
Layer 1
10
118.493174
20
0.437636
11
119.396890
21
-0.499979
0
LINE
8
Layer 1
10
119.396890
20
-0.499979
11
120.137722
21
-1.655875
0
LINE
8
Layer 1
10
120.137722
20
-1.655875
11
120.666888
21
-2.980444
0
LINE
8
Layer 1
10
120.666888
20
-2.980444
11
120.984387
21
-4.473685
0
LINE
8
Layer 1
10
120.984387
20
-4.473685
11
121.090220
21
-6.135599
0
LINE
8
Layer 1
10
121.090220
20
-6.135599
11
120.984387
21
-7.797513
0
LINE
8
Layer 1
10
120.984387
20
-7.797513
11
120.666888
21
-9.290754
0
LINE
8
Layer 1
10
120.666888
20
-9.290754
11
120.137722
21
-10.615323
0
LINE
8
Layer 1
10
120.137722
20
-10.615323
11
119.396890
21
-11.771219
0
LINE
8
Layer 1
10
119.396890
20
-11.771219
11
118.493174
21
-12.708834
0
LINE
8
Layer 1
10
118.493174
20
-12.708834
11
117.462127
21
-13.378559
0
LINE
8
Layer 1
10
117.462127
20
-13.378559
11
116.303749
21
-13.780394
0
LINE
8
Layer 1
10
116.303749
20
-13.780394
11
115.018040
21
-13.914339
0
LINE
8
Layer 1
10
115.018040
20
-13.914339
11
113.503305
21
-13.755589
0
LINE
8
Layer 1
10
113.503305
20
-13.755589
11
112.213460
21
-13.279340
0
LINE
8
Layer 1
10
112.213460
20
-13.279340
11
111.148510
21
-12.462442
0
LINE
8
Layer 1
10
111.148510
20
-12.462442
11
110.282000
21
-11.308200
0
LINE
8
Layer 1
10
110.282000
20
-11.308200
11
110.282000
21
-11.308200
0
LINE
8
Layer 1
10
118.563450
20
-6.135600
11
118.493997
21
-4.865601
0
LINE
8
Layer 1
10
118.493997
20
-4.865601
11
118.285637
21
-3.741122
0
LINE
8
Layer 1
10
118.285637
20
-3.741122
11
117.938372
21
-2.762166
0
LINE
8
Layer 1
10
117.938372
20
-2.762166
11
117.452200
21
-1.928730
0
LINE
8
Layer 1
10
117.452200
20
-1.928730
11
116.851100
21
-1.257351
0
LINE
8
Layer 1
10
116.851100
20
-1.257351
11
116.145820
21
-0.777795
0
LINE
8
Layer 1
10
116.145820
20
-0.777795
11
115.336360
21
-0.490061
0
LINE
8
Layer 1
10
115.336360
20
-0.490061
11
114.422720
21
-0.394150
0
LINE
8
Layer 1
10
114.422720
20
-0.394150
11
113.508253
21
-0.490061
0
LINE
8
Layer 1
10
113.508253
20
-0.490061
11
112.696312
21
-0.777795
0
LINE
8
Layer 1
10
112.696312
20
-0.777795
11
111.986898
21
-1.257351
0
LINE
8
Layer 1
10
111.986898
20
-1.257351
11
111.380010
21
-1.928730
0
LINE
8
Layer 1
10
111.380010
20
-1.928730
11
110.899626
21
-2.762166
0
LINE
8
Layer 1
10
110.899626
20
-2.762166
11
110.556495
21
-3.741122
0
LINE
8
Layer 1
10
110.556495
20
-3.741122
11
110.350616
21
-4.865601
0
LINE
8
Layer 1
10
110.350616
20
-4.865601
11
110.281990
21
-6.135600
0
LINE
8
Layer 1
10
110.281990
20
-6.135600
11
110.350616
21
-7.406426
0
LINE
8
Layer 1
10
110.350616
20
-7.406426
11
110.556495
21
-8.533385
0
LINE
8
Layer 1
10
110.556495
20
-8.533385
11
110.899626
21
-9.516476
0
LINE
8
Layer 1
10
110.899626
20
-9.516476
11
111.380010
21
-10.355700
0
LINE
8
Layer 1
10
111.380010
20
-10.355700
11
111.986898
21
-11.021291
0
LINE
8
Layer 1
10
111.986898
20
-11.021291
11
112.696312
21
-11.496712
0
LINE
8
Layer 1
10
112.696312
20
-11.496712
11
113.508253
21
-11.781966
0
LINE
8
Layer 1
10
113.508253
20
-11.781966
11
114.422720
21
-11.877050
0
LINE
8
Layer 1
10
114.422720
20
-11.877050
11
115.336360
21
-11.781966
0
LINE
8
Layer 1
10
115.336360
20
-11.781966
11
116.145820
21
-11.496712
0
LINE
8
Layer 1
10
116.145820
20
-11.496712
11
116.851100
21
-11.021291
0
LINE
8
Layer 1
10
116.851100
20
-11.021291
11
117.452200
21
-10.355700
0
LINE
8
Layer 1
10
117.452200
20
-10.355700
11
117.938372
21
-9.516476
0
LINE
8
Layer 1
10
117.938372
20
-9.516476
11
118.285637
21
-8.533385
0
LINE
8
Layer 1
10
118.285637
20
-8.533385
11
118.493997
21
-7.406426
0
LINE
8
Layer 1
10
118.493997
20
-7.406426
11
118.563450
21
-6.135600
0
LINE
8
Layer 1
10
118.563450
20
-6.135600
11
118.563450
21
-6.135600
0
LINE
8
Layer 1
10
131.859000
20
-6.082690
11
129.361998
21
-6.251362
0
LINE
8
Layer 1
10
129.361998
20
-6.251362
11
127.771190
21
-6.757378
0
LINE
8
Layer 1
10
127.771190
20
-6.757378
11
127.273442
21
-7.154252
0
LINE
8
Layer 1
10
127.273442
20
-7.154252
11
126.917907
21
-7.670189
0
LINE
8
Layer 1
10
126.917907
20
-7.670189
11
126.704587
21
-8.305187
0
LINE
8
Layer 1
10
126.704587
20
-8.305187
11
126.633480
21
-9.059248
0
LINE
8
Layer 1
10
126.633480
20
-9.059248
11
126.845146
21
-10.223415
0
LINE
8
Layer 1
10
126.845146
20
-10.223415
11
127.480146
21
-11.122998
0
LINE
8
Layer 1
10
127.480146
20
-11.122998
11
128.492177
21
-11.688543
0
LINE
8
Layer 1
10
128.492177
20
-11.688543
11
129.808476
21
-11.877058
0
LINE
8
Layer 1
10
129.808476
20
-11.877058
11
130.770070
21
-11.787761
0
LINE
8
Layer 1
10
130.770070
20
-11.787761
11
131.630791
21
-11.519871
0
LINE
8
Layer 1
10
131.630791
20
-11.519871
11
132.390640
21
-11.073386
0
LINE
8
Layer 1
10
132.390640
20
-11.073386
11
133.049616
21
-10.448308
0
LINE
8
Layer 1
10
133.049616
20
-10.448308
11
133.587877
21
-9.668614
0
LINE
8
Layer 1
10
133.587877
20
-9.668614
11
133.972349
21
-8.771513
0
LINE
8
Layer 1
10
133.972349
20
-8.771513
11
134.203032
21
-7.757004
0
LINE
8
Layer 1
10
134.203032
20
-7.757004
11
134.279926
21
-6.625088
0
LINE
8
Layer 1
10
134.279926
20
-6.625088
11
134.280000
21
-6.082690
0
LINE
8
Layer 1
10
134.280000
20
-6.082690
11
131.859000
21
-6.082690
0
LINE
8
Layer 1
10
136.714100
20
-5.077270
11
136.714000
21
-13.530700
0
LINE
8
Layer 1
10
136.714000
20
-13.530700
11
134.280000
21
-13.530700
0
LINE
8
Layer 1
10
134.280000
20
-13.530700
11
134.280000
21
-11.281800
0
LINE
8
Layer 1
10
134.280000
20
-11.281800
11
133.344037
21
-12.455885
0
LINE
8
Layer 1
10
133.344037
20
-12.455885
11
132.203020
21
-13.279400
0
LINE
8
Layer 1
10
132.203020
20
-13.279400
11
130.820572
21
-13.755649
0
LINE
8
Layer 1
10
130.820572
20
-13.755649
11
129.160310
21
-13.914399
0
LINE
8
Layer 1
10
129.160310
20
-13.914399
11
128.080482
21
-13.835024
0
LINE
8
Layer 1
10
128.080482
20
-13.835024
11
127.116408
21
-13.596899
0
LINE
8
Layer 1
10
127.116408
20
-13.596899
11
126.268087
21
-13.200024
0
LINE
8
Layer 1
10
126.268087
20
-13.200024
11
125.535520
21
-12.644399
0
LINE
8
Layer 1
10
125.535520
20
-12.644399
11
124.950954
21
-11.949041
0
LINE
8
Layer 1
10
124.950954
20
-11.949041
11
124.533407
21
-11.146197
0
LINE
8
Layer 1
10
124.533407
20
-11.146197
11
124.282879
21
-10.235866
0
LINE
8
Layer 1
10
124.282879
20
-10.235866
11
124.199370
21
-9.218049
0
LINE
8
Layer 1
10
124.199370
20
-9.218049
11
124.303549
21
-8.044788
0
LINE
8
Layer 1
10
124.303549
20
-8.044788
11
124.616087
21
-7.025317
0
LINE
8
Layer 1
10
124.616087
20
-7.025317
11
125.136984
21
-6.159633
0
LINE
8
Layer 1
10
125.136984
20
-6.159633
11
125.866240
21
-5.447739
0
LINE
8
Layer 1
10
125.866240
20
-5.447739
11
126.808816
21
-4.892114
0
LINE
8
Layer 1
10
126.808816
20
-4.892114
11
127.956445
21
-4.495239
0
LINE
8
Layer 1
10
127.956445
20
-4.495239
11
129.309126
21
-4.257114
0
LINE
8
Layer 1
10
129.309126
20
-4.257114
11
130.866860
21
-4.177739
0
LINE
8
Layer 1
10
130.866860
20
-4.177739
11
134.280000
21
-4.177690
0
LINE
8
Layer 1
10
134.280000
20
-4.177690
11
134.280000
21
-3.939570
0
LINE
8
Layer 1
10
134.280000
20
-3.939570
11
134.210547
21
-3.147476
0
LINE
8
Layer 1
10
134.210547
20
-3.147476
11
134.002187
21
-2.451293
0
LINE
8
Layer 1
10
134.002187
20
-2.451293
11
133.654922
21
-1.851021
0
LINE
8
Layer 1
10
133.654922
20
-1.851021
11
133.168750
21
-1.346660
0
LINE
8
Layer 1
10
133.168750
20
-1.346660
11
132.563516
21
-0.941517
0
LINE
8
Layer 1
10
132.563516
20
-0.941517
11
131.845835
21
-0.652129
0
LINE
8
Layer 1
10
131.845835
20
-0.652129
11
130.073130
21
-0.420619
0
LINE
8
Layer 1
10
130.073130
20
-0.420619
11
128.819667
21
-0.496687
0
LINE
8
Layer 1
10
128.819667
20
-0.496687
11
127.599280
21
-0.724891
0
LINE
8
Layer 1
10
127.599280
20
-0.724891
11
126.418580
21
-1.105228
0
LINE
8
Layer 1
10
126.418580
20
-1.105228
11
125.284180
21
-1.637701
0
LINE
8
Layer 1
10
125.284180
20
-1.637701
11
125.284000
21
0.611262
0
LINE
8
Layer 1
10
125.284000
20
0.611262
11
127.876910
21
1.378553
0
LINE
8
Layer 1
10
127.876910
20
1.378553
11
130.324310
21
1.643136
0
LINE
8
Layer 1
10
130.324310
20
1.643136
11
131.829951
21
1.538957
0
LINE
8
Layer 1
10
131.829951
20
1.538957
11
133.132195
21
1.226418
0
LINE
8
Layer 1
10
133.132195
20
1.226418
11
134.231041
21
0.705522
0
LINE
8
Layer 1
10
134.231041
20
0.705522
11
135.126490
21
-0.023734
0
LINE
8
Layer 1
10
135.126490
20
-0.023734
11
135.821021
21
-0.964657
0
LINE
8
Layer 1
10
135.821021
20
-0.964657
11
136.317115
21
-2.120554
0
LINE
8
Layer 1
10
136.317115
20
-2.120554
11
136.614771
21
-3.491427
0
LINE
8
Layer 1
10
136.614771
20
-3.491427
11
136.713990
21
-5.077274
0
LINE
8
Layer 1
10
136.713990
20
-5.077274
11
136.714100
21
-5.077270
0
LINE
8
Layer 1
10
150.314000
20
-0.989468
11
149.414417
21
-0.645510
0
LINE
8
Layer 1
10
149.414417
20
-0.645510
11
148.356087
21
-0.526446
0
LINE
8
Layer 1
10
148.356087
20
-0.526446
11
147.383743
21
-0.610782
0
LINE
8
Layer 1
10
147.383743
20
-0.610782
11
146.530462
21
-0.863788
0
LINE
8
Layer 1
10
146.530462
20
-0.863788
11
145.796243
21
-1.285467
0
LINE
8
Layer 1
10
145.796243
20
-1.285467
11
145.181087
21
-1.875816
0
LINE
8
Layer 1
10
145.181087
20
-1.875816
11
144.700703
21
-2.617478
0
LINE
8
Layer 1
10
144.700703
20
-2.617478
11
144.357572
21
-3.506313
0
LINE
8
Layer 1
10
144.357572
20
-3.506313
11
144.151693
21
-4.542323
0
LINE
8
Layer 1
10
144.151693
20
-4.542323
11
144.083067
21
-5.725506
0
LINE
8
Layer 1
10
144.083067
20
-5.725506
11
144.083000
21
-13.530700
0
LINE
8
Layer 1
10
144.083000
20
-13.530700
11
141.635000
21
-13.530700
0
LINE
8
Layer 1
10
141.635000
20
-13.530700
11
141.635000
21
1.285950
0
LINE
8
Layer 1
10
141.635000
20
1.285950
11
144.083000
21
1.285950
0
LINE
8
Layer 1
10
144.083000
20
1.285950
11
144.083000
21
-1.015930
0
LINE
8
Layer 1
10
144.083000
20
-1.015930
11
144.966046
21
0.158155
0
LINE
8
Layer 1
10
144.966046
20
0.158155
11
146.080600
21
0.981670
0
LINE
8
Layer 1
10
146.080600
20
0.981670
11
147.443203
21
1.477764
0
LINE
8
Layer 1
10
147.443203
20
1.477764
11
149.070390
21
1.643128
0
LINE
8
Layer 1
10
149.070390
20
1.643128
11
149.626015
21
1.603439
0
LINE
8
Layer 1
10
149.626015
20
1.603439
11
150.300703
21
1.510836
0
LINE
8
Layer 1
10
150.300703
20
1.510836
11
150.314000
21
-0.989468
0
LINE
8
Layer 1
10
155.274000
20
5.492820
11
155.274000
21
1.285950
0
LINE
8
Layer 1
10
155.274000
20
1.285950
11
160.288000
21
1.285950
0
LINE
8
Layer 1
10
160.288000
20
1.285950
11
160.288000
21
-0.605821
0
LINE
8
Layer 1
10
160.288000
20
-0.605821
11
155.274000
21
-0.605821
0
LINE
8
Layer 1
10
155.274000
20
-0.605821
11
155.274000
21
-8.649150
0
LINE
8
Layer 1
10
155.274000
20
-8.649150
11
155.396369
21
-10.137432
0
LINE
8
Layer 1
10
155.396369
20
-10.137432
11
155.763477
21
-10.977480
0
LINE
8
Layer 1
10
155.763477
20
-10.977480
11
156.520846
21
-11.364434
0
LINE
8
Layer 1
10
156.520846
20
-11.364434
11
157.787537
21
-11.493419
0
LINE
8
Layer 1
10
157.787537
20
-11.493419
11
160.288000
21
-11.493400
0
LINE
8
Layer 1
10
160.288000
20
-11.493400
11
160.288000
21
-13.530700
0
LINE
8
Layer 1
10
160.288000
20
-13.530700
11
157.788000
21
-13.530700
0
LINE
8
Layer 1
10
157.788000
20
-13.530700
11
156.488236
21
-13.465381
0
LINE
8
Layer 1
10
156.488236
20
-13.465381
11
155.406752
21
-13.269425
0
LINE
8
Layer 1
10
155.406752
20
-13.269425
11
154.543551
21
-12.942831
0
LINE
8
Layer 1
10
154.543551
20
-12.942831
11
153.898630
21
-12.485600
0
LINE
8
Layer 1
10
153.898630
20
-12.485600
11
153.429823
21
-11.848948
0
LINE
8
Layer 1
10
153.429823
20
-11.848948
11
153.094960
21
-10.997320
0
LINE
8
Layer 1
10
153.094960
20
-10.997320
11
152.894042
21
-9.930718
0
LINE
8
Layer 1
10
152.894042
20
-9.930718
11
152.827070
21
-8.649140
0
LINE
8
Layer 1
10
152.827070
20
-8.649140
11
152.827000
21
-0.605821
0
LINE
8
Layer 1
10
152.827000
20
-0.605821
11
151.041000
21
-0.605821
0
LINE
8
Layer 1
10
151.041000
20
-0.605821
11
151.041000
21
1.285950
0
LINE
8
Layer 1
10
151.041000
20
1.285950
11
152.827000
21
1.285950
0
LINE
8
Layer 1
10
152.827000
20
1.285950
11
152.827000
21
5.492820
0
LINE
8
Layer 1
10
152.827000
20
5.492820
11
155.274000
21
5.492820
0
LINE
8
Layer 1
10
172.935000
20
0.849386
11
172.935000
21
-1.452490
0
LINE
8
Layer 1
10
172.935000
20
-1.452490
11
170.791880
21
-0.658741
0
LINE
8
Layer 1
10
170.791880
20
-0.658741
11
168.490010
21
-0.394158
0
LINE
8
Layer 1
10
168.490010
20
-0.394158
11
166.902513
21
-0.533064
0
LINE
8
Layer 1
10
166.902513
20
-0.533064
11
165.764800
21
-0.949783
0
LINE
8
Layer 1
10
165.764800
20
-0.949783
11
165.090113
21
-1.644313
0
LINE
8
Layer 1
10
165.090113
20
-1.644313
11
164.865217
21
-2.616653
0
LINE
8
Layer 1
10
164.865217
20
-2.616653
11
165.027274
21
-3.374024
0
LINE
8
Layer 1
10
165.027274
20
-3.374024
11
165.513447
21
-3.952803
0
LINE
8
Layer 1
10
165.513447
20
-3.952803
11
166.489095
21
-4.419131
0
LINE
8
Layer 1
10
166.489095
20
-4.419131
11
168.119587
21
-4.865613
0
LINE
8
Layer 1
10
168.119587
20
-4.865613
11
168.953025
21
-5.050821
0
LINE
8
Layer 1
10
168.953025
20
-5.050821
11
171.168907
21
-5.722201
0
LINE
8
Layer 1
10
171.168907
20
-5.722201
11
172.630735
21
-6.625091
0
LINE
8
Layer 1
10
172.630735
20
-6.625091
11
173.111119
21
-7.178237
0
LINE
8
Layer 1
10
173.111119
20
-7.178237
11
173.454250
21
-7.832254
0
LINE
8
Layer 1
10
173.454250
20
-7.832254
11
173.660129
21
-8.587142
0
LINE
8
Layer 1
10
173.660129
20
-8.587142
11
173.728755
21
-9.442901
0
LINE
8
Layer 1
10
173.728755
20
-9.442901
11
173.626229
21
-10.421032
0
LINE
8
Layer 1
10
173.626229
20
-10.421032
11
173.318650
21
-11.291676
0
LINE
8
Layer 1
10
173.318650
20
-11.291676
11
172.806019
21
-12.054832
0
LINE
8
Layer 1
10
172.806019
20
-12.054832
11
172.088335
21
-12.710501
0
LINE
8
Layer 1
10
172.088335
20
-12.710501
11
171.197850
21
-13.237185
0
LINE
8
Layer 1
10
171.197850
20
-13.237185
11
170.153575
21
-13.613388
0
LINE
8
Layer 1
10
170.153575
20
-13.613388
11
168.955510
21
-13.839110
0
LINE
8
Layer 1
10
168.955510
20
-13.839110
11
167.603655
21
-13.914351
0
LINE
8
Layer 1
10
167.603655
20
-13.914351
11
165.116575
21
-13.676226
0
LINE
8
Layer 1
10
165.116575
20
-13.676226
11
162.404595
21
-12.988310
0
LINE
8
Layer 1
10
162.404595
20
-12.988310
11
162.405000
21
-10.474800
0
LINE
8
Layer 1
10
162.405000
20
-10.474800
11
163.744450
21
-11.089956
0
LINE
8
Layer 1
10
163.744450
20
-11.089956
11
165.064060
21
-11.533130
0
LINE
8
Layer 1
10
165.064060
20
-11.533130
11
166.367132
21
-11.791099
0
LINE
8
Layer 1
10
166.367132
20
-11.791099
11
167.656970
21
-11.877088
0
LINE
8
Layer 1
10
167.656970
20
-11.877088
11
169.178322
21
-11.731567
0
LINE
8
Layer 1
10
169.178322
20
-11.731567
11
170.302800
21
-11.295005
0
LINE
8
Layer 1
10
170.302800
20
-11.295005
11
170.997331
21
-10.580632
0
LINE
8
Layer 1
10
170.997331
20
-10.580632
11
171.228841
21
-9.628135
0
LINE
8
Layer 1
10
171.228841
20
-9.628135
11
171.060169
21
-8.751705
0
LINE
8
Layer 1
10
171.060169
20
-8.751705
11
170.554153
21
-8.106785
0
LINE
8
Layer 1
10
170.554153
20
-8.106785
11
169.492514
21
-7.587540
0
LINE
8
Layer 1
10
169.492514
20
-7.587540
11
167.630513
21
-7.088135
0
LINE
8
Layer 1
10
167.630513
20
-7.088135
11
166.783847
21
-6.889699
0
LINE
8
Layer 1
10
166.783847
20
-6.889699
11
164.835852
21
-6.287771
0
LINE
8
Layer 1
10
164.835852
20
-6.287771
11
163.516247
21
-5.434489
0
LINE
8
Layer 1
10
163.516247
20
-5.434489
11
163.076376
21
-4.892920
0
LINE
8
Layer 1
10
163.076376
20
-4.892920
11
162.762182
21
-4.260400
0
LINE
8
Layer 1
10
162.762182
20
-4.260400
11
162.510827
21
-2.722509
0
LINE
8
Layer 1
10
162.510827
20
-2.722509
11
162.603431
21
-1.736936
0
LINE
8
Layer 1
10
162.603431
20
-1.736936
11
162.881244
21
-0.870427
0
LINE
8
Layer 1
10
162.881244
20
-0.870427
11
163.344266
21
-0.122981
0
LINE
8
Layer 1
10
163.344266
20
-0.122981
11
163.992497
21
0.505401
0
LINE
8
Layer 1
10
163.992497
20
0.505401
11
164.811053
21
1.003149
0
LINE
8
Layer 1
10
164.811053
20
1.003149
11
165.785050
21
1.358683
0
LINE
8
Layer 1
10
165.785050
20
1.358683
11
166.914488
21
1.572004
0
LINE
8
Layer 1
10
166.914488
20
1.572004
11
168.199367
21
1.643111
0
LINE
8
Layer 1
10
168.199367
20
1.643111
11
170.739367
21
1.444672
0
LINE
8
Layer 1
10
170.739367
20
1.444672
11
172.935407
21
0.849361
0
LINE
8
Layer 1
10
172.935407
20
0.849361
11
172.935000
21
0.849386
 0 
ENDSEC
 0 
EOF