<?xml version="1.0" encoding="UTF-8" standalone="no"?>
<!-- Created with Inkscape (http://www.inkscape.org/) -->

<svg
   width="210mm"
   height="297mm"
   viewBox="0 0 210 297"
   version="1.1"
   id="svg5"
   sodipodi:docname="drawing.svg"
   inkscape:version="1.2.2 (1:1.2.2+202305151914+b0a8486541)"
   xmlns:inkscape="http://www.inkscape.org/namespaces/inkscape"
   xmlns:sodipodi="http://sodipodi.sourceforge.net/DTD/sodipodi-0.dtd"
   xmlns="http://www.w3.org/2000/svg"
   xmlns:svg="http://www.w3.org/2000/svg">
  <sodipodi:namedview
     id="namedview7"
     pagecolor="#ffffff"
     bordercolor="#666666"
     borderopacity="1.0"
     inkscape:showpageshadow="2"
     inkscape:pageopacity="0.0"
     inkscape:pagecheckerboard="0"
     inkscape:deskcolor="#d1d1d1"
     inkscape:document-units="mm"
     showgrid="false"
     inkscape:zoom="0.914906"
     inkscape:cx="209.31112"
     inkscape:cy="560.71334"
     inkscape:window-width="2186"
     inkscape:window-height="1435"
     inkscape:window-x="0"
     inkscape:window-y="0"
     inkscape:window-maximized="1"
     inkscape:current-layer="layer1" />
  <defs
     id="defs2">
    <rect
       x="7.2497202"
       y="203.18429"
       width="459.12333"
       height="53.954483"
       id="rect125" />
    <rect
       x="9.5510153"
       y="27.320942"
       width="479.56173"
       height="59.884904"
       id="rect113" />
  </defs>
  <g
     inkscape:label="Layer 1"
     inkscape:groupmode="layer"
     id="layer1">
    <text
       xml:space="preserve"
       transform="scale(0.26458333)"
       id="text111"
       style="font-size:40px;line-height:1.25;font-family:'Double Feature';-inkscape-font-specification:'Double Feature';white-space:pre;shape-inside:url(#rect113);display:inline"><tspan
         x="9.5507812"
         y="62.320312"
         id="tspan659">THESE ARE MY BROOMS</tspan></text>
    <g
       transform="matrix(-0.00306463,0,0,-0.00320429,121.77011,49.560514)"
       fill="#000000"
       stroke="none"
       id="g6">
      <path
         d="m 9005,7105 h 177 c 97,0 179,-3 183,-6 3,-4 12,-80 20,-170 95,-1106 60,-2152 -100,-2934 -64,-315 -167,-651 -240,-780 C 8831,2832 8289,2538 7435,2340 6829,2200 6027,2109 5180,2084 l -225,-7 3,294 c 4,314 -12,1157 -28,1529 -19,418 -52,842 -76,976 -5,30 -4,31 58,54 78,28 147,94 172,165 20,61 21,171 1,266 -29,139 -64,242 -91,270 -72,75 -233,101 -634,103 -464,2 -1661,-14 -1846,-25 -336,-19 -489,-62 -561,-156 -67,-88 -10,-288 177,-624 32,-58 60,-111 62,-117 2,-8 -52,-36 -137,-71 C 1717,4601 1465,4450 1284,4278 1008,4016 772,3577 579,2968 l -53,-168 -71,8 c -38,4 -117,7 -175,7 -117,-1 -185,-22 -213,-67 -8,-12 -25,-99 -38,-193 -31,-218 -33,-484 -5,-584 44,-159 137,-269 256,-301 25,-6 25,-8 25,-106 0,-114 13,-146 70,-170 43,-18 185,-34 305,-34 52,0 111,-3 130,-6 34,-6 36,-8 64,-96 37,-116 157,-358 236,-478 270,-409 619,-655 1065,-750 128,-28 432,-38 586,-21 801,92 1374,576 1594,1345 14,48 25,96 25,107 0,10 5,21 11,25 7,4 82,13 168,20 229,19 313,33 336,54 18,16 49,18 275,24 544,14 1741,46 2055,56 182,5 569,16 860,25 292,8 562,17 601,19 l 72,4 12,-81 c 45,-322 158,-627 321,-873 92,-138 283,-332 416,-422 231,-157 498,-252 823,-293 122,-16 458,-16 580,0 402,51 721,187 962,411 304,281 492,710 515,1178 l 6,122 h 174 c 170,0 174,1 198,24 36,36 40,82 16,203 -73,362 -305,861 -553,1192 -305,406 -742,643 -1411,766 -76,14 -148,25 -160,25 -45,0 -49,12 -68,176 -23,206 -87,635 -115,765 l -5,26 73,-14 c 125,-25 243,-1 293,59 21,25 25,40 25,98 0,128 -114,507 -256,846 -152,366 -207,431 -378,443 l -78,6 -79,290 c -139,506 -282,957 -350,1103 -88,189 -270,307 -381,246 -58,-31 -71,-91 -48,-225 10,-57 21,-130 24,-161 l 7,-58 h -463 c -651,0 -982,-18 -1066,-57 -66,-31 -106,-164 -106,-353 -1,-143 9,-184 61,-241 65,-72 104,-73 330,-8 l 813,176 z"
         id="path4"
         sodipodi:nodetypes="cscccccccccccccccccccccccccccccscsccccccsccccccccccccccccsccccscccccscccccccccscccccc" />
    </g>
    <text
       xml:space="preserve"
       transform="scale(0.26458333)"
       id="text123"
       style="font-size:40px;line-height:1.25;font-family:'Double Feature';-inkscape-font-specification:'Double Feature';text-align:center;white-space:pre;shape-inside:url(#rect125);display:inline"
       x="160.81604"
       y="0"><tspan
         x="75.991478"
         y="238.18359"
         id="tspan661">THEY GO VROOM</tspan></text>
    <path
       d="m 19.723077,22.655477 -0.66352,0.218089 -0.275846,0.59869 c -0.384055,0.833354 -0.881112,2.292277 -0.881112,2.586136 0,0.156448 -0.0761,0.311218 -0.210496,0.428087 -0.195275,0.16976 -0.291685,0.489902 -0.147359,0.48915 0.03479,-1.81e-4 0.180617,-0.07197 0.324183,-0.159496 0.207381,-0.126471 0.271632,-0.234416 0.312987,-0.525937 0.068,-0.478945 0.407283,-1.501426 0.797899,-2.404419 0.302039,-0.698042 0.325794,-0.727012 0.733159,-0.894317 0.596666,-0.244951 1.916138,-0.248992 2.568205,-0.0075 l 0.463115,0.171271 0.312152,0.726161 c 0.696018,1.619742 0.93573,2.61308 0.708643,2.937263 -0.209239,0.298767 -0.165215,0.513733 0.15806,0.771731 0.162082,0.129337 0.294701,0.289487 0.294701,0.355928 0,0.06635 0.0922,0.181121 0.204876,0.254974 0.159298,0.104409 0.243505,0.113506 0.378899,0.04115 0.143666,-0.07685 0.174065,-0.174303 0.174065,-0.558268 0,-0.288644 0.0319,-0.445431 0.08419,-0.413099 0.04627,0.02867 0.08421,0.124289 0.08421,0.212528 0,0.180196 0.291173,0.372942 0.431971,0.28595 0.05049,-0.03123 0.305402,-0.06718 0.566597,-0.0799 0.261279,-0.01281 0.911495,-0.05081 1.445008,-0.08446 0.952678,-0.06015 0.974409,-0.05742 1.220963,0.148706 0.138006,0.115439 0.407109,0.289148 0.597996,0.385981 0.191318,0.0971 0.367976,0.256147 0.393657,0.354598 0.05289,0.20224 -0.195184,0.502776 -0.415033,0.502776 -0.0756,0 -0.274515,0.08521 -0.442076,0.189457 -0.267509,0.166381 -0.407456,0.188021 -1.148795,0.177403 -0.560698,-0.0075 -0.952926,-0.05743 -1.168056,-0.14735 -0.204703,-0.08546 -0.568539,-0.13532 -0.988463,-0.13532 -0.384816,0 -0.735936,-0.0442 -0.83428,-0.105261 -0.14003,-0.08673 -0.183987,-0.08302 -0.250173,0.02107 -0.05338,0.08395 -0.08081,0.09102 -0.08164,0.02107 -0.0041,-0.217931 -0.156274,-0.09296 -0.286793,0.233243 -0.186517,0.466064 -0.173123,0.563061 0.118389,0.85459 0.239803,0.239795 0.278209,0.250322 0.694671,0.190705 0.449489,-0.06437 0.993182,-0.05966 1.062151,0.0095 0.103896,0.103905 -0.142136,0.158216 -0.7303,0.161248 -0.614521,0.0041 -0.650382,0.01372 -0.67665,0.199639 -0.03429,0.241926 0.153994,0.46161 0.701397,0.818464 0.490828,0.320052 1.095996,0.930103 1.170601,1.18011 0.02851,0.09574 -0.0233,0.398863 -0.115183,0.673627 -0.214223,0.640285 -0.212528,0.82956 0.01016,1.130682 l 0.181468,0.245455 -0.392062,1.961509 c -0.215551,1.078817 -0.391955,2.061125 -0.391955,2.182802 7.5e-5,0.130429 0.07172,0.268864 0.174635,0.337149 0.118472,0.07866 0.212107,0.291594 0.29176,0.662851 0.186343,0.869561 0.169164,0.992842 -0.150549,1.079238 -0.327802,0.08858 -0.321159,0.09271 -0.390458,-0.246298 -0.07123,-0.347931 -0.242762,-0.450398 -0.631684,-0.377486 -0.360399,0.06759 -0.428931,0.185251 -0.350715,0.602061 0.06891,0.367547 0.314251,0.626213 0.59398,0.626213 0.164695,0 0.210504,0.04297 0.210504,0.197457 0,0.108623 -0.07279,0.263303 -0.16167,0.343799 -0.178006,0.161083 -0.388766,0.903505 -0.312732,1.101714 0.03107,0.08114 0.163183,0.125296 0.37462,0.125296 0.260345,0 0.750849,0.15949 0.929351,0.302213 0.07643,0.06115 -0.254808,0.400465 -0.540164,0.553468 -0.254537,0.136402 -0.405349,0.159645 -0.753031,0.116191 -0.427081,-0.05329 -0.4424,-0.04743 -0.864266,0.331852 -0.236184,0.212362 -0.441383,0.470029 -0.45595,0.572661 -0.03099,0.217585 -0.745206,0.644665 -1.08328,0.64778 -0.35601,0.0041 -0.416726,0.143897 -0.417403,0.966054 -3.06e-4,0.618828 -0.0319,0.809549 -0.167818,1.014649 -0.141294,0.213379 -0.167471,0.396607 -0.168222,1.178855 -0.0025,0.850616 -0.0176,0.946869 -0.203108,1.178847 -0.185418,0.231731 -0.24529,0.252611 -0.723302,0.252611 -0.47802,0 -0.537893,-0.02091 -0.72331,-0.252611 -0.185757,-0.232226 -0.202083,-0.327637 -0.202505,-1.181111 -3.14e-4,-0.748495 -0.02901,-0.969021 -0.147781,-1.136748 -0.113348,-0.160149 -0.157042,-0.441391 -0.189457,-1.218665 l -0.04213,-1.01041 -0.515253,-0.170007 c -0.283332,-0.09348 -0.567506,-0.211428 -0.63151,-0.262047 -0.06396,-0.05065 -0.220526,-0.116944 -0.347848,-0.147343 -0.127313,-0.03041 -0.231573,-0.11082 -0.231573,-0.178683 0,-0.06792 -0.104227,-0.238373 -0.231549,-0.378998 -0.18103,-0.199819 -0.360135,-0.282423 -0.820984,-0.378759 -0.324184,-0.06784 -0.698886,-0.123852 -0.832768,-0.124694 -0.220179,-0.0033 -0.462874,-0.189623 -0.469691,-0.364514 -0.0041,-0.0376 0.30988,-0.06346 0.691994,-0.05735 0.382113,0.0058 0.759509,0.0085 0.838741,0.0041 0.09895,-0.0041 0.184732,-0.142484 0.273665,-0.442077 0.163611,-0.550675 0.16462,-1.000841 0.0041,-1.386987 -0.06949,-0.166306 -0.126314,-0.487125 -0.126314,-0.713039 0,-0.484424 -0.203851,-0.747553 -0.579148,-0.747553 -0.272739,0 -0.382874,0.105086 -0.463362,0.442061 -0.04099,0.171519 -0.106863,0.231565 -0.253966,0.231565 -0.350451,0 -0.408133,-0.168661 -0.307509,-0.899209 0.07511,-0.545899 0.12648,-0.684995 0.300007,-0.812904 0.132047,-0.09743 0.209338,-0.237357 0.209429,-0.378907 0,-0.123537 -0.176412,-1.107274 -0.391972,-2.186092 l -0.392045,-1.961516 0.181452,-0.245448 c 0.225243,-0.304566 0.226252,-0.457222 0.0075,-1.133632 -0.157538,-0.487614 -0.162075,-0.559954 -0.04875,-0.775423 0.153745,-0.292693 0.75227,-0.86705 1.150216,-1.103648 0.441547,-0.262558 0.690382,-0.560796 0.658058,-0.788825 -0.02652,-0.187599 -0.06115,-0.197886 -0.676848,-0.201001 -0.588155,-0.0041 -0.834189,-0.05743 -0.730284,-0.161232 0.06891,-0.06899 0.612671,-0.07387 1.062135,-0.0095 0.419264,0.06007 0.453786,0.05016 0.704537,-0.200571 0.222129,-0.222122 0.255304,-0.305997 0.210082,-0.531745 -0.06561,-0.327885 -0.524424,-0.819885 -0.764723,-0.819885 -0.09693,0 -0.315103,0.07081 -0.485027,0.157464 -0.171098,0.08723 -0.403399,0.139352 -0.52112,0.116786 -0.120165,-0.02281 -0.350293,0.03082 -0.529984,0.123852 -0.449811,0.232829 -0.658802,0.271739 -1.505724,0.280571 -0.650051,0.0066 -0.803046,-0.02074 -1.162751,-0.209073 -0.227863,-0.119398 -0.463386,-0.21699 -0.523341,-0.21699 -0.05999,0 -0.148351,-0.07329 -0.196275,-0.162927 -0.104161,-0.194605 0.02074,-0.594897 0.185591,-0.594897 0.05966,0 0.306749,-0.133552 0.549088,-0.296734 0.242332,-0.163273 0.554725,-0.319647 0.694093,-0.347518 0.139435,-0.02784 0.77425,0.01413 1.41066,0.09339 1.019358,0.126883 1.197372,0.129676 1.493767,0.02338 0.280465,-0.100633 0.352293,-0.17532 0.431955,-0.44915 0.05247,-0.180699 0.135147,-0.319977 0.183558,-0.309532 0.142476,0.03073 0.209917,-0.470609 0.09927,-0.737796 -0.05569,-0.134551 -0.206876,-0.312053 -0.335792,-0.3944 -0.548585,-0.350541 -1.776513,-1.503377 -1.817017,-1.706039 -0.140286,-0.700661 -0.684995,-1.027034 -1.803044,-1.080502 l -0.724145,-0.03454 -0.267442,0.304649 c -0.315342,0.359127 -0.301874,0.63936 0.05701,1.187853 0.314161,0.47997 0.657538,0.618472 1.695173,0.683732 0.497901,0.03132 0.990745,0.109639 1.133542,0.180294 0.456306,0.225484 1.471029,0.985241 1.521737,1.139351 0.02735,0.08302 0.02438,0.300344 -0.0066,0.482985 -0.08277,0.490059 -0.41386,0.570895 -1.587989,0.388088 -1.395498,-0.217328 -1.630929,-0.196266 -2.222795,0.198977 -0.277457,0.185244 -0.540429,0.336808 -0.584379,0.336808 -0.158472,0 -0.433648,0.385237 -0.488794,0.684401 -0.04875,0.26474 -0.02463,0.334892 0.181707,0.526275 0.131024,0.121414 0.283943,0.220774 0.33985,0.220774 0.05586,0 0.279795,0.09472 0.497553,0.21052 0.32881,0.1748 0.511534,0.210421 1.078049,0.209991 0.868727,-0.0016 1.631946,-0.125033 1.822081,-0.297065 0.10693,-0.09684 0.230805,-0.118737 0.444093,-0.07875 0.23088,0.04321 0.350699,0.01487 0.546147,-0.129677 0.311467,-0.230284 0.558096,-0.168479 0.741249,0.185592 0.121661,0.235349 0.121331,0.268698 -0.0041,0.393986 -0.10693,0.106764 -0.309625,0.136915 -0.920593,0.136915 -0.845831,0 -1.062482,0.08522 -1.062482,0.417817 0,0.357442 0.785198,0.555063 1.333626,0.335628 0.196605,-0.07867 0.377469,-0.122934 0.401977,-0.09852 0.04768,0.04768 -0.666817,0.565425 -0.782414,0.566953 -0.03801,0.0016 -0.362753,0.29756 -0.721624,0.660149 -0.673122,0.680029 -0.749403,0.850962 -0.577132,1.292683 0.267764,0.686673 0.283596,0.868472 0.10155,1.167147 -0.218676,0.358705 -0.219427,0.44501 -0.01322,1.383963 0.251685,1.146085 0.503619,2.399289 0.562804,2.800183 0.04701,0.31845 0.02842,0.377562 -0.168313,0.532406 -0.153845,0.120918 -0.221368,0.253545 -0.221368,0.434749 0,0.143318 -0.04024,0.491827 -0.08951,0.774415 -0.125297,0.719856 -0.03421,0.922443 0.472129,1.049939 0.341444,0.08596 0.416726,0.08056 0.549088,-0.03925 0.08437,-0.07626 0.177932,-0.25066 0.207983,-0.387336 0.03751,-0.170841 0.09827,-0.240315 0.194267,-0.222046 0.105252,0.02016 0.150458,0.150648 0.183733,0.530993 0.02429,0.277366 0.09531,0.595905 0.157794,0.707809 0.113085,0.202339 0.09262,1.0661 -0.03008,1.264408 -0.03264,0.05271 -0.361647,0.08992 -0.795379,0.08992 -0.609795,0 -0.76431,0.02693 -0.879171,0.154002 -0.156266,0.172635 -0.182376,0.398887 -0.05511,0.477524 0.04627,0.02867 0.08419,0.143228 0.08419,0.254635 0,0.254297 0.271227,0.4179 0.494612,0.298329 0.209578,-0.112068 0.990736,-0.01843 1.349524,0.161835 0.192407,0.09675 0.316696,0.23787 0.378915,0.430278 0.07065,0.218767 0.145765,0.292537 0.317953,0.3124 0.123942,0.01446 0.270715,0.08065 0.326042,0.14736 0.05544,0.06677 0.137675,0.12133 0.182898,0.12133 0.04528,0 0.201662,0.0528 0.347583,0.117308 0.145921,0.06453 0.331669,0.139096 0.412687,0.165785 0.127552,0.04198 0.147424,0.164537 0.147928,0.914205 3.22e-4,0.722294 0.02818,0.907537 0.167818,1.118289 0.139625,0.210859 0.167396,0.396011 0.167826,1.119908 0.0016,0.933904 0.07081,1.16656 0.462527,1.532503 0.194846,0.182046 0.303038,0.210512 0.801112,0.210512 0.498058,0 0.606268,-0.02842 0.801105,-0.210512 0.391715,-0.365943 0.46185,-0.598599 0.462535,-1.532503 3.15e-4,-0.723897 0.02826,-0.909049 0.167818,-1.119908 0.134808,-0.203513 0.167396,-0.395748 0.16781,-0.989381 0.0016,-0.720855 0.0041,-0.736778 0.202083,-0.736778 0.353747,0 1.162355,-0.516079 1.26483,-0.807343 0.05032,-0.142979 0.224062,-0.374627 0.386146,-0.514814 0.270135,-0.233581 0.334131,-0.25152 0.767342,-0.214726 0.346757,0.02942 0.52806,0.0041 0.680368,-0.09591 0.114274,-0.07477 0.229879,-0.113927 0.256907,-0.0868 0.105591,0.105507 0.400482,-0.145757 0.400482,-0.341362 0,-0.111407 0.03792,-0.225996 0.08419,-0.254635 0.224575,-0.138773 -0.05172,-0.631526 -0.354161,-0.631526 -0.07172,0 -0.180352,-0.06016 -0.241323,-0.133627 -0.07296,-0.088 -0.205951,-0.12252 -0.389179,-0.101128 -0.175816,0.02057 -0.278399,-0.0041 -0.278399,-0.0666 0,-0.180435 0.246645,-0.69306 0.350129,-0.727507 0.05602,-0.01875 0.12319,-0.219775 0.149466,-0.446861 0.04594,-0.396772 0.0604,-0.415967 0.369818,-0.488894 0.477012,-0.112499 0.529969,-0.300345 0.36477,-1.29479 -0.105342,-0.633965 -0.1786,-0.858705 -0.317283,-0.972789 -0.151565,-0.124793 -0.17185,-0.205125 -0.127562,-0.505222 0.05899,-0.399548 0.311219,-1.653768 0.562639,-2.798754 0.206142,-0.938953 0.205364,-1.025266 -0.01338,-1.383971 -0.182046,-0.298667 -0.166223,-0.480449 0.101558,-1.167147 0.172279,-0.441721 0.09599,-0.612654 -0.57714,-1.292675 -0.358871,-0.36258 -0.683641,-0.659662 -0.721608,-0.660157 -0.115622,-0.0041 -0.830091,-0.519194 -0.782431,-0.566937 0.02438,-0.02437 0.20538,0.01983 0.401994,0.09853 0.548419,0.219428 1.33361,0.02182 1.33361,-0.335643 0,-0.332611 -0.216652,-0.417826 -1.062482,-0.417826 -0.872768,0 -1.078982,-0.09515 -0.985002,-0.454529 0.05206,-0.199216 0.05949,-0.200481 0.902654,-0.152061 0.469601,0.02693 0.990232,0.107608 1.163181,0.180353 0.225666,0.09482 0.598095,0.131528 1.334287,0.131528 0.859547,0 1.0565,-0.02487 1.244685,-0.156705 0.12295,-0.08622 0.366876,-0.203265 0.542197,-0.260104 0.413264,-0.134122 0.599533,-0.412761 0.521044,-0.779638 -0.0761,-0.356012 -0.163438,-0.459066 -0.535603,-0.632196 -0.167231,-0.07792 -0.444267,-0.252437 -0.615455,-0.387923 l -0.311384,-0.24638 -1.03586,0.05883 c -0.569811,0.03239 -1.30121,0.06552 -1.625377,0.0737 l -0.589427,0.01495 -0.02602,-0.408885 c -0.03074,-0.483325 0.03561,-0.574439 0.816845,-1.120495 0.378006,-0.264228 0.672121,-0.399722 0.974829,-0.448976 0.737952,-0.120075 1.359291,-0.33362 1.539816,-0.529052 0.220031,-0.238209 0.441565,-0.77273 0.441565,-1.065431 0,-0.436071 -0.515996,-0.810441 -0.998214,-0.724136 -1.158644,0.207471 -1.61133,0.537471 -1.677168,1.222722 -0.03982,0.414272 -0.06651,0.451918 -0.82486,1.163676 -0.431038,0.404523 -0.826116,0.847013 -0.877907,0.98325 -0.05172,0.136237 -0.08942,0.552112 -0.0836,0.924302 0.005,0.372174 0.0075,0.709743 0.0041,0.750082 -0.01,0.128404 -0.258328,-0.130272 -0.258328,-0.269194 0,-0.07321 -0.117225,-0.253958 -0.260436,-0.401747 -0.253206,-0.261187 -0.256494,-0.274663 -0.119662,-0.483489 0.111829,-0.170685 0.128412,-0.315342 0.08073,-0.703695 -0.068,-0.553459 -0.507486,-1.879491 -0.918486,-2.771288 l -0.275743,-0.598435 -0.68987,-0.222477 c -0.914537,-0.295048 -1.657974,-0.293858 -2.563909,0.0041 m -5.414016,0.880585 c 0.339584,0.109473 0.562226,0.411256 0.562226,0.762211 0,0.119744 0.120579,0.296726 0.315755,0.463453 l 0.315763,0.269706 -0.329579,-0.08807 c -0.181202,-0.04834 -0.427914,-0.06834 -0.548245,-0.04429 -0.120315,0.02404 -0.516417,-0.0083 -0.880345,-0.07115 -0.740381,-0.128569 -0.95133,-0.272218 -1.195678,-0.81406 l -0.154523,-0.342551 0.206976,-0.168222 c 0.178517,-0.145087 0.287809,-0.161513 0.796311,-0.119498 0.324183,0.02685 0.734258,0.09549 0.911339,0.152499 m 14.434715,0.0083 c 0.152482,0.122008 0.129677,0.381014 -0.07006,0.793528 -0.160662,0.331933 -0.221204,0.376387 -0.724566,0.531835 -0.302122,0.0933 -0.668486,0.169916 -0.814077,0.170164 -0.145665,3.22e-4 -0.37167,0.05627 -0.502189,0.124363 l -0.237374,0.123794 0.211016,-0.25085 c 0.151052,-0.179527 0.209743,-0.34632 0.206389,-0.587065 -0.0058,-0.465477 0.18616,-0.718154 0.66461,-0.871842 0.695943,-0.223641 1.018358,-0.232227 1.266251,-0.03396 m -3.316032,17.262035 c 0.07263,0.271301 0.06461,0.399969 -0.0252,0.399969 -0.13565,0 -0.342799,-0.257998 -0.342799,-0.426998 0,-0.233498 0.304154,-0.211089 0.367984,0.02702"
       stroke="none"
       fill="#000000"
       fill-rule="evenodd"
       id="path262"
       style="stroke-width:0.084203" />
  </g>
</svg>
